G04 #@! TF.GenerationSoftware,KiCad,Pcbnew,(5.0.2)-1*
G04 #@! TF.CreationDate,2020-01-28T10:02:17+01:00*
G04 #@! TF.ProjectId,Lab1,4c616231-2e6b-4696-9361-645f70636258,rev?*
G04 #@! TF.SameCoordinates,Original*
G04 #@! TF.FileFunction,Soldermask,Bot*
G04 #@! TF.FilePolarity,Negative*
%FSLAX46Y46*%
G04 Gerber Fmt 4.6, Leading zero omitted, Abs format (unit mm)*
G04 Created by KiCad (PCBNEW (5.0.2)-1) date 2020-01-28 10:02:17*
%MOMM*%
%LPD*%
G01*
G04 APERTURE LIST*
%ADD10C,0.100000*%
G04 APERTURE END LIST*
D10*
G36*
X120272713Y-116858058D02*
X120272716Y-116858059D01*
X120390718Y-116893854D01*
X120499468Y-116951982D01*
X120594790Y-117030210D01*
X120594791Y-117030212D01*
X120594793Y-117030213D01*
X120673017Y-117125529D01*
X120731145Y-117234279D01*
X120766942Y-117352286D01*
X120776000Y-117444253D01*
X120776000Y-118155747D01*
X120766942Y-118247714D01*
X120731145Y-118365721D01*
X120673017Y-118474471D01*
X120594790Y-118569790D01*
X120499471Y-118648017D01*
X120499469Y-118648018D01*
X120390719Y-118706146D01*
X120294683Y-118735278D01*
X120272714Y-118741942D01*
X120150000Y-118754028D01*
X120027287Y-118741942D01*
X120005318Y-118735278D01*
X119909282Y-118706146D01*
X119800532Y-118648018D01*
X119800530Y-118648017D01*
X119705211Y-118569790D01*
X119626986Y-118474473D01*
X119626985Y-118474471D01*
X119626983Y-118474469D01*
X119568854Y-118365719D01*
X119533059Y-118247717D01*
X119533058Y-118247714D01*
X119524000Y-118155747D01*
X119524000Y-117444254D01*
X119533058Y-117352287D01*
X119568855Y-117234280D01*
X119575502Y-117221844D01*
X119626982Y-117125532D01*
X119705210Y-117030210D01*
X119705212Y-117030209D01*
X119705213Y-117030207D01*
X119800529Y-116951983D01*
X119909279Y-116893855D01*
X119909281Y-116893854D01*
X120027283Y-116858059D01*
X120027286Y-116858058D01*
X120150000Y-116845972D01*
X120272713Y-116858058D01*
X120272713Y-116858058D01*
G37*
G36*
X112522713Y-116858058D02*
X112522716Y-116858059D01*
X112640718Y-116893854D01*
X112749468Y-116951982D01*
X112844790Y-117030210D01*
X112844791Y-117030212D01*
X112844793Y-117030213D01*
X112923017Y-117125529D01*
X112981145Y-117234279D01*
X113016942Y-117352286D01*
X113026000Y-117444253D01*
X113026000Y-118155747D01*
X113016942Y-118247714D01*
X112981145Y-118365721D01*
X112923017Y-118474471D01*
X112844790Y-118569790D01*
X112749471Y-118648017D01*
X112749469Y-118648018D01*
X112640719Y-118706146D01*
X112544683Y-118735278D01*
X112522714Y-118741942D01*
X112400000Y-118754028D01*
X112277287Y-118741942D01*
X112255318Y-118735278D01*
X112159282Y-118706146D01*
X112050532Y-118648018D01*
X112050530Y-118648017D01*
X111955211Y-118569790D01*
X111876986Y-118474473D01*
X111876985Y-118474471D01*
X111876983Y-118474469D01*
X111818854Y-118365719D01*
X111783059Y-118247717D01*
X111783058Y-118247714D01*
X111774000Y-118155747D01*
X111774000Y-117444254D01*
X111783058Y-117352287D01*
X111818855Y-117234280D01*
X111825502Y-117221844D01*
X111876982Y-117125532D01*
X111955210Y-117030210D01*
X111955212Y-117030209D01*
X111955213Y-117030207D01*
X112050529Y-116951983D01*
X112159279Y-116893855D01*
X112159281Y-116893854D01*
X112277283Y-116858059D01*
X112277286Y-116858058D01*
X112400000Y-116845972D01*
X112522713Y-116858058D01*
X112522713Y-116858058D01*
G37*
G36*
X120152118Y-112960228D02*
X120152121Y-112960229D01*
X120298398Y-113004601D01*
X120298400Y-113004602D01*
X120433209Y-113076659D01*
X120551369Y-113173631D01*
X120648341Y-113291790D01*
X120720398Y-113426599D01*
X120764772Y-113572881D01*
X120776000Y-113686882D01*
X120776000Y-114313118D01*
X120764772Y-114427119D01*
X120720398Y-114573401D01*
X120648341Y-114708210D01*
X120551369Y-114826369D01*
X120433210Y-114923341D01*
X120433208Y-114923342D01*
X120298399Y-114995399D01*
X120179352Y-115031511D01*
X120152119Y-115039772D01*
X120000000Y-115054754D01*
X119847882Y-115039772D01*
X119820649Y-115031511D01*
X119701602Y-114995399D01*
X119566793Y-114923342D01*
X119566791Y-114923341D01*
X119448634Y-114826371D01*
X119448632Y-114826368D01*
X119418695Y-114789891D01*
X119401370Y-114772566D01*
X119380995Y-114758953D01*
X119358356Y-114749575D01*
X119334323Y-114744795D01*
X119309818Y-114744795D01*
X119285785Y-114749576D01*
X119263146Y-114758953D01*
X119242771Y-114772567D01*
X119225444Y-114789894D01*
X119211831Y-114810269D01*
X119202453Y-114832908D01*
X119197673Y-114856941D01*
X119197673Y-114881446D01*
X119202454Y-114905479D01*
X119219475Y-114961587D01*
X119228182Y-115050000D01*
X119219475Y-115138413D01*
X119196710Y-115213456D01*
X119193686Y-115223425D01*
X119151807Y-115301774D01*
X119095448Y-115370448D01*
X119026774Y-115426807D01*
X118948425Y-115468686D01*
X118938456Y-115471710D01*
X118863413Y-115494475D01*
X118797158Y-115501000D01*
X118752842Y-115501000D01*
X118686587Y-115494475D01*
X118611544Y-115471710D01*
X118601575Y-115468686D01*
X118523226Y-115426807D01*
X118454552Y-115370448D01*
X118398193Y-115301774D01*
X118356314Y-115223425D01*
X118353290Y-115213456D01*
X118330525Y-115138413D01*
X118321818Y-115050000D01*
X118330525Y-114961587D01*
X118354836Y-114881449D01*
X118356314Y-114876575D01*
X118398193Y-114798226D01*
X118454552Y-114729552D01*
X118523226Y-114673193D01*
X118601575Y-114631314D01*
X118611544Y-114628290D01*
X118686587Y-114605525D01*
X118752842Y-114599000D01*
X118797158Y-114599000D01*
X118863413Y-114605525D01*
X118938456Y-114628290D01*
X118948425Y-114631314D01*
X119001735Y-114659809D01*
X119026775Y-114673193D01*
X119040497Y-114684455D01*
X119086429Y-114722150D01*
X119106798Y-114735761D01*
X119129437Y-114745138D01*
X119153471Y-114749919D01*
X119177975Y-114749919D01*
X119202008Y-114745139D01*
X119224648Y-114735762D01*
X119245022Y-114722148D01*
X119262350Y-114704821D01*
X119275964Y-114684447D01*
X119285341Y-114661808D01*
X119290122Y-114637774D01*
X119290122Y-114613270D01*
X119285342Y-114589237D01*
X119281843Y-114580788D01*
X119279602Y-114573401D01*
X119279601Y-114573399D01*
X119235229Y-114427122D01*
X119235228Y-114427119D01*
X119224000Y-114313118D01*
X119224000Y-113686883D01*
X119235228Y-113572882D01*
X119279602Y-113426600D01*
X119351659Y-113291791D01*
X119448631Y-113173631D01*
X119566790Y-113076659D01*
X119701599Y-113004602D01*
X119701601Y-113004601D01*
X119847878Y-112960229D01*
X119847881Y-112960228D01*
X120000000Y-112945246D01*
X120152118Y-112960228D01*
X120152118Y-112960228D01*
G37*
G36*
X112702118Y-112960228D02*
X112702121Y-112960229D01*
X112848398Y-113004601D01*
X112848400Y-113004602D01*
X112983209Y-113076659D01*
X113101369Y-113173631D01*
X113198341Y-113291790D01*
X113270398Y-113426599D01*
X113314772Y-113572881D01*
X113326000Y-113686882D01*
X113326000Y-114313118D01*
X113314772Y-114427119D01*
X113268156Y-114580792D01*
X113264655Y-114589246D01*
X113259877Y-114613279D01*
X113259879Y-114637784D01*
X113264662Y-114661817D01*
X113274041Y-114684455D01*
X113287656Y-114704828D01*
X113304985Y-114722154D01*
X113325361Y-114735766D01*
X113348001Y-114745142D01*
X113372034Y-114749920D01*
X113396539Y-114749918D01*
X113420572Y-114745135D01*
X113443210Y-114735756D01*
X113463571Y-114722150D01*
X113509503Y-114684455D01*
X113523225Y-114673193D01*
X113548265Y-114659809D01*
X113601575Y-114631314D01*
X113611544Y-114628290D01*
X113686587Y-114605525D01*
X113752842Y-114599000D01*
X113797158Y-114599000D01*
X113863413Y-114605525D01*
X113938456Y-114628290D01*
X113948425Y-114631314D01*
X114026774Y-114673193D01*
X114095448Y-114729552D01*
X114151807Y-114798226D01*
X114193686Y-114876575D01*
X114195164Y-114881449D01*
X114219475Y-114961587D01*
X114228182Y-115050000D01*
X114219475Y-115138413D01*
X114196710Y-115213456D01*
X114193686Y-115223425D01*
X114151807Y-115301774D01*
X114095448Y-115370448D01*
X114026774Y-115426807D01*
X113948425Y-115468686D01*
X113938456Y-115471710D01*
X113863413Y-115494475D01*
X113797158Y-115501000D01*
X113752842Y-115501000D01*
X113686587Y-115494475D01*
X113611544Y-115471710D01*
X113601575Y-115468686D01*
X113523226Y-115426807D01*
X113454552Y-115370448D01*
X113398193Y-115301774D01*
X113356314Y-115223425D01*
X113353290Y-115213456D01*
X113330525Y-115138413D01*
X113321818Y-115050000D01*
X113330525Y-114961589D01*
X113342128Y-114923341D01*
X113347547Y-114905476D01*
X113352327Y-114881449D01*
X113352327Y-114856945D01*
X113347547Y-114832911D01*
X113338170Y-114810272D01*
X113324556Y-114789897D01*
X113307230Y-114772570D01*
X113286855Y-114758956D01*
X113264216Y-114749578D01*
X113240183Y-114744797D01*
X113215679Y-114744797D01*
X113191645Y-114749577D01*
X113169006Y-114758954D01*
X113148631Y-114772568D01*
X113131304Y-114789895D01*
X113114580Y-114810272D01*
X113101369Y-114826369D01*
X113075553Y-114847556D01*
X112983210Y-114923341D01*
X112983208Y-114923342D01*
X112848399Y-114995399D01*
X112729352Y-115031511D01*
X112702119Y-115039772D01*
X112550000Y-115054754D01*
X112397882Y-115039772D01*
X112370649Y-115031511D01*
X112251602Y-114995399D01*
X112116793Y-114923342D01*
X112116791Y-114923341D01*
X111998632Y-114826369D01*
X111901660Y-114708210D01*
X111829602Y-114573401D01*
X111785228Y-114427119D01*
X111774000Y-114313118D01*
X111774000Y-113686883D01*
X111785228Y-113572882D01*
X111829602Y-113426600D01*
X111901659Y-113291791D01*
X111998631Y-113173631D01*
X112116790Y-113076659D01*
X112251599Y-113004602D01*
X112251601Y-113004601D01*
X112397878Y-112960229D01*
X112397881Y-112960228D01*
X112550000Y-112945246D01*
X112702118Y-112960228D01*
X112702118Y-112960228D01*
G37*
G36*
X110650443Y-85105519D02*
X110716627Y-85112037D01*
X110829853Y-85146384D01*
X110886467Y-85163557D01*
X111025087Y-85237652D01*
X111042991Y-85247222D01*
X111078729Y-85276552D01*
X111180186Y-85359814D01*
X111263448Y-85461271D01*
X111292778Y-85497009D01*
X111292779Y-85497011D01*
X111376443Y-85653533D01*
X111376443Y-85653534D01*
X111427963Y-85823373D01*
X111445359Y-86000000D01*
X111427963Y-86176627D01*
X111393616Y-86289853D01*
X111376443Y-86346467D01*
X111302348Y-86485087D01*
X111292778Y-86502991D01*
X111263448Y-86538729D01*
X111180186Y-86640186D01*
X111078729Y-86723448D01*
X111042991Y-86752778D01*
X111042989Y-86752779D01*
X110886467Y-86836443D01*
X110829853Y-86853616D01*
X110716627Y-86887963D01*
X110650442Y-86894482D01*
X110584260Y-86901000D01*
X110495740Y-86901000D01*
X110429558Y-86894482D01*
X110363373Y-86887963D01*
X110250147Y-86853616D01*
X110193533Y-86836443D01*
X110037011Y-86752779D01*
X110037009Y-86752778D01*
X110001271Y-86723448D01*
X109899814Y-86640186D01*
X109816552Y-86538729D01*
X109787222Y-86502991D01*
X109777652Y-86485087D01*
X109703557Y-86346467D01*
X109686384Y-86289853D01*
X109652037Y-86176627D01*
X109634641Y-86000000D01*
X109652037Y-85823373D01*
X109703557Y-85653534D01*
X109703557Y-85653533D01*
X109787221Y-85497011D01*
X109787222Y-85497009D01*
X109816552Y-85461271D01*
X109899814Y-85359814D01*
X110001271Y-85276552D01*
X110037009Y-85247222D01*
X110054913Y-85237652D01*
X110193533Y-85163557D01*
X110250147Y-85146384D01*
X110363373Y-85112037D01*
X110429557Y-85105519D01*
X110495740Y-85099000D01*
X110584260Y-85099000D01*
X110650443Y-85105519D01*
X110650443Y-85105519D01*
G37*
G36*
X113190443Y-85105519D02*
X113256627Y-85112037D01*
X113369853Y-85146384D01*
X113426467Y-85163557D01*
X113565087Y-85237652D01*
X113582991Y-85247222D01*
X113618729Y-85276552D01*
X113720186Y-85359814D01*
X113803448Y-85461271D01*
X113832778Y-85497009D01*
X113832779Y-85497011D01*
X113916443Y-85653533D01*
X113916443Y-85653534D01*
X113967963Y-85823373D01*
X113985359Y-86000000D01*
X113967963Y-86176627D01*
X113933616Y-86289853D01*
X113916443Y-86346467D01*
X113842348Y-86485087D01*
X113832778Y-86502991D01*
X113803448Y-86538729D01*
X113720186Y-86640186D01*
X113618729Y-86723448D01*
X113582991Y-86752778D01*
X113582989Y-86752779D01*
X113426467Y-86836443D01*
X113369853Y-86853616D01*
X113256627Y-86887963D01*
X113190442Y-86894482D01*
X113124260Y-86901000D01*
X113035740Y-86901000D01*
X112969558Y-86894482D01*
X112903373Y-86887963D01*
X112790147Y-86853616D01*
X112733533Y-86836443D01*
X112577011Y-86752779D01*
X112577009Y-86752778D01*
X112541271Y-86723448D01*
X112439814Y-86640186D01*
X112356552Y-86538729D01*
X112327222Y-86502991D01*
X112317652Y-86485087D01*
X112243557Y-86346467D01*
X112226384Y-86289853D01*
X112192037Y-86176627D01*
X112174641Y-86000000D01*
X112192037Y-85823373D01*
X112243557Y-85653534D01*
X112243557Y-85653533D01*
X112327221Y-85497011D01*
X112327222Y-85497009D01*
X112356552Y-85461271D01*
X112439814Y-85359814D01*
X112541271Y-85276552D01*
X112577009Y-85247222D01*
X112594913Y-85237652D01*
X112733533Y-85163557D01*
X112790147Y-85146384D01*
X112903373Y-85112037D01*
X112969557Y-85105519D01*
X113035740Y-85099000D01*
X113124260Y-85099000D01*
X113190443Y-85105519D01*
X113190443Y-85105519D01*
G37*
G36*
X115730443Y-85105519D02*
X115796627Y-85112037D01*
X115909853Y-85146384D01*
X115966467Y-85163557D01*
X116105087Y-85237652D01*
X116122991Y-85247222D01*
X116158729Y-85276552D01*
X116260186Y-85359814D01*
X116343448Y-85461271D01*
X116372778Y-85497009D01*
X116372779Y-85497011D01*
X116456443Y-85653533D01*
X116456443Y-85653534D01*
X116507963Y-85823373D01*
X116525359Y-86000000D01*
X116507963Y-86176627D01*
X116473616Y-86289853D01*
X116456443Y-86346467D01*
X116382348Y-86485087D01*
X116372778Y-86502991D01*
X116343448Y-86538729D01*
X116260186Y-86640186D01*
X116158729Y-86723448D01*
X116122991Y-86752778D01*
X116122989Y-86752779D01*
X115966467Y-86836443D01*
X115909853Y-86853616D01*
X115796627Y-86887963D01*
X115730442Y-86894482D01*
X115664260Y-86901000D01*
X115575740Y-86901000D01*
X115509558Y-86894482D01*
X115443373Y-86887963D01*
X115330147Y-86853616D01*
X115273533Y-86836443D01*
X115117011Y-86752779D01*
X115117009Y-86752778D01*
X115081271Y-86723448D01*
X114979814Y-86640186D01*
X114896552Y-86538729D01*
X114867222Y-86502991D01*
X114857652Y-86485087D01*
X114783557Y-86346467D01*
X114766384Y-86289853D01*
X114732037Y-86176627D01*
X114714641Y-86000000D01*
X114732037Y-85823373D01*
X114783557Y-85653534D01*
X114783557Y-85653533D01*
X114867221Y-85497011D01*
X114867222Y-85497009D01*
X114896552Y-85461271D01*
X114979814Y-85359814D01*
X115081271Y-85276552D01*
X115117009Y-85247222D01*
X115134913Y-85237652D01*
X115273533Y-85163557D01*
X115330147Y-85146384D01*
X115443373Y-85112037D01*
X115509557Y-85105519D01*
X115575740Y-85099000D01*
X115664260Y-85099000D01*
X115730443Y-85105519D01*
X115730443Y-85105519D01*
G37*
G36*
X118270443Y-85105519D02*
X118336627Y-85112037D01*
X118449853Y-85146384D01*
X118506467Y-85163557D01*
X118645087Y-85237652D01*
X118662991Y-85247222D01*
X118698729Y-85276552D01*
X118800186Y-85359814D01*
X118883448Y-85461271D01*
X118912778Y-85497009D01*
X118912779Y-85497011D01*
X118996443Y-85653533D01*
X118996443Y-85653534D01*
X119047963Y-85823373D01*
X119065359Y-86000000D01*
X119047963Y-86176627D01*
X119013616Y-86289853D01*
X118996443Y-86346467D01*
X118922348Y-86485087D01*
X118912778Y-86502991D01*
X118883448Y-86538729D01*
X118800186Y-86640186D01*
X118698729Y-86723448D01*
X118662991Y-86752778D01*
X118662989Y-86752779D01*
X118506467Y-86836443D01*
X118449853Y-86853616D01*
X118336627Y-86887963D01*
X118270442Y-86894482D01*
X118204260Y-86901000D01*
X118115740Y-86901000D01*
X118049558Y-86894482D01*
X117983373Y-86887963D01*
X117870147Y-86853616D01*
X117813533Y-86836443D01*
X117657011Y-86752779D01*
X117657009Y-86752778D01*
X117621271Y-86723448D01*
X117519814Y-86640186D01*
X117436552Y-86538729D01*
X117407222Y-86502991D01*
X117397652Y-86485087D01*
X117323557Y-86346467D01*
X117306384Y-86289853D01*
X117272037Y-86176627D01*
X117254641Y-86000000D01*
X117272037Y-85823373D01*
X117323557Y-85653534D01*
X117323557Y-85653533D01*
X117407221Y-85497011D01*
X117407222Y-85497009D01*
X117436552Y-85461271D01*
X117519814Y-85359814D01*
X117621271Y-85276552D01*
X117657009Y-85247222D01*
X117674913Y-85237652D01*
X117813533Y-85163557D01*
X117870147Y-85146384D01*
X117983373Y-85112037D01*
X118049557Y-85105519D01*
X118115740Y-85099000D01*
X118204260Y-85099000D01*
X118270443Y-85105519D01*
X118270443Y-85105519D01*
G37*
G36*
X108901000Y-86901000D02*
X107099000Y-86901000D01*
X107099000Y-85099000D01*
X108901000Y-85099000D01*
X108901000Y-86901000D01*
X108901000Y-86901000D01*
G37*
M02*
