G04 #@! TF.GenerationSoftware,KiCad,Pcbnew,(5.0.2)-1*
G04 #@! TF.CreationDate,2020-01-28T10:02:17+01:00*
G04 #@! TF.ProjectId,Lab1,4c616231-2e6b-4696-9361-645f70636258,rev?*
G04 #@! TF.SameCoordinates,Original*
G04 #@! TF.FileFunction,Soldermask,Top*
G04 #@! TF.FilePolarity,Negative*
%FSLAX46Y46*%
G04 Gerber Fmt 4.6, Leading zero omitted, Abs format (unit mm)*
G04 Created by KiCad (PCBNEW (5.0.2)-1) date 2020-01-28 10:02:17*
%MOMM*%
%LPD*%
G01*
G04 APERTURE LIST*
%ADD10C,0.100000*%
G04 APERTURE END LIST*
D10*
G36*
X112522713Y-116858058D02*
X112522716Y-116858059D01*
X112640718Y-116893854D01*
X112749468Y-116951982D01*
X112844790Y-117030210D01*
X112844791Y-117030212D01*
X112844793Y-117030213D01*
X112923017Y-117125529D01*
X112981145Y-117234279D01*
X113016942Y-117352286D01*
X113026000Y-117444253D01*
X113026000Y-118155747D01*
X113016942Y-118247714D01*
X112981145Y-118365721D01*
X112923017Y-118474471D01*
X112844790Y-118569790D01*
X112749471Y-118648017D01*
X112749469Y-118648018D01*
X112640719Y-118706146D01*
X112544683Y-118735278D01*
X112522714Y-118741942D01*
X112400000Y-118754028D01*
X112277287Y-118741942D01*
X112255318Y-118735278D01*
X112159282Y-118706146D01*
X112050532Y-118648018D01*
X112050530Y-118648017D01*
X111955211Y-118569790D01*
X111876986Y-118474473D01*
X111876985Y-118474471D01*
X111876983Y-118474469D01*
X111818854Y-118365719D01*
X111783059Y-118247717D01*
X111783058Y-118247714D01*
X111774000Y-118155747D01*
X111774000Y-117444254D01*
X111783058Y-117352287D01*
X111818855Y-117234280D01*
X111825502Y-117221844D01*
X111876982Y-117125532D01*
X111955210Y-117030210D01*
X111955212Y-117030209D01*
X111955213Y-117030207D01*
X112050529Y-116951983D01*
X112159279Y-116893855D01*
X112159281Y-116893854D01*
X112277283Y-116858059D01*
X112277286Y-116858058D01*
X112400000Y-116845972D01*
X112522713Y-116858058D01*
X112522713Y-116858058D01*
G37*
G36*
X120272713Y-116858058D02*
X120272716Y-116858059D01*
X120390718Y-116893854D01*
X120499468Y-116951982D01*
X120594790Y-117030210D01*
X120594791Y-117030212D01*
X120594793Y-117030213D01*
X120673017Y-117125529D01*
X120731145Y-117234279D01*
X120766942Y-117352286D01*
X120776000Y-117444253D01*
X120776000Y-118155747D01*
X120766942Y-118247714D01*
X120731145Y-118365721D01*
X120673017Y-118474471D01*
X120594790Y-118569790D01*
X120499471Y-118648017D01*
X120499469Y-118648018D01*
X120390719Y-118706146D01*
X120294683Y-118735278D01*
X120272714Y-118741942D01*
X120150000Y-118754028D01*
X120027287Y-118741942D01*
X120005318Y-118735278D01*
X119909282Y-118706146D01*
X119800532Y-118648018D01*
X119800530Y-118648017D01*
X119705211Y-118569790D01*
X119626986Y-118474473D01*
X119626985Y-118474471D01*
X119626983Y-118474469D01*
X119568854Y-118365719D01*
X119533059Y-118247717D01*
X119533058Y-118247714D01*
X119524000Y-118155747D01*
X119524000Y-117444254D01*
X119533058Y-117352287D01*
X119568855Y-117234280D01*
X119575502Y-117221844D01*
X119626982Y-117125532D01*
X119705210Y-117030210D01*
X119705212Y-117030209D01*
X119705213Y-117030207D01*
X119800529Y-116951983D01*
X119909279Y-116893855D01*
X119909281Y-116893854D01*
X120027283Y-116858059D01*
X120027286Y-116858058D01*
X120150000Y-116845972D01*
X120272713Y-116858058D01*
X120272713Y-116858058D01*
G37*
G36*
X129078043Y-116453122D02*
X129112390Y-116463541D01*
X129144035Y-116480456D01*
X129171777Y-116503223D01*
X129194544Y-116530965D01*
X129211459Y-116562610D01*
X129221878Y-116596957D01*
X129226000Y-116638807D01*
X129226000Y-117861193D01*
X129221878Y-117903043D01*
X129211459Y-117937390D01*
X129194544Y-117969035D01*
X129171777Y-117996777D01*
X129144035Y-118019544D01*
X129112390Y-118036459D01*
X129078043Y-118046878D01*
X129036193Y-118051000D01*
X126963807Y-118051000D01*
X126921957Y-118046878D01*
X126887610Y-118036459D01*
X126855965Y-118019544D01*
X126828223Y-117996777D01*
X126805456Y-117969035D01*
X126788541Y-117937390D01*
X126778122Y-117903043D01*
X126774000Y-117861193D01*
X126774000Y-116638807D01*
X126778122Y-116596957D01*
X126788541Y-116562610D01*
X126805456Y-116530965D01*
X126828223Y-116503223D01*
X126855965Y-116480456D01*
X126887610Y-116463541D01*
X126921957Y-116453122D01*
X126963807Y-116449000D01*
X129036193Y-116449000D01*
X129078043Y-116453122D01*
X129078043Y-116453122D01*
G37*
G36*
X125588677Y-116603465D02*
X125626364Y-116614898D01*
X125661103Y-116633466D01*
X125691548Y-116658452D01*
X125716534Y-116688897D01*
X125735102Y-116723636D01*
X125746535Y-116761323D01*
X125751000Y-116806661D01*
X125751000Y-117643339D01*
X125746535Y-117688677D01*
X125735102Y-117726364D01*
X125716534Y-117761103D01*
X125691548Y-117791548D01*
X125661103Y-117816534D01*
X125626364Y-117835102D01*
X125588677Y-117846535D01*
X125543339Y-117851000D01*
X124456661Y-117851000D01*
X124411323Y-117846535D01*
X124373636Y-117835102D01*
X124338897Y-117816534D01*
X124308452Y-117791548D01*
X124283466Y-117761103D01*
X124264898Y-117726364D01*
X124253465Y-117688677D01*
X124249000Y-117643339D01*
X124249000Y-116806661D01*
X124253465Y-116761323D01*
X124264898Y-116723636D01*
X124283466Y-116688897D01*
X124308452Y-116658452D01*
X124338897Y-116633466D01*
X124373636Y-116614898D01*
X124411323Y-116603465D01*
X124456661Y-116599000D01*
X125543339Y-116599000D01*
X125588677Y-116603465D01*
X125588677Y-116603465D01*
G37*
G36*
X123588677Y-116603465D02*
X123626364Y-116614898D01*
X123661103Y-116633466D01*
X123691548Y-116658452D01*
X123716534Y-116688897D01*
X123735102Y-116723636D01*
X123746535Y-116761323D01*
X123751000Y-116806661D01*
X123751000Y-117643339D01*
X123746535Y-117688677D01*
X123735102Y-117726364D01*
X123716534Y-117761103D01*
X123691548Y-117791548D01*
X123661103Y-117816534D01*
X123626364Y-117835102D01*
X123588677Y-117846535D01*
X123543339Y-117851000D01*
X122456661Y-117851000D01*
X122411323Y-117846535D01*
X122373636Y-117835102D01*
X122338897Y-117816534D01*
X122308452Y-117791548D01*
X122283466Y-117761103D01*
X122264898Y-117726364D01*
X122253465Y-117688677D01*
X122249000Y-117643339D01*
X122249000Y-116806661D01*
X122253465Y-116761323D01*
X122264898Y-116723636D01*
X122283466Y-116688897D01*
X122308452Y-116658452D01*
X122338897Y-116633466D01*
X122373636Y-116614898D01*
X122411323Y-116603465D01*
X122456661Y-116599000D01*
X123543339Y-116599000D01*
X123588677Y-116603465D01*
X123588677Y-116603465D01*
G37*
G36*
X123588677Y-114553465D02*
X123626364Y-114564898D01*
X123661103Y-114583466D01*
X123691548Y-114608452D01*
X123716534Y-114638897D01*
X123735102Y-114673636D01*
X123746535Y-114711323D01*
X123751000Y-114756661D01*
X123751000Y-115593339D01*
X123746535Y-115638677D01*
X123735102Y-115676364D01*
X123716534Y-115711103D01*
X123691548Y-115741548D01*
X123661103Y-115766534D01*
X123626364Y-115785102D01*
X123588677Y-115796535D01*
X123543339Y-115801000D01*
X122456661Y-115801000D01*
X122411323Y-115796535D01*
X122373636Y-115785102D01*
X122338897Y-115766534D01*
X122308452Y-115741548D01*
X122283466Y-115711103D01*
X122264898Y-115676364D01*
X122253465Y-115638677D01*
X122249000Y-115593339D01*
X122249000Y-114756661D01*
X122253465Y-114711323D01*
X122264898Y-114673636D01*
X122283466Y-114638897D01*
X122308452Y-114608452D01*
X122338897Y-114583466D01*
X122373636Y-114564898D01*
X122411323Y-114553465D01*
X122456661Y-114549000D01*
X123543339Y-114549000D01*
X123588677Y-114553465D01*
X123588677Y-114553465D01*
G37*
G36*
X125588677Y-114553465D02*
X125626364Y-114564898D01*
X125661103Y-114583466D01*
X125691548Y-114608452D01*
X125716534Y-114638897D01*
X125735102Y-114673636D01*
X125746535Y-114711323D01*
X125751000Y-114756661D01*
X125751000Y-115593339D01*
X125746535Y-115638677D01*
X125735102Y-115676364D01*
X125716534Y-115711103D01*
X125691548Y-115741548D01*
X125661103Y-115766534D01*
X125626364Y-115785102D01*
X125588677Y-115796535D01*
X125543339Y-115801000D01*
X124456661Y-115801000D01*
X124411323Y-115796535D01*
X124373636Y-115785102D01*
X124338897Y-115766534D01*
X124308452Y-115741548D01*
X124283466Y-115711103D01*
X124264898Y-115676364D01*
X124253465Y-115638677D01*
X124249000Y-115593339D01*
X124249000Y-114756661D01*
X124253465Y-114711323D01*
X124264898Y-114673636D01*
X124283466Y-114638897D01*
X124308452Y-114608452D01*
X124338897Y-114583466D01*
X124373636Y-114564898D01*
X124411323Y-114553465D01*
X124456661Y-114549000D01*
X125543339Y-114549000D01*
X125588677Y-114553465D01*
X125588677Y-114553465D01*
G37*
G36*
X112702118Y-112960228D02*
X112702121Y-112960229D01*
X112848398Y-113004601D01*
X112848400Y-113004602D01*
X112983209Y-113076659D01*
X113101369Y-113173631D01*
X113198341Y-113291790D01*
X113270398Y-113426599D01*
X113314772Y-113572881D01*
X113326000Y-113686882D01*
X113326000Y-114313118D01*
X113314772Y-114427119D01*
X113314771Y-114427122D01*
X113271516Y-114569718D01*
X113268156Y-114580792D01*
X113264655Y-114589246D01*
X113259877Y-114613279D01*
X113259879Y-114637784D01*
X113264662Y-114661817D01*
X113274041Y-114684455D01*
X113287656Y-114704828D01*
X113304985Y-114722154D01*
X113325361Y-114735766D01*
X113348001Y-114745142D01*
X113372034Y-114749920D01*
X113396539Y-114749918D01*
X113420572Y-114745135D01*
X113443210Y-114735756D01*
X113463571Y-114722150D01*
X113492385Y-114698504D01*
X113523225Y-114673193D01*
X113548265Y-114659809D01*
X113601575Y-114631314D01*
X113611544Y-114628290D01*
X113686587Y-114605525D01*
X113752842Y-114599000D01*
X113797158Y-114599000D01*
X113863413Y-114605525D01*
X113938456Y-114628290D01*
X113948425Y-114631314D01*
X114026774Y-114673193D01*
X114095448Y-114729552D01*
X114151807Y-114798226D01*
X114193686Y-114876575D01*
X114195164Y-114881449D01*
X114219475Y-114961587D01*
X114228182Y-115050000D01*
X114219475Y-115138413D01*
X114196710Y-115213456D01*
X114193686Y-115223425D01*
X114151807Y-115301774D01*
X114095448Y-115370448D01*
X114026774Y-115426807D01*
X113948425Y-115468686D01*
X113938456Y-115471710D01*
X113863413Y-115494475D01*
X113797158Y-115501000D01*
X113752842Y-115501000D01*
X113686587Y-115494475D01*
X113611544Y-115471710D01*
X113601575Y-115468686D01*
X113523226Y-115426807D01*
X113454552Y-115370448D01*
X113398193Y-115301774D01*
X113356314Y-115223425D01*
X113353290Y-115213456D01*
X113330525Y-115138413D01*
X113321818Y-115050000D01*
X113330525Y-114961589D01*
X113342128Y-114923341D01*
X113347547Y-114905476D01*
X113352327Y-114881449D01*
X113352327Y-114856945D01*
X113347547Y-114832911D01*
X113338170Y-114810272D01*
X113324556Y-114789897D01*
X113307230Y-114772570D01*
X113286855Y-114758956D01*
X113264216Y-114749578D01*
X113240183Y-114744797D01*
X113215679Y-114744797D01*
X113191645Y-114749577D01*
X113169006Y-114758954D01*
X113148631Y-114772568D01*
X113131304Y-114789895D01*
X113101370Y-114826368D01*
X113101369Y-114826369D01*
X113075553Y-114847556D01*
X112983210Y-114923341D01*
X112983208Y-114923342D01*
X112848399Y-114995399D01*
X112729352Y-115031511D01*
X112702119Y-115039772D01*
X112550000Y-115054754D01*
X112397882Y-115039772D01*
X112370649Y-115031511D01*
X112251602Y-114995399D01*
X112116793Y-114923342D01*
X112116791Y-114923341D01*
X111998632Y-114826369D01*
X111901660Y-114708210D01*
X111829602Y-114573401D01*
X111828485Y-114569718D01*
X111785229Y-114427122D01*
X111785228Y-114427119D01*
X111774000Y-114313118D01*
X111774000Y-113686883D01*
X111785228Y-113572882D01*
X111829602Y-113426600D01*
X111901659Y-113291791D01*
X111998631Y-113173631D01*
X112116790Y-113076659D01*
X112251599Y-113004602D01*
X112251601Y-113004601D01*
X112397878Y-112960229D01*
X112397881Y-112960228D01*
X112550000Y-112945246D01*
X112702118Y-112960228D01*
X112702118Y-112960228D01*
G37*
G36*
X120152118Y-112960228D02*
X120152121Y-112960229D01*
X120298398Y-113004601D01*
X120298400Y-113004602D01*
X120433209Y-113076659D01*
X120551369Y-113173631D01*
X120648341Y-113291790D01*
X120720398Y-113426599D01*
X120764772Y-113572881D01*
X120776000Y-113686882D01*
X120776000Y-114313118D01*
X120764772Y-114427119D01*
X120764771Y-114427122D01*
X120721516Y-114569718D01*
X120720398Y-114573401D01*
X120648341Y-114708210D01*
X120551369Y-114826369D01*
X120433210Y-114923341D01*
X120433208Y-114923342D01*
X120298399Y-114995399D01*
X120179352Y-115031511D01*
X120152119Y-115039772D01*
X120000000Y-115054754D01*
X119847882Y-115039772D01*
X119820649Y-115031511D01*
X119701602Y-114995399D01*
X119566793Y-114923342D01*
X119566791Y-114923341D01*
X119448634Y-114826371D01*
X119448632Y-114826368D01*
X119418695Y-114789891D01*
X119401370Y-114772566D01*
X119380995Y-114758953D01*
X119358356Y-114749575D01*
X119334323Y-114744795D01*
X119309818Y-114744795D01*
X119285785Y-114749576D01*
X119263146Y-114758953D01*
X119242771Y-114772567D01*
X119225444Y-114789894D01*
X119211831Y-114810269D01*
X119202453Y-114832908D01*
X119197673Y-114856941D01*
X119197673Y-114881446D01*
X119202454Y-114905479D01*
X119219475Y-114961587D01*
X119228182Y-115050000D01*
X119219475Y-115138413D01*
X119196710Y-115213456D01*
X119193686Y-115223425D01*
X119151807Y-115301774D01*
X119095448Y-115370448D01*
X119026774Y-115426807D01*
X118948425Y-115468686D01*
X118938456Y-115471710D01*
X118863413Y-115494475D01*
X118797158Y-115501000D01*
X118752842Y-115501000D01*
X118686587Y-115494475D01*
X118611544Y-115471710D01*
X118601575Y-115468686D01*
X118523226Y-115426807D01*
X118454552Y-115370448D01*
X118398193Y-115301774D01*
X118356314Y-115223425D01*
X118353290Y-115213456D01*
X118330525Y-115138413D01*
X118321818Y-115050000D01*
X118330525Y-114961587D01*
X118354836Y-114881449D01*
X118356314Y-114876575D01*
X118398193Y-114798226D01*
X118454552Y-114729552D01*
X118523226Y-114673193D01*
X118601575Y-114631314D01*
X118611544Y-114628290D01*
X118686587Y-114605525D01*
X118752842Y-114599000D01*
X118797158Y-114599000D01*
X118863413Y-114605525D01*
X118938456Y-114628290D01*
X118948425Y-114631314D01*
X119001735Y-114659809D01*
X119026775Y-114673193D01*
X119057615Y-114698504D01*
X119086429Y-114722150D01*
X119106798Y-114735761D01*
X119129437Y-114745138D01*
X119153471Y-114749919D01*
X119177975Y-114749919D01*
X119202008Y-114745139D01*
X119224648Y-114735762D01*
X119245022Y-114722148D01*
X119262350Y-114704821D01*
X119275964Y-114684447D01*
X119285341Y-114661808D01*
X119290122Y-114637774D01*
X119290122Y-114613270D01*
X119285342Y-114589237D01*
X119281843Y-114580788D01*
X119279602Y-114573401D01*
X119279601Y-114573399D01*
X119235229Y-114427122D01*
X119235228Y-114427119D01*
X119224000Y-114313118D01*
X119224000Y-113686883D01*
X119235228Y-113572882D01*
X119279602Y-113426600D01*
X119351659Y-113291791D01*
X119448631Y-113173631D01*
X119566790Y-113076659D01*
X119701599Y-113004602D01*
X119701601Y-113004601D01*
X119847878Y-112960229D01*
X119847881Y-112960228D01*
X120000000Y-112945246D01*
X120152118Y-112960228D01*
X120152118Y-112960228D01*
G37*
G36*
X129078043Y-113203122D02*
X129112390Y-113213541D01*
X129144035Y-113230456D01*
X129171777Y-113253223D01*
X129194544Y-113280965D01*
X129211459Y-113312610D01*
X129221878Y-113346957D01*
X129226000Y-113388807D01*
X129226000Y-114611193D01*
X129221878Y-114653043D01*
X129211459Y-114687390D01*
X129194544Y-114719035D01*
X129171777Y-114746777D01*
X129144035Y-114769544D01*
X129112390Y-114786459D01*
X129078043Y-114796878D01*
X129036193Y-114801000D01*
X126963807Y-114801000D01*
X126921957Y-114796878D01*
X126887610Y-114786459D01*
X126855965Y-114769544D01*
X126828223Y-114746777D01*
X126805456Y-114719035D01*
X126788541Y-114687390D01*
X126778122Y-114653043D01*
X126774000Y-114611193D01*
X126774000Y-113388807D01*
X126778122Y-113346957D01*
X126788541Y-113312610D01*
X126805456Y-113280965D01*
X126828223Y-113253223D01*
X126855965Y-113230456D01*
X126887610Y-113213541D01*
X126921957Y-113203122D01*
X126963807Y-113199000D01*
X129036193Y-113199000D01*
X129078043Y-113203122D01*
X129078043Y-113203122D01*
G37*
G36*
X117851000Y-114651000D02*
X114699000Y-114651000D01*
X114699000Y-113249000D01*
X117851000Y-113249000D01*
X117851000Y-114651000D01*
X117851000Y-114651000D01*
G37*
G36*
X125801000Y-112351000D02*
X124199000Y-112351000D01*
X124199000Y-110249000D01*
X125801000Y-110249000D01*
X125801000Y-112351000D01*
X125801000Y-112351000D01*
G37*
G36*
X128101000Y-112351000D02*
X126499000Y-112351000D01*
X126499000Y-110249000D01*
X128101000Y-110249000D01*
X128101000Y-112351000D01*
X128101000Y-112351000D01*
G37*
G36*
X123501000Y-112351000D02*
X121899000Y-112351000D01*
X121899000Y-110249000D01*
X123501000Y-110249000D01*
X123501000Y-112351000D01*
X123501000Y-112351000D01*
G37*
G36*
X120588677Y-110403465D02*
X120626364Y-110414898D01*
X120661103Y-110433466D01*
X120691548Y-110458452D01*
X120716534Y-110488897D01*
X120735102Y-110523636D01*
X120746535Y-110561323D01*
X120751000Y-110606661D01*
X120751000Y-111443339D01*
X120746535Y-111488677D01*
X120735102Y-111526364D01*
X120716534Y-111561103D01*
X120691548Y-111591548D01*
X120661103Y-111616534D01*
X120626364Y-111635102D01*
X120588677Y-111646535D01*
X120543339Y-111651000D01*
X119456661Y-111651000D01*
X119411323Y-111646535D01*
X119373636Y-111635102D01*
X119338897Y-111616534D01*
X119308452Y-111591548D01*
X119283466Y-111561103D01*
X119264898Y-111526364D01*
X119253465Y-111488677D01*
X119249000Y-111443339D01*
X119249000Y-110606661D01*
X119253465Y-110561323D01*
X119264898Y-110523636D01*
X119283466Y-110488897D01*
X119308452Y-110458452D01*
X119338897Y-110433466D01*
X119373636Y-110414898D01*
X119411323Y-110403465D01*
X119456661Y-110399000D01*
X120543339Y-110399000D01*
X120588677Y-110403465D01*
X120588677Y-110403465D01*
G37*
G36*
X116588677Y-110403465D02*
X116626364Y-110414898D01*
X116661103Y-110433466D01*
X116691548Y-110458452D01*
X116716534Y-110488897D01*
X116735102Y-110523636D01*
X116746535Y-110561323D01*
X116751000Y-110606661D01*
X116751000Y-111443339D01*
X116746535Y-111488677D01*
X116735102Y-111526364D01*
X116716534Y-111561103D01*
X116691548Y-111591548D01*
X116661103Y-111616534D01*
X116626364Y-111635102D01*
X116588677Y-111646535D01*
X116543339Y-111651000D01*
X115456661Y-111651000D01*
X115411323Y-111646535D01*
X115373636Y-111635102D01*
X115338897Y-111616534D01*
X115308452Y-111591548D01*
X115283466Y-111561103D01*
X115264898Y-111526364D01*
X115253465Y-111488677D01*
X115249000Y-111443339D01*
X115249000Y-110606661D01*
X115253465Y-110561323D01*
X115264898Y-110523636D01*
X115283466Y-110488897D01*
X115308452Y-110458452D01*
X115338897Y-110433466D01*
X115373636Y-110414898D01*
X115411323Y-110403465D01*
X115456661Y-110399000D01*
X116543339Y-110399000D01*
X116588677Y-110403465D01*
X116588677Y-110403465D01*
G37*
G36*
X118588677Y-110403465D02*
X118626364Y-110414898D01*
X118661103Y-110433466D01*
X118691548Y-110458452D01*
X118716534Y-110488897D01*
X118735102Y-110523636D01*
X118746535Y-110561323D01*
X118751000Y-110606661D01*
X118751000Y-111443339D01*
X118746535Y-111488677D01*
X118735102Y-111526364D01*
X118716534Y-111561103D01*
X118691548Y-111591548D01*
X118661103Y-111616534D01*
X118626364Y-111635102D01*
X118588677Y-111646535D01*
X118543339Y-111651000D01*
X117456661Y-111651000D01*
X117411323Y-111646535D01*
X117373636Y-111635102D01*
X117338897Y-111616534D01*
X117308452Y-111591548D01*
X117283466Y-111561103D01*
X117264898Y-111526364D01*
X117253465Y-111488677D01*
X117249000Y-111443339D01*
X117249000Y-110606661D01*
X117253465Y-110561323D01*
X117264898Y-110523636D01*
X117283466Y-110488897D01*
X117308452Y-110458452D01*
X117338897Y-110433466D01*
X117373636Y-110414898D01*
X117411323Y-110403465D01*
X117456661Y-110399000D01*
X118543339Y-110399000D01*
X118588677Y-110403465D01*
X118588677Y-110403465D01*
G37*
G36*
X131588677Y-109403465D02*
X131626364Y-109414898D01*
X131661103Y-109433466D01*
X131691548Y-109458452D01*
X131716534Y-109488897D01*
X131735102Y-109523636D01*
X131746535Y-109561323D01*
X131751000Y-109606661D01*
X131751000Y-110443339D01*
X131746535Y-110488677D01*
X131735102Y-110526364D01*
X131716534Y-110561103D01*
X131691548Y-110591548D01*
X131661103Y-110616534D01*
X131626364Y-110635102D01*
X131588677Y-110646535D01*
X131543339Y-110651000D01*
X130456661Y-110651000D01*
X130411323Y-110646535D01*
X130373636Y-110635102D01*
X130338897Y-110616534D01*
X130308452Y-110591548D01*
X130283466Y-110561103D01*
X130264898Y-110526364D01*
X130253465Y-110488677D01*
X130249000Y-110443339D01*
X130249000Y-109606661D01*
X130253465Y-109561323D01*
X130264898Y-109523636D01*
X130283466Y-109488897D01*
X130308452Y-109458452D01*
X130338897Y-109433466D01*
X130373636Y-109414898D01*
X130411323Y-109403465D01*
X130456661Y-109399000D01*
X131543339Y-109399000D01*
X131588677Y-109403465D01*
X131588677Y-109403465D01*
G37*
G36*
X116588677Y-108353465D02*
X116626364Y-108364898D01*
X116661103Y-108383466D01*
X116691548Y-108408452D01*
X116716534Y-108438897D01*
X116735102Y-108473636D01*
X116746535Y-108511323D01*
X116751000Y-108556661D01*
X116751000Y-109393339D01*
X116746535Y-109438677D01*
X116735102Y-109476364D01*
X116716534Y-109511103D01*
X116691548Y-109541548D01*
X116661103Y-109566534D01*
X116626364Y-109585102D01*
X116588677Y-109596535D01*
X116543339Y-109601000D01*
X115456661Y-109601000D01*
X115411323Y-109596535D01*
X115373636Y-109585102D01*
X115338897Y-109566534D01*
X115308452Y-109541548D01*
X115283466Y-109511103D01*
X115264898Y-109476364D01*
X115253465Y-109438677D01*
X115249000Y-109393339D01*
X115249000Y-108556661D01*
X115253465Y-108511323D01*
X115264898Y-108473636D01*
X115283466Y-108438897D01*
X115308452Y-108408452D01*
X115338897Y-108383466D01*
X115373636Y-108364898D01*
X115411323Y-108353465D01*
X115456661Y-108349000D01*
X116543339Y-108349000D01*
X116588677Y-108353465D01*
X116588677Y-108353465D01*
G37*
G36*
X120588677Y-108353465D02*
X120626364Y-108364898D01*
X120661103Y-108383466D01*
X120691548Y-108408452D01*
X120716534Y-108438897D01*
X120735102Y-108473636D01*
X120746535Y-108511323D01*
X120751000Y-108556661D01*
X120751000Y-109393339D01*
X120746535Y-109438677D01*
X120735102Y-109476364D01*
X120716534Y-109511103D01*
X120691548Y-109541548D01*
X120661103Y-109566534D01*
X120626364Y-109585102D01*
X120588677Y-109596535D01*
X120543339Y-109601000D01*
X119456661Y-109601000D01*
X119411323Y-109596535D01*
X119373636Y-109585102D01*
X119338897Y-109566534D01*
X119308452Y-109541548D01*
X119283466Y-109511103D01*
X119264898Y-109476364D01*
X119253465Y-109438677D01*
X119249000Y-109393339D01*
X119249000Y-108556661D01*
X119253465Y-108511323D01*
X119264898Y-108473636D01*
X119283466Y-108438897D01*
X119308452Y-108408452D01*
X119338897Y-108383466D01*
X119373636Y-108364898D01*
X119411323Y-108353465D01*
X119456661Y-108349000D01*
X120543339Y-108349000D01*
X120588677Y-108353465D01*
X120588677Y-108353465D01*
G37*
G36*
X118588677Y-108353465D02*
X118626364Y-108364898D01*
X118661103Y-108383466D01*
X118691548Y-108408452D01*
X118716534Y-108438897D01*
X118735102Y-108473636D01*
X118746535Y-108511323D01*
X118751000Y-108556661D01*
X118751000Y-109393339D01*
X118746535Y-109438677D01*
X118735102Y-109476364D01*
X118716534Y-109511103D01*
X118691548Y-109541548D01*
X118661103Y-109566534D01*
X118626364Y-109585102D01*
X118588677Y-109596535D01*
X118543339Y-109601000D01*
X117456661Y-109601000D01*
X117411323Y-109596535D01*
X117373636Y-109585102D01*
X117338897Y-109566534D01*
X117308452Y-109541548D01*
X117283466Y-109511103D01*
X117264898Y-109476364D01*
X117253465Y-109438677D01*
X117249000Y-109393339D01*
X117249000Y-108556661D01*
X117253465Y-108511323D01*
X117264898Y-108473636D01*
X117283466Y-108438897D01*
X117308452Y-108408452D01*
X117338897Y-108383466D01*
X117373636Y-108364898D01*
X117411323Y-108353465D01*
X117456661Y-108349000D01*
X118543339Y-108349000D01*
X118588677Y-108353465D01*
X118588677Y-108353465D01*
G37*
G36*
X131588677Y-107353465D02*
X131626364Y-107364898D01*
X131661103Y-107383466D01*
X131691548Y-107408452D01*
X131716534Y-107438897D01*
X131735102Y-107473636D01*
X131746535Y-107511323D01*
X131751000Y-107556661D01*
X131751000Y-108393339D01*
X131746535Y-108438677D01*
X131735102Y-108476364D01*
X131716534Y-108511103D01*
X131691548Y-108541548D01*
X131661103Y-108566534D01*
X131626364Y-108585102D01*
X131588677Y-108596535D01*
X131543339Y-108601000D01*
X130456661Y-108601000D01*
X130411323Y-108596535D01*
X130373636Y-108585102D01*
X130338897Y-108566534D01*
X130308452Y-108541548D01*
X130283466Y-108511103D01*
X130264898Y-108476364D01*
X130253465Y-108438677D01*
X130249000Y-108393339D01*
X130249000Y-107556661D01*
X130253465Y-107511323D01*
X130264898Y-107473636D01*
X130283466Y-107438897D01*
X130308452Y-107408452D01*
X130338897Y-107383466D01*
X130373636Y-107364898D01*
X130411323Y-107353465D01*
X130456661Y-107349000D01*
X131543339Y-107349000D01*
X131588677Y-107353465D01*
X131588677Y-107353465D01*
G37*
G36*
X116701000Y-107651000D02*
X107299000Y-107651000D01*
X107299000Y-106549000D01*
X116701000Y-106549000D01*
X116701000Y-107651000D01*
X116701000Y-107651000D01*
G37*
G36*
X126951000Y-106051000D02*
X123049000Y-106051000D01*
X123049000Y-103949000D01*
X126951000Y-103949000D01*
X126951000Y-106051000D01*
X126951000Y-106051000D01*
G37*
G36*
X116701000Y-105651000D02*
X107299000Y-105651000D01*
X107299000Y-104749000D01*
X116701000Y-104749000D01*
X116701000Y-105651000D01*
X116701000Y-105651000D01*
G37*
G36*
X120101000Y-104701000D02*
X118999000Y-104701000D01*
X118999000Y-95299000D01*
X120101000Y-95299000D01*
X120101000Y-104701000D01*
X120101000Y-104701000D01*
G37*
G36*
X118101000Y-104701000D02*
X117199000Y-104701000D01*
X117199000Y-95299000D01*
X118101000Y-95299000D01*
X118101000Y-104701000D01*
X118101000Y-104701000D01*
G37*
G36*
X106801000Y-104701000D02*
X105899000Y-104701000D01*
X105899000Y-95299000D01*
X106801000Y-95299000D01*
X106801000Y-104701000D01*
X106801000Y-104701000D01*
G37*
G36*
X105011000Y-104701000D02*
X103909000Y-104701000D01*
X103909000Y-95299000D01*
X105011000Y-95299000D01*
X105011000Y-104701000D01*
X105011000Y-104701000D01*
G37*
G36*
X132388677Y-102328465D02*
X132426364Y-102339898D01*
X132461103Y-102358466D01*
X132491548Y-102383452D01*
X132516534Y-102413897D01*
X132535102Y-102448636D01*
X132546535Y-102486323D01*
X132551000Y-102531661D01*
X132551000Y-103368339D01*
X132546535Y-103413677D01*
X132535102Y-103451364D01*
X132516534Y-103486103D01*
X132491548Y-103516548D01*
X132461103Y-103541534D01*
X132426364Y-103560102D01*
X132388677Y-103571535D01*
X132343339Y-103576000D01*
X131256661Y-103576000D01*
X131211323Y-103571535D01*
X131173636Y-103560102D01*
X131138897Y-103541534D01*
X131108452Y-103516548D01*
X131083466Y-103486103D01*
X131064898Y-103451364D01*
X131053465Y-103413677D01*
X131049000Y-103368339D01*
X131049000Y-102531661D01*
X131053465Y-102486323D01*
X131064898Y-102448636D01*
X131083466Y-102413897D01*
X131108452Y-102383452D01*
X131138897Y-102358466D01*
X131173636Y-102339898D01*
X131211323Y-102328465D01*
X131256661Y-102324000D01*
X132343339Y-102324000D01*
X132388677Y-102328465D01*
X132388677Y-102328465D01*
G37*
G36*
X130078043Y-101828122D02*
X130112390Y-101838541D01*
X130144035Y-101855456D01*
X130171777Y-101878223D01*
X130194544Y-101905965D01*
X130211459Y-101937610D01*
X130221878Y-101971957D01*
X130226000Y-102013807D01*
X130226000Y-103236193D01*
X130221878Y-103278043D01*
X130211459Y-103312390D01*
X130194544Y-103344035D01*
X130171777Y-103371777D01*
X130144035Y-103394544D01*
X130112390Y-103411459D01*
X130078043Y-103421878D01*
X130036193Y-103426000D01*
X127963807Y-103426000D01*
X127921957Y-103421878D01*
X127887610Y-103411459D01*
X127855965Y-103394544D01*
X127828223Y-103371777D01*
X127805456Y-103344035D01*
X127788541Y-103312390D01*
X127778122Y-103278043D01*
X127774000Y-103236193D01*
X127774000Y-102013807D01*
X127778122Y-101971957D01*
X127788541Y-101937610D01*
X127805456Y-101905965D01*
X127828223Y-101878223D01*
X127855965Y-101855456D01*
X127887610Y-101838541D01*
X127921957Y-101828122D01*
X127963807Y-101824000D01*
X130036193Y-101824000D01*
X130078043Y-101828122D01*
X130078043Y-101828122D01*
G37*
G36*
X115351000Y-103351000D02*
X113649000Y-103351000D01*
X113649000Y-101649000D01*
X115351000Y-101649000D01*
X115351000Y-103351000D01*
X115351000Y-103351000D01*
G37*
G36*
X112851000Y-103351000D02*
X111149000Y-103351000D01*
X111149000Y-101649000D01*
X112851000Y-101649000D01*
X112851000Y-103351000D01*
X112851000Y-103351000D01*
G37*
G36*
X110351000Y-103351000D02*
X108649000Y-103351000D01*
X108649000Y-101649000D01*
X110351000Y-101649000D01*
X110351000Y-103351000D01*
X110351000Y-103351000D01*
G37*
G36*
X126588677Y-101428465D02*
X126626364Y-101439898D01*
X126661103Y-101458466D01*
X126691548Y-101483452D01*
X126716534Y-101513897D01*
X126735102Y-101548636D01*
X126746535Y-101586323D01*
X126751000Y-101631661D01*
X126751000Y-102468339D01*
X126746535Y-102513677D01*
X126735102Y-102551364D01*
X126716534Y-102586103D01*
X126691548Y-102616548D01*
X126661103Y-102641534D01*
X126626364Y-102660102D01*
X126588677Y-102671535D01*
X126543339Y-102676000D01*
X125456661Y-102676000D01*
X125411323Y-102671535D01*
X125373636Y-102660102D01*
X125338897Y-102641534D01*
X125308452Y-102616548D01*
X125283466Y-102586103D01*
X125264898Y-102551364D01*
X125253465Y-102513677D01*
X125249000Y-102468339D01*
X125249000Y-101631661D01*
X125253465Y-101586323D01*
X125264898Y-101548636D01*
X125283466Y-101513897D01*
X125308452Y-101483452D01*
X125338897Y-101458466D01*
X125373636Y-101439898D01*
X125411323Y-101428465D01*
X125456661Y-101424000D01*
X126543339Y-101424000D01*
X126588677Y-101428465D01*
X126588677Y-101428465D01*
G37*
G36*
X122588677Y-101403465D02*
X122626364Y-101414898D01*
X122661103Y-101433466D01*
X122691548Y-101458452D01*
X122716534Y-101488897D01*
X122735102Y-101523636D01*
X122746535Y-101561323D01*
X122751000Y-101606661D01*
X122751000Y-102443339D01*
X122746535Y-102488677D01*
X122735102Y-102526364D01*
X122716534Y-102561103D01*
X122691548Y-102591548D01*
X122661103Y-102616534D01*
X122626364Y-102635102D01*
X122588677Y-102646535D01*
X122543339Y-102651000D01*
X121456661Y-102651000D01*
X121411323Y-102646535D01*
X121373636Y-102635102D01*
X121338897Y-102616534D01*
X121308452Y-102591548D01*
X121283466Y-102561103D01*
X121264898Y-102526364D01*
X121253465Y-102488677D01*
X121249000Y-102443339D01*
X121249000Y-101606661D01*
X121253465Y-101561323D01*
X121264898Y-101523636D01*
X121283466Y-101488897D01*
X121308452Y-101458452D01*
X121338897Y-101433466D01*
X121373636Y-101414898D01*
X121411323Y-101403465D01*
X121456661Y-101399000D01*
X122543339Y-101399000D01*
X122588677Y-101403465D01*
X122588677Y-101403465D01*
G37*
G36*
X124588677Y-101403465D02*
X124626364Y-101414898D01*
X124661103Y-101433466D01*
X124691548Y-101458452D01*
X124716534Y-101488897D01*
X124735102Y-101523636D01*
X124746535Y-101561323D01*
X124751000Y-101606661D01*
X124751000Y-102443339D01*
X124746535Y-102488677D01*
X124735102Y-102526364D01*
X124716534Y-102561103D01*
X124691548Y-102591548D01*
X124661103Y-102616534D01*
X124626364Y-102635102D01*
X124588677Y-102646535D01*
X124543339Y-102651000D01*
X123456661Y-102651000D01*
X123411323Y-102646535D01*
X123373636Y-102635102D01*
X123338897Y-102616534D01*
X123308452Y-102591548D01*
X123283466Y-102561103D01*
X123264898Y-102526364D01*
X123253465Y-102488677D01*
X123249000Y-102443339D01*
X123249000Y-101606661D01*
X123253465Y-101561323D01*
X123264898Y-101523636D01*
X123283466Y-101488897D01*
X123308452Y-101458452D01*
X123338897Y-101433466D01*
X123373636Y-101414898D01*
X123411323Y-101403465D01*
X123456661Y-101399000D01*
X124543339Y-101399000D01*
X124588677Y-101403465D01*
X124588677Y-101403465D01*
G37*
G36*
X132388677Y-100278465D02*
X132426364Y-100289898D01*
X132461103Y-100308466D01*
X132491548Y-100333452D01*
X132516534Y-100363897D01*
X132535102Y-100398636D01*
X132546535Y-100436323D01*
X132551000Y-100481661D01*
X132551000Y-101318339D01*
X132546535Y-101363677D01*
X132535102Y-101401364D01*
X132516534Y-101436103D01*
X132491548Y-101466548D01*
X132461103Y-101491534D01*
X132426364Y-101510102D01*
X132388677Y-101521535D01*
X132343339Y-101526000D01*
X131256661Y-101526000D01*
X131211323Y-101521535D01*
X131173636Y-101510102D01*
X131138897Y-101491534D01*
X131108452Y-101466548D01*
X131083466Y-101436103D01*
X131064898Y-101401364D01*
X131053465Y-101363677D01*
X131049000Y-101318339D01*
X131049000Y-100481661D01*
X131053465Y-100436323D01*
X131064898Y-100398636D01*
X131083466Y-100363897D01*
X131108452Y-100333452D01*
X131138897Y-100308466D01*
X131173636Y-100289898D01*
X131211323Y-100278465D01*
X131256661Y-100274000D01*
X132343339Y-100274000D01*
X132388677Y-100278465D01*
X132388677Y-100278465D01*
G37*
G36*
X115351000Y-100851000D02*
X113649000Y-100851000D01*
X113649000Y-99149000D01*
X115351000Y-99149000D01*
X115351000Y-100851000D01*
X115351000Y-100851000D01*
G37*
G36*
X112851000Y-100851000D02*
X111149000Y-100851000D01*
X111149000Y-99149000D01*
X112851000Y-99149000D01*
X112851000Y-100851000D01*
X112851000Y-100851000D01*
G37*
G36*
X110351000Y-100851000D02*
X108649000Y-100851000D01*
X108649000Y-99149000D01*
X110351000Y-99149000D01*
X110351000Y-100851000D01*
X110351000Y-100851000D01*
G37*
G36*
X126588677Y-99378465D02*
X126626364Y-99389898D01*
X126661103Y-99408466D01*
X126691548Y-99433452D01*
X126716534Y-99463897D01*
X126735102Y-99498636D01*
X126746535Y-99536323D01*
X126751000Y-99581661D01*
X126751000Y-100418339D01*
X126746535Y-100463677D01*
X126735102Y-100501364D01*
X126716534Y-100536103D01*
X126691548Y-100566548D01*
X126661103Y-100591534D01*
X126626364Y-100610102D01*
X126588677Y-100621535D01*
X126543339Y-100626000D01*
X125456661Y-100626000D01*
X125411323Y-100621535D01*
X125373636Y-100610102D01*
X125338897Y-100591534D01*
X125308452Y-100566548D01*
X125283466Y-100536103D01*
X125264898Y-100501364D01*
X125253465Y-100463677D01*
X125249000Y-100418339D01*
X125249000Y-99581661D01*
X125253465Y-99536323D01*
X125264898Y-99498636D01*
X125283466Y-99463897D01*
X125308452Y-99433452D01*
X125338897Y-99408466D01*
X125373636Y-99389898D01*
X125411323Y-99378465D01*
X125456661Y-99374000D01*
X126543339Y-99374000D01*
X126588677Y-99378465D01*
X126588677Y-99378465D01*
G37*
G36*
X122588677Y-99353465D02*
X122626364Y-99364898D01*
X122661103Y-99383466D01*
X122691548Y-99408452D01*
X122716534Y-99438897D01*
X122735102Y-99473636D01*
X122746535Y-99511323D01*
X122751000Y-99556661D01*
X122751000Y-100393339D01*
X122746535Y-100438677D01*
X122735102Y-100476364D01*
X122716534Y-100511103D01*
X122691548Y-100541548D01*
X122661103Y-100566534D01*
X122626364Y-100585102D01*
X122588677Y-100596535D01*
X122543339Y-100601000D01*
X121456661Y-100601000D01*
X121411323Y-100596535D01*
X121373636Y-100585102D01*
X121338897Y-100566534D01*
X121308452Y-100541548D01*
X121283466Y-100511103D01*
X121264898Y-100476364D01*
X121253465Y-100438677D01*
X121249000Y-100393339D01*
X121249000Y-99556661D01*
X121253465Y-99511323D01*
X121264898Y-99473636D01*
X121283466Y-99438897D01*
X121308452Y-99408452D01*
X121338897Y-99383466D01*
X121373636Y-99364898D01*
X121411323Y-99353465D01*
X121456661Y-99349000D01*
X122543339Y-99349000D01*
X122588677Y-99353465D01*
X122588677Y-99353465D01*
G37*
G36*
X124588677Y-99353465D02*
X124626364Y-99364898D01*
X124661103Y-99383466D01*
X124691548Y-99408452D01*
X124716534Y-99438897D01*
X124735102Y-99473636D01*
X124746535Y-99511323D01*
X124751000Y-99556661D01*
X124751000Y-100393339D01*
X124746535Y-100438677D01*
X124735102Y-100476364D01*
X124716534Y-100511103D01*
X124691548Y-100541548D01*
X124661103Y-100566534D01*
X124626364Y-100585102D01*
X124588677Y-100596535D01*
X124543339Y-100601000D01*
X123456661Y-100601000D01*
X123411323Y-100596535D01*
X123373636Y-100585102D01*
X123338897Y-100566534D01*
X123308452Y-100541548D01*
X123283466Y-100511103D01*
X123264898Y-100476364D01*
X123253465Y-100438677D01*
X123249000Y-100393339D01*
X123249000Y-99556661D01*
X123253465Y-99511323D01*
X123264898Y-99473636D01*
X123283466Y-99438897D01*
X123308452Y-99408452D01*
X123338897Y-99383466D01*
X123373636Y-99364898D01*
X123411323Y-99353465D01*
X123456661Y-99349000D01*
X124543339Y-99349000D01*
X124588677Y-99353465D01*
X124588677Y-99353465D01*
G37*
G36*
X130078043Y-98578122D02*
X130112390Y-98588541D01*
X130144035Y-98605456D01*
X130171777Y-98628223D01*
X130194544Y-98655965D01*
X130211459Y-98687610D01*
X130221878Y-98721957D01*
X130226000Y-98763807D01*
X130226000Y-99986193D01*
X130221878Y-100028043D01*
X130211459Y-100062390D01*
X130194544Y-100094035D01*
X130171777Y-100121777D01*
X130144035Y-100144544D01*
X130112390Y-100161459D01*
X130078043Y-100171878D01*
X130036193Y-100176000D01*
X127963807Y-100176000D01*
X127921957Y-100171878D01*
X127887610Y-100161459D01*
X127855965Y-100144544D01*
X127828223Y-100121777D01*
X127805456Y-100094035D01*
X127788541Y-100062390D01*
X127778122Y-100028043D01*
X127774000Y-99986193D01*
X127774000Y-98763807D01*
X127778122Y-98721957D01*
X127788541Y-98687610D01*
X127805456Y-98655965D01*
X127828223Y-98628223D01*
X127855965Y-98605456D01*
X127887610Y-98588541D01*
X127921957Y-98578122D01*
X127963807Y-98574000D01*
X130036193Y-98574000D01*
X130078043Y-98578122D01*
X130078043Y-98578122D01*
G37*
G36*
X98588677Y-98403465D02*
X98626364Y-98414898D01*
X98661103Y-98433466D01*
X98691548Y-98458452D01*
X98716534Y-98488897D01*
X98735102Y-98523636D01*
X98746535Y-98561323D01*
X98751000Y-98606661D01*
X98751000Y-99443339D01*
X98746535Y-99488677D01*
X98735102Y-99526364D01*
X98716534Y-99561103D01*
X98691548Y-99591548D01*
X98661103Y-99616534D01*
X98626364Y-99635102D01*
X98588677Y-99646535D01*
X98543339Y-99651000D01*
X97456661Y-99651000D01*
X97411323Y-99646535D01*
X97373636Y-99635102D01*
X97338897Y-99616534D01*
X97308452Y-99591548D01*
X97283466Y-99561103D01*
X97264898Y-99526364D01*
X97253465Y-99488677D01*
X97249000Y-99443339D01*
X97249000Y-98606661D01*
X97253465Y-98561323D01*
X97264898Y-98523636D01*
X97283466Y-98488897D01*
X97308452Y-98458452D01*
X97338897Y-98433466D01*
X97373636Y-98414898D01*
X97411323Y-98403465D01*
X97456661Y-98399000D01*
X98543339Y-98399000D01*
X98588677Y-98403465D01*
X98588677Y-98403465D01*
G37*
G36*
X100588677Y-98403465D02*
X100626364Y-98414898D01*
X100661103Y-98433466D01*
X100691548Y-98458452D01*
X100716534Y-98488897D01*
X100735102Y-98523636D01*
X100746535Y-98561323D01*
X100751000Y-98606661D01*
X100751000Y-99443339D01*
X100746535Y-99488677D01*
X100735102Y-99526364D01*
X100716534Y-99561103D01*
X100691548Y-99591548D01*
X100661103Y-99616534D01*
X100626364Y-99635102D01*
X100588677Y-99646535D01*
X100543339Y-99651000D01*
X99456661Y-99651000D01*
X99411323Y-99646535D01*
X99373636Y-99635102D01*
X99338897Y-99616534D01*
X99308452Y-99591548D01*
X99283466Y-99561103D01*
X99264898Y-99526364D01*
X99253465Y-99488677D01*
X99249000Y-99443339D01*
X99249000Y-98606661D01*
X99253465Y-98561323D01*
X99264898Y-98523636D01*
X99283466Y-98488897D01*
X99308452Y-98458452D01*
X99338897Y-98433466D01*
X99373636Y-98414898D01*
X99411323Y-98403465D01*
X99456661Y-98399000D01*
X100543339Y-98399000D01*
X100588677Y-98403465D01*
X100588677Y-98403465D01*
G37*
G36*
X102588677Y-98403465D02*
X102626364Y-98414898D01*
X102661103Y-98433466D01*
X102691548Y-98458452D01*
X102716534Y-98488897D01*
X102735102Y-98523636D01*
X102746535Y-98561323D01*
X102751000Y-98606661D01*
X102751000Y-99443339D01*
X102746535Y-99488677D01*
X102735102Y-99526364D01*
X102716534Y-99561103D01*
X102691548Y-99591548D01*
X102661103Y-99616534D01*
X102626364Y-99635102D01*
X102588677Y-99646535D01*
X102543339Y-99651000D01*
X101456661Y-99651000D01*
X101411323Y-99646535D01*
X101373636Y-99635102D01*
X101338897Y-99616534D01*
X101308452Y-99591548D01*
X101283466Y-99561103D01*
X101264898Y-99526364D01*
X101253465Y-99488677D01*
X101249000Y-99443339D01*
X101249000Y-98606661D01*
X101253465Y-98561323D01*
X101264898Y-98523636D01*
X101283466Y-98488897D01*
X101308452Y-98458452D01*
X101338897Y-98433466D01*
X101373636Y-98414898D01*
X101411323Y-98403465D01*
X101456661Y-98399000D01*
X102543339Y-98399000D01*
X102588677Y-98403465D01*
X102588677Y-98403465D01*
G37*
G36*
X115351000Y-98351000D02*
X113649000Y-98351000D01*
X113649000Y-96649000D01*
X115351000Y-96649000D01*
X115351000Y-98351000D01*
X115351000Y-98351000D01*
G37*
G36*
X110351000Y-98351000D02*
X108649000Y-98351000D01*
X108649000Y-96649000D01*
X110351000Y-96649000D01*
X110351000Y-98351000D01*
X110351000Y-98351000D01*
G37*
G36*
X112851000Y-98351000D02*
X111149000Y-98351000D01*
X111149000Y-96649000D01*
X112851000Y-96649000D01*
X112851000Y-98351000D01*
X112851000Y-98351000D01*
G37*
G36*
X100588677Y-96353465D02*
X100626364Y-96364898D01*
X100661103Y-96383466D01*
X100691548Y-96408452D01*
X100716534Y-96438897D01*
X100735102Y-96473636D01*
X100746535Y-96511323D01*
X100751000Y-96556661D01*
X100751000Y-97393339D01*
X100746535Y-97438677D01*
X100735102Y-97476364D01*
X100716534Y-97511103D01*
X100691548Y-97541548D01*
X100661103Y-97566534D01*
X100626364Y-97585102D01*
X100588677Y-97596535D01*
X100543339Y-97601000D01*
X99456661Y-97601000D01*
X99411323Y-97596535D01*
X99373636Y-97585102D01*
X99338897Y-97566534D01*
X99308452Y-97541548D01*
X99283466Y-97511103D01*
X99264898Y-97476364D01*
X99253465Y-97438677D01*
X99249000Y-97393339D01*
X99249000Y-96556661D01*
X99253465Y-96511323D01*
X99264898Y-96473636D01*
X99283466Y-96438897D01*
X99308452Y-96408452D01*
X99338897Y-96383466D01*
X99373636Y-96364898D01*
X99411323Y-96353465D01*
X99456661Y-96349000D01*
X100543339Y-96349000D01*
X100588677Y-96353465D01*
X100588677Y-96353465D01*
G37*
G36*
X98588677Y-96353465D02*
X98626364Y-96364898D01*
X98661103Y-96383466D01*
X98691548Y-96408452D01*
X98716534Y-96438897D01*
X98735102Y-96473636D01*
X98746535Y-96511323D01*
X98751000Y-96556661D01*
X98751000Y-97393339D01*
X98746535Y-97438677D01*
X98735102Y-97476364D01*
X98716534Y-97511103D01*
X98691548Y-97541548D01*
X98661103Y-97566534D01*
X98626364Y-97585102D01*
X98588677Y-97596535D01*
X98543339Y-97601000D01*
X97456661Y-97601000D01*
X97411323Y-97596535D01*
X97373636Y-97585102D01*
X97338897Y-97566534D01*
X97308452Y-97541548D01*
X97283466Y-97511103D01*
X97264898Y-97476364D01*
X97253465Y-97438677D01*
X97249000Y-97393339D01*
X97249000Y-96556661D01*
X97253465Y-96511323D01*
X97264898Y-96473636D01*
X97283466Y-96438897D01*
X97308452Y-96408452D01*
X97338897Y-96383466D01*
X97373636Y-96364898D01*
X97411323Y-96353465D01*
X97456661Y-96349000D01*
X98543339Y-96349000D01*
X98588677Y-96353465D01*
X98588677Y-96353465D01*
G37*
G36*
X102588677Y-96353465D02*
X102626364Y-96364898D01*
X102661103Y-96383466D01*
X102691548Y-96408452D01*
X102716534Y-96438897D01*
X102735102Y-96473636D01*
X102746535Y-96511323D01*
X102751000Y-96556661D01*
X102751000Y-97393339D01*
X102746535Y-97438677D01*
X102735102Y-97476364D01*
X102716534Y-97511103D01*
X102691548Y-97541548D01*
X102661103Y-97566534D01*
X102626364Y-97585102D01*
X102588677Y-97596535D01*
X102543339Y-97601000D01*
X101456661Y-97601000D01*
X101411323Y-97596535D01*
X101373636Y-97585102D01*
X101338897Y-97566534D01*
X101308452Y-97541548D01*
X101283466Y-97511103D01*
X101264898Y-97476364D01*
X101253465Y-97438677D01*
X101249000Y-97393339D01*
X101249000Y-96556661D01*
X101253465Y-96511323D01*
X101264898Y-96473636D01*
X101283466Y-96438897D01*
X101308452Y-96408452D01*
X101338897Y-96383466D01*
X101373636Y-96364898D01*
X101411323Y-96353465D01*
X101456661Y-96349000D01*
X102543339Y-96349000D01*
X102588677Y-96353465D01*
X102588677Y-96353465D01*
G37*
G36*
X116701000Y-95251000D02*
X107299000Y-95251000D01*
X107299000Y-94349000D01*
X116701000Y-94349000D01*
X116701000Y-95251000D01*
X116701000Y-95251000D01*
G37*
G36*
X116701000Y-93451000D02*
X107299000Y-93451000D01*
X107299000Y-92349000D01*
X116701000Y-92349000D01*
X116701000Y-93451000D01*
X116701000Y-93451000D01*
G37*
G36*
X110488677Y-90253465D02*
X110526364Y-90264898D01*
X110561103Y-90283466D01*
X110591548Y-90308452D01*
X110616534Y-90338897D01*
X110635102Y-90373636D01*
X110646535Y-90411323D01*
X110651000Y-90456661D01*
X110651000Y-91543339D01*
X110646535Y-91588677D01*
X110635102Y-91626364D01*
X110616534Y-91661103D01*
X110591548Y-91691548D01*
X110561103Y-91716534D01*
X110526364Y-91735102D01*
X110488677Y-91746535D01*
X110443339Y-91751000D01*
X109606661Y-91751000D01*
X109561323Y-91746535D01*
X109523636Y-91735102D01*
X109488897Y-91716534D01*
X109458452Y-91691548D01*
X109433466Y-91661103D01*
X109414898Y-91626364D01*
X109403465Y-91588677D01*
X109399000Y-91543339D01*
X109399000Y-90456661D01*
X109403465Y-90411323D01*
X109414898Y-90373636D01*
X109433466Y-90338897D01*
X109458452Y-90308452D01*
X109488897Y-90283466D01*
X109523636Y-90264898D01*
X109561323Y-90253465D01*
X109606661Y-90249000D01*
X110443339Y-90249000D01*
X110488677Y-90253465D01*
X110488677Y-90253465D01*
G37*
G36*
X108438677Y-90253465D02*
X108476364Y-90264898D01*
X108511103Y-90283466D01*
X108541548Y-90308452D01*
X108566534Y-90338897D01*
X108585102Y-90373636D01*
X108596535Y-90411323D01*
X108601000Y-90456661D01*
X108601000Y-91543339D01*
X108596535Y-91588677D01*
X108585102Y-91626364D01*
X108566534Y-91661103D01*
X108541548Y-91691548D01*
X108511103Y-91716534D01*
X108476364Y-91735102D01*
X108438677Y-91746535D01*
X108393339Y-91751000D01*
X107556661Y-91751000D01*
X107511323Y-91746535D01*
X107473636Y-91735102D01*
X107438897Y-91716534D01*
X107408452Y-91691548D01*
X107383466Y-91661103D01*
X107364898Y-91626364D01*
X107353465Y-91588677D01*
X107349000Y-91543339D01*
X107349000Y-90456661D01*
X107353465Y-90411323D01*
X107364898Y-90373636D01*
X107383466Y-90338897D01*
X107408452Y-90308452D01*
X107438897Y-90283466D01*
X107473636Y-90264898D01*
X107511323Y-90253465D01*
X107556661Y-90249000D01*
X108393339Y-90249000D01*
X108438677Y-90253465D01*
X108438677Y-90253465D01*
G37*
G36*
X113588677Y-90428465D02*
X113626364Y-90439898D01*
X113661103Y-90458466D01*
X113691548Y-90483452D01*
X113716534Y-90513897D01*
X113735102Y-90548636D01*
X113746535Y-90586323D01*
X113751000Y-90631661D01*
X113751000Y-91468339D01*
X113746535Y-91513677D01*
X113735102Y-91551364D01*
X113716534Y-91586103D01*
X113691548Y-91616548D01*
X113661103Y-91641534D01*
X113626364Y-91660102D01*
X113588677Y-91671535D01*
X113543339Y-91676000D01*
X112456661Y-91676000D01*
X112411323Y-91671535D01*
X112373636Y-91660102D01*
X112338897Y-91641534D01*
X112308452Y-91616548D01*
X112283466Y-91586103D01*
X112264898Y-91551364D01*
X112253465Y-91513677D01*
X112249000Y-91468339D01*
X112249000Y-90631661D01*
X112253465Y-90586323D01*
X112264898Y-90548636D01*
X112283466Y-90513897D01*
X112308452Y-90483452D01*
X112338897Y-90458466D01*
X112373636Y-90439898D01*
X112411323Y-90428465D01*
X112456661Y-90424000D01*
X113543339Y-90424000D01*
X113588677Y-90428465D01*
X113588677Y-90428465D01*
G37*
G36*
X113588677Y-88378465D02*
X113626364Y-88389898D01*
X113661103Y-88408466D01*
X113691548Y-88433452D01*
X113716534Y-88463897D01*
X113735102Y-88498636D01*
X113746535Y-88536323D01*
X113751000Y-88581661D01*
X113751000Y-89418339D01*
X113746535Y-89463677D01*
X113735102Y-89501364D01*
X113716534Y-89536103D01*
X113691548Y-89566548D01*
X113661103Y-89591534D01*
X113626364Y-89610102D01*
X113588677Y-89621535D01*
X113543339Y-89626000D01*
X112456661Y-89626000D01*
X112411323Y-89621535D01*
X112373636Y-89610102D01*
X112338897Y-89591534D01*
X112308452Y-89566548D01*
X112283466Y-89536103D01*
X112264898Y-89501364D01*
X112253465Y-89463677D01*
X112249000Y-89418339D01*
X112249000Y-88581661D01*
X112253465Y-88536323D01*
X112264898Y-88498636D01*
X112283466Y-88463897D01*
X112308452Y-88433452D01*
X112338897Y-88408466D01*
X112373636Y-88389898D01*
X112411323Y-88378465D01*
X112456661Y-88374000D01*
X113543339Y-88374000D01*
X113588677Y-88378465D01*
X113588677Y-88378465D01*
G37*
G36*
X108901000Y-86901000D02*
X107099000Y-86901000D01*
X107099000Y-85099000D01*
X108901000Y-85099000D01*
X108901000Y-86901000D01*
X108901000Y-86901000D01*
G37*
G36*
X118270443Y-85105519D02*
X118336627Y-85112037D01*
X118449853Y-85146384D01*
X118506467Y-85163557D01*
X118645087Y-85237652D01*
X118662991Y-85247222D01*
X118698729Y-85276552D01*
X118800186Y-85359814D01*
X118883448Y-85461271D01*
X118912778Y-85497009D01*
X118912779Y-85497011D01*
X118996443Y-85653533D01*
X118996443Y-85653534D01*
X119047963Y-85823373D01*
X119065359Y-86000000D01*
X119047963Y-86176627D01*
X119013616Y-86289853D01*
X118996443Y-86346467D01*
X118922348Y-86485087D01*
X118912778Y-86502991D01*
X118883448Y-86538729D01*
X118800186Y-86640186D01*
X118698729Y-86723448D01*
X118662991Y-86752778D01*
X118662989Y-86752779D01*
X118506467Y-86836443D01*
X118449853Y-86853616D01*
X118336627Y-86887963D01*
X118270442Y-86894482D01*
X118204260Y-86901000D01*
X118115740Y-86901000D01*
X118049558Y-86894482D01*
X117983373Y-86887963D01*
X117870147Y-86853616D01*
X117813533Y-86836443D01*
X117657011Y-86752779D01*
X117657009Y-86752778D01*
X117621271Y-86723448D01*
X117519814Y-86640186D01*
X117436552Y-86538729D01*
X117407222Y-86502991D01*
X117397652Y-86485087D01*
X117323557Y-86346467D01*
X117306384Y-86289853D01*
X117272037Y-86176627D01*
X117254641Y-86000000D01*
X117272037Y-85823373D01*
X117323557Y-85653534D01*
X117323557Y-85653533D01*
X117407221Y-85497011D01*
X117407222Y-85497009D01*
X117436552Y-85461271D01*
X117519814Y-85359814D01*
X117621271Y-85276552D01*
X117657009Y-85247222D01*
X117674913Y-85237652D01*
X117813533Y-85163557D01*
X117870147Y-85146384D01*
X117983373Y-85112037D01*
X118049557Y-85105519D01*
X118115740Y-85099000D01*
X118204260Y-85099000D01*
X118270443Y-85105519D01*
X118270443Y-85105519D01*
G37*
G36*
X110650443Y-85105519D02*
X110716627Y-85112037D01*
X110829853Y-85146384D01*
X110886467Y-85163557D01*
X111025087Y-85237652D01*
X111042991Y-85247222D01*
X111078729Y-85276552D01*
X111180186Y-85359814D01*
X111263448Y-85461271D01*
X111292778Y-85497009D01*
X111292779Y-85497011D01*
X111376443Y-85653533D01*
X111376443Y-85653534D01*
X111427963Y-85823373D01*
X111445359Y-86000000D01*
X111427963Y-86176627D01*
X111393616Y-86289853D01*
X111376443Y-86346467D01*
X111302348Y-86485087D01*
X111292778Y-86502991D01*
X111263448Y-86538729D01*
X111180186Y-86640186D01*
X111078729Y-86723448D01*
X111042991Y-86752778D01*
X111042989Y-86752779D01*
X110886467Y-86836443D01*
X110829853Y-86853616D01*
X110716627Y-86887963D01*
X110650442Y-86894482D01*
X110584260Y-86901000D01*
X110495740Y-86901000D01*
X110429558Y-86894482D01*
X110363373Y-86887963D01*
X110250147Y-86853616D01*
X110193533Y-86836443D01*
X110037011Y-86752779D01*
X110037009Y-86752778D01*
X110001271Y-86723448D01*
X109899814Y-86640186D01*
X109816552Y-86538729D01*
X109787222Y-86502991D01*
X109777652Y-86485087D01*
X109703557Y-86346467D01*
X109686384Y-86289853D01*
X109652037Y-86176627D01*
X109634641Y-86000000D01*
X109652037Y-85823373D01*
X109703557Y-85653534D01*
X109703557Y-85653533D01*
X109787221Y-85497011D01*
X109787222Y-85497009D01*
X109816552Y-85461271D01*
X109899814Y-85359814D01*
X110001271Y-85276552D01*
X110037009Y-85247222D01*
X110054913Y-85237652D01*
X110193533Y-85163557D01*
X110250147Y-85146384D01*
X110363373Y-85112037D01*
X110429557Y-85105519D01*
X110495740Y-85099000D01*
X110584260Y-85099000D01*
X110650443Y-85105519D01*
X110650443Y-85105519D01*
G37*
G36*
X115730443Y-85105519D02*
X115796627Y-85112037D01*
X115909853Y-85146384D01*
X115966467Y-85163557D01*
X116105087Y-85237652D01*
X116122991Y-85247222D01*
X116158729Y-85276552D01*
X116260186Y-85359814D01*
X116343448Y-85461271D01*
X116372778Y-85497009D01*
X116372779Y-85497011D01*
X116456443Y-85653533D01*
X116456443Y-85653534D01*
X116507963Y-85823373D01*
X116525359Y-86000000D01*
X116507963Y-86176627D01*
X116473616Y-86289853D01*
X116456443Y-86346467D01*
X116382348Y-86485087D01*
X116372778Y-86502991D01*
X116343448Y-86538729D01*
X116260186Y-86640186D01*
X116158729Y-86723448D01*
X116122991Y-86752778D01*
X116122989Y-86752779D01*
X115966467Y-86836443D01*
X115909853Y-86853616D01*
X115796627Y-86887963D01*
X115730442Y-86894482D01*
X115664260Y-86901000D01*
X115575740Y-86901000D01*
X115509558Y-86894482D01*
X115443373Y-86887963D01*
X115330147Y-86853616D01*
X115273533Y-86836443D01*
X115117011Y-86752779D01*
X115117009Y-86752778D01*
X115081271Y-86723448D01*
X114979814Y-86640186D01*
X114896552Y-86538729D01*
X114867222Y-86502991D01*
X114857652Y-86485087D01*
X114783557Y-86346467D01*
X114766384Y-86289853D01*
X114732037Y-86176627D01*
X114714641Y-86000000D01*
X114732037Y-85823373D01*
X114783557Y-85653534D01*
X114783557Y-85653533D01*
X114867221Y-85497011D01*
X114867222Y-85497009D01*
X114896552Y-85461271D01*
X114979814Y-85359814D01*
X115081271Y-85276552D01*
X115117009Y-85247222D01*
X115134913Y-85237652D01*
X115273533Y-85163557D01*
X115330147Y-85146384D01*
X115443373Y-85112037D01*
X115509557Y-85105519D01*
X115575740Y-85099000D01*
X115664260Y-85099000D01*
X115730443Y-85105519D01*
X115730443Y-85105519D01*
G37*
G36*
X113190443Y-85105519D02*
X113256627Y-85112037D01*
X113369853Y-85146384D01*
X113426467Y-85163557D01*
X113565087Y-85237652D01*
X113582991Y-85247222D01*
X113618729Y-85276552D01*
X113720186Y-85359814D01*
X113803448Y-85461271D01*
X113832778Y-85497009D01*
X113832779Y-85497011D01*
X113916443Y-85653533D01*
X113916443Y-85653534D01*
X113967963Y-85823373D01*
X113985359Y-86000000D01*
X113967963Y-86176627D01*
X113933616Y-86289853D01*
X113916443Y-86346467D01*
X113842348Y-86485087D01*
X113832778Y-86502991D01*
X113803448Y-86538729D01*
X113720186Y-86640186D01*
X113618729Y-86723448D01*
X113582991Y-86752778D01*
X113582989Y-86752779D01*
X113426467Y-86836443D01*
X113369853Y-86853616D01*
X113256627Y-86887963D01*
X113190442Y-86894482D01*
X113124260Y-86901000D01*
X113035740Y-86901000D01*
X112969558Y-86894482D01*
X112903373Y-86887963D01*
X112790147Y-86853616D01*
X112733533Y-86836443D01*
X112577011Y-86752779D01*
X112577009Y-86752778D01*
X112541271Y-86723448D01*
X112439814Y-86640186D01*
X112356552Y-86538729D01*
X112327222Y-86502991D01*
X112317652Y-86485087D01*
X112243557Y-86346467D01*
X112226384Y-86289853D01*
X112192037Y-86176627D01*
X112174641Y-86000000D01*
X112192037Y-85823373D01*
X112243557Y-85653534D01*
X112243557Y-85653533D01*
X112327221Y-85497011D01*
X112327222Y-85497009D01*
X112356552Y-85461271D01*
X112439814Y-85359814D01*
X112541271Y-85276552D01*
X112577009Y-85247222D01*
X112594913Y-85237652D01*
X112733533Y-85163557D01*
X112790147Y-85146384D01*
X112903373Y-85112037D01*
X112969557Y-85105519D01*
X113035740Y-85099000D01*
X113124260Y-85099000D01*
X113190443Y-85105519D01*
X113190443Y-85105519D01*
G37*
M02*
