G04 #@! TF.GenerationSoftware,KiCad,Pcbnew,(5.0.2)-1*
G04 #@! TF.CreationDate,2020-01-28T10:02:17+01:00*
G04 #@! TF.ProjectId,Lab1,4c616231-2e6b-4696-9361-645f70636258,rev?*
G04 #@! TF.SameCoordinates,Original*
G04 #@! TF.FileFunction,Copper,L1,Top*
G04 #@! TF.FilePolarity,Positive*
%FSLAX46Y46*%
G04 Gerber Fmt 4.6, Leading zero omitted, Abs format (unit mm)*
G04 Created by KiCad (PCBNEW (5.0.2)-1) date 2020-01-28 10:02:17*
%MOMM*%
%LPD*%
G01*
G04 APERTURE LIST*
G04 #@! TA.AperFunction,Conductor*
%ADD10C,0.100000*%
G04 #@! TD*
G04 #@! TA.AperFunction,SMDPad,CuDef*
%ADD11C,1.150000*%
G04 #@! TD*
G04 #@! TA.AperFunction,SMDPad,CuDef*
%ADD12C,1.500000*%
G04 #@! TD*
G04 #@! TA.AperFunction,SMDPad,CuDef*
%ADD13R,0.450000X1.300000*%
G04 #@! TD*
G04 #@! TA.AperFunction,ComponentPad*
%ADD14O,1.450000X2.000000*%
G04 #@! TD*
G04 #@! TA.AperFunction,ComponentPad*
%ADD15O,1.150000X1.800000*%
G04 #@! TD*
G04 #@! TA.AperFunction,ComponentPad*
%ADD16O,1.700000X1.700000*%
G04 #@! TD*
G04 #@! TA.AperFunction,ComponentPad*
%ADD17R,1.700000X1.700000*%
G04 #@! TD*
G04 #@! TA.AperFunction,SMDPad,CuDef*
%ADD18R,3.800000X2.000000*%
G04 #@! TD*
G04 #@! TA.AperFunction,SMDPad,CuDef*
%ADD19R,1.500000X2.000000*%
G04 #@! TD*
G04 #@! TA.AperFunction,SMDPad,CuDef*
%ADD20R,0.500000X1.000000*%
G04 #@! TD*
G04 #@! TA.AperFunction,SMDPad,CuDef*
%ADD21R,1.000000X0.500000*%
G04 #@! TD*
G04 #@! TA.AperFunction,Conductor*
%ADD22R,1.000000X0.500000*%
G04 #@! TD*
G04 #@! TA.AperFunction,Conductor*
%ADD23R,0.500000X1.000000*%
G04 #@! TD*
G04 #@! TA.AperFunction,SMDPad,CuDef*
%ADD24R,0.500000X0.800000*%
G04 #@! TD*
G04 #@! TA.AperFunction,SMDPad,CuDef*
%ADD25R,0.800000X0.500000*%
G04 #@! TD*
G04 #@! TA.AperFunction,SMDPad,CuDef*
%ADD26R,1.600000X1.600000*%
G04 #@! TD*
G04 #@! TA.AperFunction,ViaPad*
%ADD27C,0.800000*%
G04 #@! TD*
G04 #@! TA.AperFunction,Conductor*
%ADD28C,0.250000*%
G04 #@! TD*
G04 #@! TA.AperFunction,Conductor*
%ADD29C,0.150000*%
G04 #@! TD*
G04 #@! TA.AperFunction,Conductor*
%ADD30C,0.254000*%
G04 #@! TD*
G04 APERTURE END LIST*
D10*
G04 #@! TO.N,GND*
G04 #@! TO.C,C1*
G36*
X125474505Y-116651204D02*
X125498773Y-116654804D01*
X125522572Y-116660765D01*
X125545671Y-116669030D01*
X125567850Y-116679520D01*
X125588893Y-116692132D01*
X125608599Y-116706747D01*
X125626777Y-116723223D01*
X125643253Y-116741401D01*
X125657868Y-116761107D01*
X125670480Y-116782150D01*
X125680970Y-116804329D01*
X125689235Y-116827428D01*
X125695196Y-116851227D01*
X125698796Y-116875495D01*
X125700000Y-116899999D01*
X125700000Y-117550001D01*
X125698796Y-117574505D01*
X125695196Y-117598773D01*
X125689235Y-117622572D01*
X125680970Y-117645671D01*
X125670480Y-117667850D01*
X125657868Y-117688893D01*
X125643253Y-117708599D01*
X125626777Y-117726777D01*
X125608599Y-117743253D01*
X125588893Y-117757868D01*
X125567850Y-117770480D01*
X125545671Y-117780970D01*
X125522572Y-117789235D01*
X125498773Y-117795196D01*
X125474505Y-117798796D01*
X125450001Y-117800000D01*
X124549999Y-117800000D01*
X124525495Y-117798796D01*
X124501227Y-117795196D01*
X124477428Y-117789235D01*
X124454329Y-117780970D01*
X124432150Y-117770480D01*
X124411107Y-117757868D01*
X124391401Y-117743253D01*
X124373223Y-117726777D01*
X124356747Y-117708599D01*
X124342132Y-117688893D01*
X124329520Y-117667850D01*
X124319030Y-117645671D01*
X124310765Y-117622572D01*
X124304804Y-117598773D01*
X124301204Y-117574505D01*
X124300000Y-117550001D01*
X124300000Y-116899999D01*
X124301204Y-116875495D01*
X124304804Y-116851227D01*
X124310765Y-116827428D01*
X124319030Y-116804329D01*
X124329520Y-116782150D01*
X124342132Y-116761107D01*
X124356747Y-116741401D01*
X124373223Y-116723223D01*
X124391401Y-116706747D01*
X124411107Y-116692132D01*
X124432150Y-116679520D01*
X124454329Y-116669030D01*
X124477428Y-116660765D01*
X124501227Y-116654804D01*
X124525495Y-116651204D01*
X124549999Y-116650000D01*
X125450001Y-116650000D01*
X125474505Y-116651204D01*
X125474505Y-116651204D01*
G37*
D11*
G04 #@! TD*
G04 #@! TO.P,C1,1*
G04 #@! TO.N,GND*
X125000000Y-117225000D03*
D10*
G04 #@! TO.N,+5V*
G04 #@! TO.C,C1*
G36*
X125474505Y-114601204D02*
X125498773Y-114604804D01*
X125522572Y-114610765D01*
X125545671Y-114619030D01*
X125567850Y-114629520D01*
X125588893Y-114642132D01*
X125608599Y-114656747D01*
X125626777Y-114673223D01*
X125643253Y-114691401D01*
X125657868Y-114711107D01*
X125670480Y-114732150D01*
X125680970Y-114754329D01*
X125689235Y-114777428D01*
X125695196Y-114801227D01*
X125698796Y-114825495D01*
X125700000Y-114849999D01*
X125700000Y-115500001D01*
X125698796Y-115524505D01*
X125695196Y-115548773D01*
X125689235Y-115572572D01*
X125680970Y-115595671D01*
X125670480Y-115617850D01*
X125657868Y-115638893D01*
X125643253Y-115658599D01*
X125626777Y-115676777D01*
X125608599Y-115693253D01*
X125588893Y-115707868D01*
X125567850Y-115720480D01*
X125545671Y-115730970D01*
X125522572Y-115739235D01*
X125498773Y-115745196D01*
X125474505Y-115748796D01*
X125450001Y-115750000D01*
X124549999Y-115750000D01*
X124525495Y-115748796D01*
X124501227Y-115745196D01*
X124477428Y-115739235D01*
X124454329Y-115730970D01*
X124432150Y-115720480D01*
X124411107Y-115707868D01*
X124391401Y-115693253D01*
X124373223Y-115676777D01*
X124356747Y-115658599D01*
X124342132Y-115638893D01*
X124329520Y-115617850D01*
X124319030Y-115595671D01*
X124310765Y-115572572D01*
X124304804Y-115548773D01*
X124301204Y-115524505D01*
X124300000Y-115500001D01*
X124300000Y-114849999D01*
X124301204Y-114825495D01*
X124304804Y-114801227D01*
X124310765Y-114777428D01*
X124319030Y-114754329D01*
X124329520Y-114732150D01*
X124342132Y-114711107D01*
X124356747Y-114691401D01*
X124373223Y-114673223D01*
X124391401Y-114656747D01*
X124411107Y-114642132D01*
X124432150Y-114629520D01*
X124454329Y-114619030D01*
X124477428Y-114610765D01*
X124501227Y-114604804D01*
X124525495Y-114601204D01*
X124549999Y-114600000D01*
X125450001Y-114600000D01*
X125474505Y-114601204D01*
X125474505Y-114601204D01*
G37*
D11*
G04 #@! TD*
G04 #@! TO.P,C1,2*
G04 #@! TO.N,+5V*
X125000000Y-115175000D03*
D10*
G04 #@! TO.N,GND*
G04 #@! TO.C,C2*
G36*
X128949504Y-116501204D02*
X128973773Y-116504804D01*
X128997571Y-116510765D01*
X129020671Y-116519030D01*
X129042849Y-116529520D01*
X129063893Y-116542133D01*
X129083598Y-116556747D01*
X129101777Y-116573223D01*
X129118253Y-116591402D01*
X129132867Y-116611107D01*
X129145480Y-116632151D01*
X129155970Y-116654329D01*
X129164235Y-116677429D01*
X129170196Y-116701227D01*
X129173796Y-116725496D01*
X129175000Y-116750000D01*
X129175000Y-117750000D01*
X129173796Y-117774504D01*
X129170196Y-117798773D01*
X129164235Y-117822571D01*
X129155970Y-117845671D01*
X129145480Y-117867849D01*
X129132867Y-117888893D01*
X129118253Y-117908598D01*
X129101777Y-117926777D01*
X129083598Y-117943253D01*
X129063893Y-117957867D01*
X129042849Y-117970480D01*
X129020671Y-117980970D01*
X128997571Y-117989235D01*
X128973773Y-117995196D01*
X128949504Y-117998796D01*
X128925000Y-118000000D01*
X127075000Y-118000000D01*
X127050496Y-117998796D01*
X127026227Y-117995196D01*
X127002429Y-117989235D01*
X126979329Y-117980970D01*
X126957151Y-117970480D01*
X126936107Y-117957867D01*
X126916402Y-117943253D01*
X126898223Y-117926777D01*
X126881747Y-117908598D01*
X126867133Y-117888893D01*
X126854520Y-117867849D01*
X126844030Y-117845671D01*
X126835765Y-117822571D01*
X126829804Y-117798773D01*
X126826204Y-117774504D01*
X126825000Y-117750000D01*
X126825000Y-116750000D01*
X126826204Y-116725496D01*
X126829804Y-116701227D01*
X126835765Y-116677429D01*
X126844030Y-116654329D01*
X126854520Y-116632151D01*
X126867133Y-116611107D01*
X126881747Y-116591402D01*
X126898223Y-116573223D01*
X126916402Y-116556747D01*
X126936107Y-116542133D01*
X126957151Y-116529520D01*
X126979329Y-116519030D01*
X127002429Y-116510765D01*
X127026227Y-116504804D01*
X127050496Y-116501204D01*
X127075000Y-116500000D01*
X128925000Y-116500000D01*
X128949504Y-116501204D01*
X128949504Y-116501204D01*
G37*
D12*
G04 #@! TD*
G04 #@! TO.P,C2,2*
G04 #@! TO.N,GND*
X128000000Y-117250000D03*
D10*
G04 #@! TO.N,+5V*
G04 #@! TO.C,C2*
G36*
X128949504Y-113251204D02*
X128973773Y-113254804D01*
X128997571Y-113260765D01*
X129020671Y-113269030D01*
X129042849Y-113279520D01*
X129063893Y-113292133D01*
X129083598Y-113306747D01*
X129101777Y-113323223D01*
X129118253Y-113341402D01*
X129132867Y-113361107D01*
X129145480Y-113382151D01*
X129155970Y-113404329D01*
X129164235Y-113427429D01*
X129170196Y-113451227D01*
X129173796Y-113475496D01*
X129175000Y-113500000D01*
X129175000Y-114500000D01*
X129173796Y-114524504D01*
X129170196Y-114548773D01*
X129164235Y-114572571D01*
X129155970Y-114595671D01*
X129145480Y-114617849D01*
X129132867Y-114638893D01*
X129118253Y-114658598D01*
X129101777Y-114676777D01*
X129083598Y-114693253D01*
X129063893Y-114707867D01*
X129042849Y-114720480D01*
X129020671Y-114730970D01*
X128997571Y-114739235D01*
X128973773Y-114745196D01*
X128949504Y-114748796D01*
X128925000Y-114750000D01*
X127075000Y-114750000D01*
X127050496Y-114748796D01*
X127026227Y-114745196D01*
X127002429Y-114739235D01*
X126979329Y-114730970D01*
X126957151Y-114720480D01*
X126936107Y-114707867D01*
X126916402Y-114693253D01*
X126898223Y-114676777D01*
X126881747Y-114658598D01*
X126867133Y-114638893D01*
X126854520Y-114617849D01*
X126844030Y-114595671D01*
X126835765Y-114572571D01*
X126829804Y-114548773D01*
X126826204Y-114524504D01*
X126825000Y-114500000D01*
X126825000Y-113500000D01*
X126826204Y-113475496D01*
X126829804Y-113451227D01*
X126835765Y-113427429D01*
X126844030Y-113404329D01*
X126854520Y-113382151D01*
X126867133Y-113361107D01*
X126881747Y-113341402D01*
X126898223Y-113323223D01*
X126916402Y-113306747D01*
X126936107Y-113292133D01*
X126957151Y-113279520D01*
X126979329Y-113269030D01*
X127002429Y-113260765D01*
X127026227Y-113254804D01*
X127050496Y-113251204D01*
X127075000Y-113250000D01*
X128925000Y-113250000D01*
X128949504Y-113251204D01*
X128949504Y-113251204D01*
G37*
D12*
G04 #@! TD*
G04 #@! TO.P,C2,1*
G04 #@! TO.N,+5V*
X128000000Y-114000000D03*
D10*
G04 #@! TO.N,+5V*
G04 #@! TO.C,C3*
G36*
X123474505Y-114601204D02*
X123498773Y-114604804D01*
X123522572Y-114610765D01*
X123545671Y-114619030D01*
X123567850Y-114629520D01*
X123588893Y-114642132D01*
X123608599Y-114656747D01*
X123626777Y-114673223D01*
X123643253Y-114691401D01*
X123657868Y-114711107D01*
X123670480Y-114732150D01*
X123680970Y-114754329D01*
X123689235Y-114777428D01*
X123695196Y-114801227D01*
X123698796Y-114825495D01*
X123700000Y-114849999D01*
X123700000Y-115500001D01*
X123698796Y-115524505D01*
X123695196Y-115548773D01*
X123689235Y-115572572D01*
X123680970Y-115595671D01*
X123670480Y-115617850D01*
X123657868Y-115638893D01*
X123643253Y-115658599D01*
X123626777Y-115676777D01*
X123608599Y-115693253D01*
X123588893Y-115707868D01*
X123567850Y-115720480D01*
X123545671Y-115730970D01*
X123522572Y-115739235D01*
X123498773Y-115745196D01*
X123474505Y-115748796D01*
X123450001Y-115750000D01*
X122549999Y-115750000D01*
X122525495Y-115748796D01*
X122501227Y-115745196D01*
X122477428Y-115739235D01*
X122454329Y-115730970D01*
X122432150Y-115720480D01*
X122411107Y-115707868D01*
X122391401Y-115693253D01*
X122373223Y-115676777D01*
X122356747Y-115658599D01*
X122342132Y-115638893D01*
X122329520Y-115617850D01*
X122319030Y-115595671D01*
X122310765Y-115572572D01*
X122304804Y-115548773D01*
X122301204Y-115524505D01*
X122300000Y-115500001D01*
X122300000Y-114849999D01*
X122301204Y-114825495D01*
X122304804Y-114801227D01*
X122310765Y-114777428D01*
X122319030Y-114754329D01*
X122329520Y-114732150D01*
X122342132Y-114711107D01*
X122356747Y-114691401D01*
X122373223Y-114673223D01*
X122391401Y-114656747D01*
X122411107Y-114642132D01*
X122432150Y-114629520D01*
X122454329Y-114619030D01*
X122477428Y-114610765D01*
X122501227Y-114604804D01*
X122525495Y-114601204D01*
X122549999Y-114600000D01*
X123450001Y-114600000D01*
X123474505Y-114601204D01*
X123474505Y-114601204D01*
G37*
D11*
G04 #@! TD*
G04 #@! TO.P,C3,2*
G04 #@! TO.N,+5V*
X123000000Y-115175000D03*
D10*
G04 #@! TO.N,GND*
G04 #@! TO.C,C3*
G36*
X123474505Y-116651204D02*
X123498773Y-116654804D01*
X123522572Y-116660765D01*
X123545671Y-116669030D01*
X123567850Y-116679520D01*
X123588893Y-116692132D01*
X123608599Y-116706747D01*
X123626777Y-116723223D01*
X123643253Y-116741401D01*
X123657868Y-116761107D01*
X123670480Y-116782150D01*
X123680970Y-116804329D01*
X123689235Y-116827428D01*
X123695196Y-116851227D01*
X123698796Y-116875495D01*
X123700000Y-116899999D01*
X123700000Y-117550001D01*
X123698796Y-117574505D01*
X123695196Y-117598773D01*
X123689235Y-117622572D01*
X123680970Y-117645671D01*
X123670480Y-117667850D01*
X123657868Y-117688893D01*
X123643253Y-117708599D01*
X123626777Y-117726777D01*
X123608599Y-117743253D01*
X123588893Y-117757868D01*
X123567850Y-117770480D01*
X123545671Y-117780970D01*
X123522572Y-117789235D01*
X123498773Y-117795196D01*
X123474505Y-117798796D01*
X123450001Y-117800000D01*
X122549999Y-117800000D01*
X122525495Y-117798796D01*
X122501227Y-117795196D01*
X122477428Y-117789235D01*
X122454329Y-117780970D01*
X122432150Y-117770480D01*
X122411107Y-117757868D01*
X122391401Y-117743253D01*
X122373223Y-117726777D01*
X122356747Y-117708599D01*
X122342132Y-117688893D01*
X122329520Y-117667850D01*
X122319030Y-117645671D01*
X122310765Y-117622572D01*
X122304804Y-117598773D01*
X122301204Y-117574505D01*
X122300000Y-117550001D01*
X122300000Y-116899999D01*
X122301204Y-116875495D01*
X122304804Y-116851227D01*
X122310765Y-116827428D01*
X122319030Y-116804329D01*
X122329520Y-116782150D01*
X122342132Y-116761107D01*
X122356747Y-116741401D01*
X122373223Y-116723223D01*
X122391401Y-116706747D01*
X122411107Y-116692132D01*
X122432150Y-116679520D01*
X122454329Y-116669030D01*
X122477428Y-116660765D01*
X122501227Y-116654804D01*
X122525495Y-116651204D01*
X122549999Y-116650000D01*
X123450001Y-116650000D01*
X123474505Y-116651204D01*
X123474505Y-116651204D01*
G37*
D11*
G04 #@! TD*
G04 #@! TO.P,C3,1*
G04 #@! TO.N,GND*
X123000000Y-117225000D03*
D10*
G04 #@! TO.N,GND*
G04 #@! TO.C,C4*
G36*
X132274505Y-100326204D02*
X132298773Y-100329804D01*
X132322572Y-100335765D01*
X132345671Y-100344030D01*
X132367850Y-100354520D01*
X132388893Y-100367132D01*
X132408599Y-100381747D01*
X132426777Y-100398223D01*
X132443253Y-100416401D01*
X132457868Y-100436107D01*
X132470480Y-100457150D01*
X132480970Y-100479329D01*
X132489235Y-100502428D01*
X132495196Y-100526227D01*
X132498796Y-100550495D01*
X132500000Y-100574999D01*
X132500000Y-101225001D01*
X132498796Y-101249505D01*
X132495196Y-101273773D01*
X132489235Y-101297572D01*
X132480970Y-101320671D01*
X132470480Y-101342850D01*
X132457868Y-101363893D01*
X132443253Y-101383599D01*
X132426777Y-101401777D01*
X132408599Y-101418253D01*
X132388893Y-101432868D01*
X132367850Y-101445480D01*
X132345671Y-101455970D01*
X132322572Y-101464235D01*
X132298773Y-101470196D01*
X132274505Y-101473796D01*
X132250001Y-101475000D01*
X131349999Y-101475000D01*
X131325495Y-101473796D01*
X131301227Y-101470196D01*
X131277428Y-101464235D01*
X131254329Y-101455970D01*
X131232150Y-101445480D01*
X131211107Y-101432868D01*
X131191401Y-101418253D01*
X131173223Y-101401777D01*
X131156747Y-101383599D01*
X131142132Y-101363893D01*
X131129520Y-101342850D01*
X131119030Y-101320671D01*
X131110765Y-101297572D01*
X131104804Y-101273773D01*
X131101204Y-101249505D01*
X131100000Y-101225001D01*
X131100000Y-100574999D01*
X131101204Y-100550495D01*
X131104804Y-100526227D01*
X131110765Y-100502428D01*
X131119030Y-100479329D01*
X131129520Y-100457150D01*
X131142132Y-100436107D01*
X131156747Y-100416401D01*
X131173223Y-100398223D01*
X131191401Y-100381747D01*
X131211107Y-100367132D01*
X131232150Y-100354520D01*
X131254329Y-100344030D01*
X131277428Y-100335765D01*
X131301227Y-100329804D01*
X131325495Y-100326204D01*
X131349999Y-100325000D01*
X132250001Y-100325000D01*
X132274505Y-100326204D01*
X132274505Y-100326204D01*
G37*
D11*
G04 #@! TD*
G04 #@! TO.P,C4,1*
G04 #@! TO.N,GND*
X131800000Y-100900000D03*
D10*
G04 #@! TO.N,+3V3*
G04 #@! TO.C,C4*
G36*
X132274505Y-102376204D02*
X132298773Y-102379804D01*
X132322572Y-102385765D01*
X132345671Y-102394030D01*
X132367850Y-102404520D01*
X132388893Y-102417132D01*
X132408599Y-102431747D01*
X132426777Y-102448223D01*
X132443253Y-102466401D01*
X132457868Y-102486107D01*
X132470480Y-102507150D01*
X132480970Y-102529329D01*
X132489235Y-102552428D01*
X132495196Y-102576227D01*
X132498796Y-102600495D01*
X132500000Y-102624999D01*
X132500000Y-103275001D01*
X132498796Y-103299505D01*
X132495196Y-103323773D01*
X132489235Y-103347572D01*
X132480970Y-103370671D01*
X132470480Y-103392850D01*
X132457868Y-103413893D01*
X132443253Y-103433599D01*
X132426777Y-103451777D01*
X132408599Y-103468253D01*
X132388893Y-103482868D01*
X132367850Y-103495480D01*
X132345671Y-103505970D01*
X132322572Y-103514235D01*
X132298773Y-103520196D01*
X132274505Y-103523796D01*
X132250001Y-103525000D01*
X131349999Y-103525000D01*
X131325495Y-103523796D01*
X131301227Y-103520196D01*
X131277428Y-103514235D01*
X131254329Y-103505970D01*
X131232150Y-103495480D01*
X131211107Y-103482868D01*
X131191401Y-103468253D01*
X131173223Y-103451777D01*
X131156747Y-103433599D01*
X131142132Y-103413893D01*
X131129520Y-103392850D01*
X131119030Y-103370671D01*
X131110765Y-103347572D01*
X131104804Y-103323773D01*
X131101204Y-103299505D01*
X131100000Y-103275001D01*
X131100000Y-102624999D01*
X131101204Y-102600495D01*
X131104804Y-102576227D01*
X131110765Y-102552428D01*
X131119030Y-102529329D01*
X131129520Y-102507150D01*
X131142132Y-102486107D01*
X131156747Y-102466401D01*
X131173223Y-102448223D01*
X131191401Y-102431747D01*
X131211107Y-102417132D01*
X131232150Y-102404520D01*
X131254329Y-102394030D01*
X131277428Y-102385765D01*
X131301227Y-102379804D01*
X131325495Y-102376204D01*
X131349999Y-102375000D01*
X132250001Y-102375000D01*
X132274505Y-102376204D01*
X132274505Y-102376204D01*
G37*
D11*
G04 #@! TD*
G04 #@! TO.P,C4,2*
G04 #@! TO.N,+3V3*
X131800000Y-102950000D03*
D10*
G04 #@! TO.N,+3V3*
G04 #@! TO.C,C5*
G36*
X129949504Y-101876204D02*
X129973773Y-101879804D01*
X129997571Y-101885765D01*
X130020671Y-101894030D01*
X130042849Y-101904520D01*
X130063893Y-101917133D01*
X130083598Y-101931747D01*
X130101777Y-101948223D01*
X130118253Y-101966402D01*
X130132867Y-101986107D01*
X130145480Y-102007151D01*
X130155970Y-102029329D01*
X130164235Y-102052429D01*
X130170196Y-102076227D01*
X130173796Y-102100496D01*
X130175000Y-102125000D01*
X130175000Y-103125000D01*
X130173796Y-103149504D01*
X130170196Y-103173773D01*
X130164235Y-103197571D01*
X130155970Y-103220671D01*
X130145480Y-103242849D01*
X130132867Y-103263893D01*
X130118253Y-103283598D01*
X130101777Y-103301777D01*
X130083598Y-103318253D01*
X130063893Y-103332867D01*
X130042849Y-103345480D01*
X130020671Y-103355970D01*
X129997571Y-103364235D01*
X129973773Y-103370196D01*
X129949504Y-103373796D01*
X129925000Y-103375000D01*
X128075000Y-103375000D01*
X128050496Y-103373796D01*
X128026227Y-103370196D01*
X128002429Y-103364235D01*
X127979329Y-103355970D01*
X127957151Y-103345480D01*
X127936107Y-103332867D01*
X127916402Y-103318253D01*
X127898223Y-103301777D01*
X127881747Y-103283598D01*
X127867133Y-103263893D01*
X127854520Y-103242849D01*
X127844030Y-103220671D01*
X127835765Y-103197571D01*
X127829804Y-103173773D01*
X127826204Y-103149504D01*
X127825000Y-103125000D01*
X127825000Y-102125000D01*
X127826204Y-102100496D01*
X127829804Y-102076227D01*
X127835765Y-102052429D01*
X127844030Y-102029329D01*
X127854520Y-102007151D01*
X127867133Y-101986107D01*
X127881747Y-101966402D01*
X127898223Y-101948223D01*
X127916402Y-101931747D01*
X127936107Y-101917133D01*
X127957151Y-101904520D01*
X127979329Y-101894030D01*
X128002429Y-101885765D01*
X128026227Y-101879804D01*
X128050496Y-101876204D01*
X128075000Y-101875000D01*
X129925000Y-101875000D01*
X129949504Y-101876204D01*
X129949504Y-101876204D01*
G37*
D12*
G04 #@! TD*
G04 #@! TO.P,C5,1*
G04 #@! TO.N,+3V3*
X129000000Y-102625000D03*
D10*
G04 #@! TO.N,GND*
G04 #@! TO.C,C5*
G36*
X129949504Y-98626204D02*
X129973773Y-98629804D01*
X129997571Y-98635765D01*
X130020671Y-98644030D01*
X130042849Y-98654520D01*
X130063893Y-98667133D01*
X130083598Y-98681747D01*
X130101777Y-98698223D01*
X130118253Y-98716402D01*
X130132867Y-98736107D01*
X130145480Y-98757151D01*
X130155970Y-98779329D01*
X130164235Y-98802429D01*
X130170196Y-98826227D01*
X130173796Y-98850496D01*
X130175000Y-98875000D01*
X130175000Y-99875000D01*
X130173796Y-99899504D01*
X130170196Y-99923773D01*
X130164235Y-99947571D01*
X130155970Y-99970671D01*
X130145480Y-99992849D01*
X130132867Y-100013893D01*
X130118253Y-100033598D01*
X130101777Y-100051777D01*
X130083598Y-100068253D01*
X130063893Y-100082867D01*
X130042849Y-100095480D01*
X130020671Y-100105970D01*
X129997571Y-100114235D01*
X129973773Y-100120196D01*
X129949504Y-100123796D01*
X129925000Y-100125000D01*
X128075000Y-100125000D01*
X128050496Y-100123796D01*
X128026227Y-100120196D01*
X128002429Y-100114235D01*
X127979329Y-100105970D01*
X127957151Y-100095480D01*
X127936107Y-100082867D01*
X127916402Y-100068253D01*
X127898223Y-100051777D01*
X127881747Y-100033598D01*
X127867133Y-100013893D01*
X127854520Y-99992849D01*
X127844030Y-99970671D01*
X127835765Y-99947571D01*
X127829804Y-99923773D01*
X127826204Y-99899504D01*
X127825000Y-99875000D01*
X127825000Y-98875000D01*
X127826204Y-98850496D01*
X127829804Y-98826227D01*
X127835765Y-98802429D01*
X127844030Y-98779329D01*
X127854520Y-98757151D01*
X127867133Y-98736107D01*
X127881747Y-98716402D01*
X127898223Y-98698223D01*
X127916402Y-98681747D01*
X127936107Y-98667133D01*
X127957151Y-98654520D01*
X127979329Y-98644030D01*
X128002429Y-98635765D01*
X128026227Y-98629804D01*
X128050496Y-98626204D01*
X128075000Y-98625000D01*
X129925000Y-98625000D01*
X129949504Y-98626204D01*
X129949504Y-98626204D01*
G37*
D12*
G04 #@! TD*
G04 #@! TO.P,C5,2*
G04 #@! TO.N,GND*
X129000000Y-99375000D03*
D10*
G04 #@! TO.N,+3V3*
G04 #@! TO.C,C6*
G36*
X131474505Y-107401204D02*
X131498773Y-107404804D01*
X131522572Y-107410765D01*
X131545671Y-107419030D01*
X131567850Y-107429520D01*
X131588893Y-107442132D01*
X131608599Y-107456747D01*
X131626777Y-107473223D01*
X131643253Y-107491401D01*
X131657868Y-107511107D01*
X131670480Y-107532150D01*
X131680970Y-107554329D01*
X131689235Y-107577428D01*
X131695196Y-107601227D01*
X131698796Y-107625495D01*
X131700000Y-107649999D01*
X131700000Y-108300001D01*
X131698796Y-108324505D01*
X131695196Y-108348773D01*
X131689235Y-108372572D01*
X131680970Y-108395671D01*
X131670480Y-108417850D01*
X131657868Y-108438893D01*
X131643253Y-108458599D01*
X131626777Y-108476777D01*
X131608599Y-108493253D01*
X131588893Y-108507868D01*
X131567850Y-108520480D01*
X131545671Y-108530970D01*
X131522572Y-108539235D01*
X131498773Y-108545196D01*
X131474505Y-108548796D01*
X131450001Y-108550000D01*
X130549999Y-108550000D01*
X130525495Y-108548796D01*
X130501227Y-108545196D01*
X130477428Y-108539235D01*
X130454329Y-108530970D01*
X130432150Y-108520480D01*
X130411107Y-108507868D01*
X130391401Y-108493253D01*
X130373223Y-108476777D01*
X130356747Y-108458599D01*
X130342132Y-108438893D01*
X130329520Y-108417850D01*
X130319030Y-108395671D01*
X130310765Y-108372572D01*
X130304804Y-108348773D01*
X130301204Y-108324505D01*
X130300000Y-108300001D01*
X130300000Y-107649999D01*
X130301204Y-107625495D01*
X130304804Y-107601227D01*
X130310765Y-107577428D01*
X130319030Y-107554329D01*
X130329520Y-107532150D01*
X130342132Y-107511107D01*
X130356747Y-107491401D01*
X130373223Y-107473223D01*
X130391401Y-107456747D01*
X130411107Y-107442132D01*
X130432150Y-107429520D01*
X130454329Y-107419030D01*
X130477428Y-107410765D01*
X130501227Y-107404804D01*
X130525495Y-107401204D01*
X130549999Y-107400000D01*
X131450001Y-107400000D01*
X131474505Y-107401204D01*
X131474505Y-107401204D01*
G37*
D11*
G04 #@! TD*
G04 #@! TO.P,C6,2*
G04 #@! TO.N,+3V3*
X131000000Y-107975000D03*
D10*
G04 #@! TO.N,GND*
G04 #@! TO.C,C6*
G36*
X131474505Y-109451204D02*
X131498773Y-109454804D01*
X131522572Y-109460765D01*
X131545671Y-109469030D01*
X131567850Y-109479520D01*
X131588893Y-109492132D01*
X131608599Y-109506747D01*
X131626777Y-109523223D01*
X131643253Y-109541401D01*
X131657868Y-109561107D01*
X131670480Y-109582150D01*
X131680970Y-109604329D01*
X131689235Y-109627428D01*
X131695196Y-109651227D01*
X131698796Y-109675495D01*
X131700000Y-109699999D01*
X131700000Y-110350001D01*
X131698796Y-110374505D01*
X131695196Y-110398773D01*
X131689235Y-110422572D01*
X131680970Y-110445671D01*
X131670480Y-110467850D01*
X131657868Y-110488893D01*
X131643253Y-110508599D01*
X131626777Y-110526777D01*
X131608599Y-110543253D01*
X131588893Y-110557868D01*
X131567850Y-110570480D01*
X131545671Y-110580970D01*
X131522572Y-110589235D01*
X131498773Y-110595196D01*
X131474505Y-110598796D01*
X131450001Y-110600000D01*
X130549999Y-110600000D01*
X130525495Y-110598796D01*
X130501227Y-110595196D01*
X130477428Y-110589235D01*
X130454329Y-110580970D01*
X130432150Y-110570480D01*
X130411107Y-110557868D01*
X130391401Y-110543253D01*
X130373223Y-110526777D01*
X130356747Y-110508599D01*
X130342132Y-110488893D01*
X130329520Y-110467850D01*
X130319030Y-110445671D01*
X130310765Y-110422572D01*
X130304804Y-110398773D01*
X130301204Y-110374505D01*
X130300000Y-110350001D01*
X130300000Y-109699999D01*
X130301204Y-109675495D01*
X130304804Y-109651227D01*
X130310765Y-109627428D01*
X130319030Y-109604329D01*
X130329520Y-109582150D01*
X130342132Y-109561107D01*
X130356747Y-109541401D01*
X130373223Y-109523223D01*
X130391401Y-109506747D01*
X130411107Y-109492132D01*
X130432150Y-109479520D01*
X130454329Y-109469030D01*
X130477428Y-109460765D01*
X130501227Y-109454804D01*
X130525495Y-109451204D01*
X130549999Y-109450000D01*
X131450001Y-109450000D01*
X131474505Y-109451204D01*
X131474505Y-109451204D01*
G37*
D11*
G04 #@! TD*
G04 #@! TO.P,C6,1*
G04 #@! TO.N,GND*
X131000000Y-110025000D03*
D10*
G04 #@! TO.N,GND*
G04 #@! TO.C,C7*
G36*
X122474505Y-101451204D02*
X122498773Y-101454804D01*
X122522572Y-101460765D01*
X122545671Y-101469030D01*
X122567850Y-101479520D01*
X122588893Y-101492132D01*
X122608599Y-101506747D01*
X122626777Y-101523223D01*
X122643253Y-101541401D01*
X122657868Y-101561107D01*
X122670480Y-101582150D01*
X122680970Y-101604329D01*
X122689235Y-101627428D01*
X122695196Y-101651227D01*
X122698796Y-101675495D01*
X122700000Y-101699999D01*
X122700000Y-102350001D01*
X122698796Y-102374505D01*
X122695196Y-102398773D01*
X122689235Y-102422572D01*
X122680970Y-102445671D01*
X122670480Y-102467850D01*
X122657868Y-102488893D01*
X122643253Y-102508599D01*
X122626777Y-102526777D01*
X122608599Y-102543253D01*
X122588893Y-102557868D01*
X122567850Y-102570480D01*
X122545671Y-102580970D01*
X122522572Y-102589235D01*
X122498773Y-102595196D01*
X122474505Y-102598796D01*
X122450001Y-102600000D01*
X121549999Y-102600000D01*
X121525495Y-102598796D01*
X121501227Y-102595196D01*
X121477428Y-102589235D01*
X121454329Y-102580970D01*
X121432150Y-102570480D01*
X121411107Y-102557868D01*
X121391401Y-102543253D01*
X121373223Y-102526777D01*
X121356747Y-102508599D01*
X121342132Y-102488893D01*
X121329520Y-102467850D01*
X121319030Y-102445671D01*
X121310765Y-102422572D01*
X121304804Y-102398773D01*
X121301204Y-102374505D01*
X121300000Y-102350001D01*
X121300000Y-101699999D01*
X121301204Y-101675495D01*
X121304804Y-101651227D01*
X121310765Y-101627428D01*
X121319030Y-101604329D01*
X121329520Y-101582150D01*
X121342132Y-101561107D01*
X121356747Y-101541401D01*
X121373223Y-101523223D01*
X121391401Y-101506747D01*
X121411107Y-101492132D01*
X121432150Y-101479520D01*
X121454329Y-101469030D01*
X121477428Y-101460765D01*
X121501227Y-101454804D01*
X121525495Y-101451204D01*
X121549999Y-101450000D01*
X122450001Y-101450000D01*
X122474505Y-101451204D01*
X122474505Y-101451204D01*
G37*
D11*
G04 #@! TD*
G04 #@! TO.P,C7,2*
G04 #@! TO.N,GND*
X122000000Y-102025000D03*
D10*
G04 #@! TO.N,+3V3*
G04 #@! TO.C,C7*
G36*
X122474505Y-99401204D02*
X122498773Y-99404804D01*
X122522572Y-99410765D01*
X122545671Y-99419030D01*
X122567850Y-99429520D01*
X122588893Y-99442132D01*
X122608599Y-99456747D01*
X122626777Y-99473223D01*
X122643253Y-99491401D01*
X122657868Y-99511107D01*
X122670480Y-99532150D01*
X122680970Y-99554329D01*
X122689235Y-99577428D01*
X122695196Y-99601227D01*
X122698796Y-99625495D01*
X122700000Y-99649999D01*
X122700000Y-100300001D01*
X122698796Y-100324505D01*
X122695196Y-100348773D01*
X122689235Y-100372572D01*
X122680970Y-100395671D01*
X122670480Y-100417850D01*
X122657868Y-100438893D01*
X122643253Y-100458599D01*
X122626777Y-100476777D01*
X122608599Y-100493253D01*
X122588893Y-100507868D01*
X122567850Y-100520480D01*
X122545671Y-100530970D01*
X122522572Y-100539235D01*
X122498773Y-100545196D01*
X122474505Y-100548796D01*
X122450001Y-100550000D01*
X121549999Y-100550000D01*
X121525495Y-100548796D01*
X121501227Y-100545196D01*
X121477428Y-100539235D01*
X121454329Y-100530970D01*
X121432150Y-100520480D01*
X121411107Y-100507868D01*
X121391401Y-100493253D01*
X121373223Y-100476777D01*
X121356747Y-100458599D01*
X121342132Y-100438893D01*
X121329520Y-100417850D01*
X121319030Y-100395671D01*
X121310765Y-100372572D01*
X121304804Y-100348773D01*
X121301204Y-100324505D01*
X121300000Y-100300001D01*
X121300000Y-99649999D01*
X121301204Y-99625495D01*
X121304804Y-99601227D01*
X121310765Y-99577428D01*
X121319030Y-99554329D01*
X121329520Y-99532150D01*
X121342132Y-99511107D01*
X121356747Y-99491401D01*
X121373223Y-99473223D01*
X121391401Y-99456747D01*
X121411107Y-99442132D01*
X121432150Y-99429520D01*
X121454329Y-99419030D01*
X121477428Y-99410765D01*
X121501227Y-99404804D01*
X121525495Y-99401204D01*
X121549999Y-99400000D01*
X122450001Y-99400000D01*
X122474505Y-99401204D01*
X122474505Y-99401204D01*
G37*
D11*
G04 #@! TD*
G04 #@! TO.P,C7,1*
G04 #@! TO.N,+3V3*
X122000000Y-99975000D03*
D10*
G04 #@! TO.N,+3V3*
G04 #@! TO.C,C8*
G36*
X124474505Y-99401204D02*
X124498773Y-99404804D01*
X124522572Y-99410765D01*
X124545671Y-99419030D01*
X124567850Y-99429520D01*
X124588893Y-99442132D01*
X124608599Y-99456747D01*
X124626777Y-99473223D01*
X124643253Y-99491401D01*
X124657868Y-99511107D01*
X124670480Y-99532150D01*
X124680970Y-99554329D01*
X124689235Y-99577428D01*
X124695196Y-99601227D01*
X124698796Y-99625495D01*
X124700000Y-99649999D01*
X124700000Y-100300001D01*
X124698796Y-100324505D01*
X124695196Y-100348773D01*
X124689235Y-100372572D01*
X124680970Y-100395671D01*
X124670480Y-100417850D01*
X124657868Y-100438893D01*
X124643253Y-100458599D01*
X124626777Y-100476777D01*
X124608599Y-100493253D01*
X124588893Y-100507868D01*
X124567850Y-100520480D01*
X124545671Y-100530970D01*
X124522572Y-100539235D01*
X124498773Y-100545196D01*
X124474505Y-100548796D01*
X124450001Y-100550000D01*
X123549999Y-100550000D01*
X123525495Y-100548796D01*
X123501227Y-100545196D01*
X123477428Y-100539235D01*
X123454329Y-100530970D01*
X123432150Y-100520480D01*
X123411107Y-100507868D01*
X123391401Y-100493253D01*
X123373223Y-100476777D01*
X123356747Y-100458599D01*
X123342132Y-100438893D01*
X123329520Y-100417850D01*
X123319030Y-100395671D01*
X123310765Y-100372572D01*
X123304804Y-100348773D01*
X123301204Y-100324505D01*
X123300000Y-100300001D01*
X123300000Y-99649999D01*
X123301204Y-99625495D01*
X123304804Y-99601227D01*
X123310765Y-99577428D01*
X123319030Y-99554329D01*
X123329520Y-99532150D01*
X123342132Y-99511107D01*
X123356747Y-99491401D01*
X123373223Y-99473223D01*
X123391401Y-99456747D01*
X123411107Y-99442132D01*
X123432150Y-99429520D01*
X123454329Y-99419030D01*
X123477428Y-99410765D01*
X123501227Y-99404804D01*
X123525495Y-99401204D01*
X123549999Y-99400000D01*
X124450001Y-99400000D01*
X124474505Y-99401204D01*
X124474505Y-99401204D01*
G37*
D11*
G04 #@! TD*
G04 #@! TO.P,C8,1*
G04 #@! TO.N,+3V3*
X124000000Y-99975000D03*
D10*
G04 #@! TO.N,GND*
G04 #@! TO.C,C8*
G36*
X124474505Y-101451204D02*
X124498773Y-101454804D01*
X124522572Y-101460765D01*
X124545671Y-101469030D01*
X124567850Y-101479520D01*
X124588893Y-101492132D01*
X124608599Y-101506747D01*
X124626777Y-101523223D01*
X124643253Y-101541401D01*
X124657868Y-101561107D01*
X124670480Y-101582150D01*
X124680970Y-101604329D01*
X124689235Y-101627428D01*
X124695196Y-101651227D01*
X124698796Y-101675495D01*
X124700000Y-101699999D01*
X124700000Y-102350001D01*
X124698796Y-102374505D01*
X124695196Y-102398773D01*
X124689235Y-102422572D01*
X124680970Y-102445671D01*
X124670480Y-102467850D01*
X124657868Y-102488893D01*
X124643253Y-102508599D01*
X124626777Y-102526777D01*
X124608599Y-102543253D01*
X124588893Y-102557868D01*
X124567850Y-102570480D01*
X124545671Y-102580970D01*
X124522572Y-102589235D01*
X124498773Y-102595196D01*
X124474505Y-102598796D01*
X124450001Y-102600000D01*
X123549999Y-102600000D01*
X123525495Y-102598796D01*
X123501227Y-102595196D01*
X123477428Y-102589235D01*
X123454329Y-102580970D01*
X123432150Y-102570480D01*
X123411107Y-102557868D01*
X123391401Y-102543253D01*
X123373223Y-102526777D01*
X123356747Y-102508599D01*
X123342132Y-102488893D01*
X123329520Y-102467850D01*
X123319030Y-102445671D01*
X123310765Y-102422572D01*
X123304804Y-102398773D01*
X123301204Y-102374505D01*
X123300000Y-102350001D01*
X123300000Y-101699999D01*
X123301204Y-101675495D01*
X123304804Y-101651227D01*
X123310765Y-101627428D01*
X123319030Y-101604329D01*
X123329520Y-101582150D01*
X123342132Y-101561107D01*
X123356747Y-101541401D01*
X123373223Y-101523223D01*
X123391401Y-101506747D01*
X123411107Y-101492132D01*
X123432150Y-101479520D01*
X123454329Y-101469030D01*
X123477428Y-101460765D01*
X123501227Y-101454804D01*
X123525495Y-101451204D01*
X123549999Y-101450000D01*
X124450001Y-101450000D01*
X124474505Y-101451204D01*
X124474505Y-101451204D01*
G37*
D11*
G04 #@! TD*
G04 #@! TO.P,C8,2*
G04 #@! TO.N,GND*
X124000000Y-102025000D03*
D10*
G04 #@! TO.N,GND*
G04 #@! TO.C,C9*
G36*
X110374505Y-90301204D02*
X110398773Y-90304804D01*
X110422572Y-90310765D01*
X110445671Y-90319030D01*
X110467850Y-90329520D01*
X110488893Y-90342132D01*
X110508599Y-90356747D01*
X110526777Y-90373223D01*
X110543253Y-90391401D01*
X110557868Y-90411107D01*
X110570480Y-90432150D01*
X110580970Y-90454329D01*
X110589235Y-90477428D01*
X110595196Y-90501227D01*
X110598796Y-90525495D01*
X110600000Y-90549999D01*
X110600000Y-91450001D01*
X110598796Y-91474505D01*
X110595196Y-91498773D01*
X110589235Y-91522572D01*
X110580970Y-91545671D01*
X110570480Y-91567850D01*
X110557868Y-91588893D01*
X110543253Y-91608599D01*
X110526777Y-91626777D01*
X110508599Y-91643253D01*
X110488893Y-91657868D01*
X110467850Y-91670480D01*
X110445671Y-91680970D01*
X110422572Y-91689235D01*
X110398773Y-91695196D01*
X110374505Y-91698796D01*
X110350001Y-91700000D01*
X109699999Y-91700000D01*
X109675495Y-91698796D01*
X109651227Y-91695196D01*
X109627428Y-91689235D01*
X109604329Y-91680970D01*
X109582150Y-91670480D01*
X109561107Y-91657868D01*
X109541401Y-91643253D01*
X109523223Y-91626777D01*
X109506747Y-91608599D01*
X109492132Y-91588893D01*
X109479520Y-91567850D01*
X109469030Y-91545671D01*
X109460765Y-91522572D01*
X109454804Y-91498773D01*
X109451204Y-91474505D01*
X109450000Y-91450001D01*
X109450000Y-90549999D01*
X109451204Y-90525495D01*
X109454804Y-90501227D01*
X109460765Y-90477428D01*
X109469030Y-90454329D01*
X109479520Y-90432150D01*
X109492132Y-90411107D01*
X109506747Y-90391401D01*
X109523223Y-90373223D01*
X109541401Y-90356747D01*
X109561107Y-90342132D01*
X109582150Y-90329520D01*
X109604329Y-90319030D01*
X109627428Y-90310765D01*
X109651227Y-90304804D01*
X109675495Y-90301204D01*
X109699999Y-90300000D01*
X110350001Y-90300000D01*
X110374505Y-90301204D01*
X110374505Y-90301204D01*
G37*
D11*
G04 #@! TD*
G04 #@! TO.P,C9,1*
G04 #@! TO.N,GND*
X110025000Y-91000000D03*
D10*
G04 #@! TO.N,+3V3*
G04 #@! TO.C,C9*
G36*
X108324505Y-90301204D02*
X108348773Y-90304804D01*
X108372572Y-90310765D01*
X108395671Y-90319030D01*
X108417850Y-90329520D01*
X108438893Y-90342132D01*
X108458599Y-90356747D01*
X108476777Y-90373223D01*
X108493253Y-90391401D01*
X108507868Y-90411107D01*
X108520480Y-90432150D01*
X108530970Y-90454329D01*
X108539235Y-90477428D01*
X108545196Y-90501227D01*
X108548796Y-90525495D01*
X108550000Y-90549999D01*
X108550000Y-91450001D01*
X108548796Y-91474505D01*
X108545196Y-91498773D01*
X108539235Y-91522572D01*
X108530970Y-91545671D01*
X108520480Y-91567850D01*
X108507868Y-91588893D01*
X108493253Y-91608599D01*
X108476777Y-91626777D01*
X108458599Y-91643253D01*
X108438893Y-91657868D01*
X108417850Y-91670480D01*
X108395671Y-91680970D01*
X108372572Y-91689235D01*
X108348773Y-91695196D01*
X108324505Y-91698796D01*
X108300001Y-91700000D01*
X107649999Y-91700000D01*
X107625495Y-91698796D01*
X107601227Y-91695196D01*
X107577428Y-91689235D01*
X107554329Y-91680970D01*
X107532150Y-91670480D01*
X107511107Y-91657868D01*
X107491401Y-91643253D01*
X107473223Y-91626777D01*
X107456747Y-91608599D01*
X107442132Y-91588893D01*
X107429520Y-91567850D01*
X107419030Y-91545671D01*
X107410765Y-91522572D01*
X107404804Y-91498773D01*
X107401204Y-91474505D01*
X107400000Y-91450001D01*
X107400000Y-90549999D01*
X107401204Y-90525495D01*
X107404804Y-90501227D01*
X107410765Y-90477428D01*
X107419030Y-90454329D01*
X107429520Y-90432150D01*
X107442132Y-90411107D01*
X107456747Y-90391401D01*
X107473223Y-90373223D01*
X107491401Y-90356747D01*
X107511107Y-90342132D01*
X107532150Y-90329520D01*
X107554329Y-90319030D01*
X107577428Y-90310765D01*
X107601227Y-90304804D01*
X107625495Y-90301204D01*
X107649999Y-90300000D01*
X108300001Y-90300000D01*
X108324505Y-90301204D01*
X108324505Y-90301204D01*
G37*
D11*
G04 #@! TD*
G04 #@! TO.P,C9,2*
G04 #@! TO.N,+3V3*
X107975000Y-91000000D03*
D10*
G04 #@! TO.N,GND*
G04 #@! TO.C,C10*
G36*
X98474505Y-96401204D02*
X98498773Y-96404804D01*
X98522572Y-96410765D01*
X98545671Y-96419030D01*
X98567850Y-96429520D01*
X98588893Y-96442132D01*
X98608599Y-96456747D01*
X98626777Y-96473223D01*
X98643253Y-96491401D01*
X98657868Y-96511107D01*
X98670480Y-96532150D01*
X98680970Y-96554329D01*
X98689235Y-96577428D01*
X98695196Y-96601227D01*
X98698796Y-96625495D01*
X98700000Y-96649999D01*
X98700000Y-97300001D01*
X98698796Y-97324505D01*
X98695196Y-97348773D01*
X98689235Y-97372572D01*
X98680970Y-97395671D01*
X98670480Y-97417850D01*
X98657868Y-97438893D01*
X98643253Y-97458599D01*
X98626777Y-97476777D01*
X98608599Y-97493253D01*
X98588893Y-97507868D01*
X98567850Y-97520480D01*
X98545671Y-97530970D01*
X98522572Y-97539235D01*
X98498773Y-97545196D01*
X98474505Y-97548796D01*
X98450001Y-97550000D01*
X97549999Y-97550000D01*
X97525495Y-97548796D01*
X97501227Y-97545196D01*
X97477428Y-97539235D01*
X97454329Y-97530970D01*
X97432150Y-97520480D01*
X97411107Y-97507868D01*
X97391401Y-97493253D01*
X97373223Y-97476777D01*
X97356747Y-97458599D01*
X97342132Y-97438893D01*
X97329520Y-97417850D01*
X97319030Y-97395671D01*
X97310765Y-97372572D01*
X97304804Y-97348773D01*
X97301204Y-97324505D01*
X97300000Y-97300001D01*
X97300000Y-96649999D01*
X97301204Y-96625495D01*
X97304804Y-96601227D01*
X97310765Y-96577428D01*
X97319030Y-96554329D01*
X97329520Y-96532150D01*
X97342132Y-96511107D01*
X97356747Y-96491401D01*
X97373223Y-96473223D01*
X97391401Y-96456747D01*
X97411107Y-96442132D01*
X97432150Y-96429520D01*
X97454329Y-96419030D01*
X97477428Y-96410765D01*
X97501227Y-96404804D01*
X97525495Y-96401204D01*
X97549999Y-96400000D01*
X98450001Y-96400000D01*
X98474505Y-96401204D01*
X98474505Y-96401204D01*
G37*
D11*
G04 #@! TD*
G04 #@! TO.P,C10,2*
G04 #@! TO.N,GND*
X98000000Y-96975000D03*
D10*
G04 #@! TO.N,+3V3*
G04 #@! TO.C,C10*
G36*
X98474505Y-98451204D02*
X98498773Y-98454804D01*
X98522572Y-98460765D01*
X98545671Y-98469030D01*
X98567850Y-98479520D01*
X98588893Y-98492132D01*
X98608599Y-98506747D01*
X98626777Y-98523223D01*
X98643253Y-98541401D01*
X98657868Y-98561107D01*
X98670480Y-98582150D01*
X98680970Y-98604329D01*
X98689235Y-98627428D01*
X98695196Y-98651227D01*
X98698796Y-98675495D01*
X98700000Y-98699999D01*
X98700000Y-99350001D01*
X98698796Y-99374505D01*
X98695196Y-99398773D01*
X98689235Y-99422572D01*
X98680970Y-99445671D01*
X98670480Y-99467850D01*
X98657868Y-99488893D01*
X98643253Y-99508599D01*
X98626777Y-99526777D01*
X98608599Y-99543253D01*
X98588893Y-99557868D01*
X98567850Y-99570480D01*
X98545671Y-99580970D01*
X98522572Y-99589235D01*
X98498773Y-99595196D01*
X98474505Y-99598796D01*
X98450001Y-99600000D01*
X97549999Y-99600000D01*
X97525495Y-99598796D01*
X97501227Y-99595196D01*
X97477428Y-99589235D01*
X97454329Y-99580970D01*
X97432150Y-99570480D01*
X97411107Y-99557868D01*
X97391401Y-99543253D01*
X97373223Y-99526777D01*
X97356747Y-99508599D01*
X97342132Y-99488893D01*
X97329520Y-99467850D01*
X97319030Y-99445671D01*
X97310765Y-99422572D01*
X97304804Y-99398773D01*
X97301204Y-99374505D01*
X97300000Y-99350001D01*
X97300000Y-98699999D01*
X97301204Y-98675495D01*
X97304804Y-98651227D01*
X97310765Y-98627428D01*
X97319030Y-98604329D01*
X97329520Y-98582150D01*
X97342132Y-98561107D01*
X97356747Y-98541401D01*
X97373223Y-98523223D01*
X97391401Y-98506747D01*
X97411107Y-98492132D01*
X97432150Y-98479520D01*
X97454329Y-98469030D01*
X97477428Y-98460765D01*
X97501227Y-98454804D01*
X97525495Y-98451204D01*
X97549999Y-98450000D01*
X98450001Y-98450000D01*
X98474505Y-98451204D01*
X98474505Y-98451204D01*
G37*
D11*
G04 #@! TD*
G04 #@! TO.P,C10,1*
G04 #@! TO.N,+3V3*
X98000000Y-99025000D03*
D10*
G04 #@! TO.N,+3V3*
G04 #@! TO.C,C11*
G36*
X100474505Y-98451204D02*
X100498773Y-98454804D01*
X100522572Y-98460765D01*
X100545671Y-98469030D01*
X100567850Y-98479520D01*
X100588893Y-98492132D01*
X100608599Y-98506747D01*
X100626777Y-98523223D01*
X100643253Y-98541401D01*
X100657868Y-98561107D01*
X100670480Y-98582150D01*
X100680970Y-98604329D01*
X100689235Y-98627428D01*
X100695196Y-98651227D01*
X100698796Y-98675495D01*
X100700000Y-98699999D01*
X100700000Y-99350001D01*
X100698796Y-99374505D01*
X100695196Y-99398773D01*
X100689235Y-99422572D01*
X100680970Y-99445671D01*
X100670480Y-99467850D01*
X100657868Y-99488893D01*
X100643253Y-99508599D01*
X100626777Y-99526777D01*
X100608599Y-99543253D01*
X100588893Y-99557868D01*
X100567850Y-99570480D01*
X100545671Y-99580970D01*
X100522572Y-99589235D01*
X100498773Y-99595196D01*
X100474505Y-99598796D01*
X100450001Y-99600000D01*
X99549999Y-99600000D01*
X99525495Y-99598796D01*
X99501227Y-99595196D01*
X99477428Y-99589235D01*
X99454329Y-99580970D01*
X99432150Y-99570480D01*
X99411107Y-99557868D01*
X99391401Y-99543253D01*
X99373223Y-99526777D01*
X99356747Y-99508599D01*
X99342132Y-99488893D01*
X99329520Y-99467850D01*
X99319030Y-99445671D01*
X99310765Y-99422572D01*
X99304804Y-99398773D01*
X99301204Y-99374505D01*
X99300000Y-99350001D01*
X99300000Y-98699999D01*
X99301204Y-98675495D01*
X99304804Y-98651227D01*
X99310765Y-98627428D01*
X99319030Y-98604329D01*
X99329520Y-98582150D01*
X99342132Y-98561107D01*
X99356747Y-98541401D01*
X99373223Y-98523223D01*
X99391401Y-98506747D01*
X99411107Y-98492132D01*
X99432150Y-98479520D01*
X99454329Y-98469030D01*
X99477428Y-98460765D01*
X99501227Y-98454804D01*
X99525495Y-98451204D01*
X99549999Y-98450000D01*
X100450001Y-98450000D01*
X100474505Y-98451204D01*
X100474505Y-98451204D01*
G37*
D11*
G04 #@! TD*
G04 #@! TO.P,C11,1*
G04 #@! TO.N,+3V3*
X100000000Y-99025000D03*
D10*
G04 #@! TO.N,GND*
G04 #@! TO.C,C11*
G36*
X100474505Y-96401204D02*
X100498773Y-96404804D01*
X100522572Y-96410765D01*
X100545671Y-96419030D01*
X100567850Y-96429520D01*
X100588893Y-96442132D01*
X100608599Y-96456747D01*
X100626777Y-96473223D01*
X100643253Y-96491401D01*
X100657868Y-96511107D01*
X100670480Y-96532150D01*
X100680970Y-96554329D01*
X100689235Y-96577428D01*
X100695196Y-96601227D01*
X100698796Y-96625495D01*
X100700000Y-96649999D01*
X100700000Y-97300001D01*
X100698796Y-97324505D01*
X100695196Y-97348773D01*
X100689235Y-97372572D01*
X100680970Y-97395671D01*
X100670480Y-97417850D01*
X100657868Y-97438893D01*
X100643253Y-97458599D01*
X100626777Y-97476777D01*
X100608599Y-97493253D01*
X100588893Y-97507868D01*
X100567850Y-97520480D01*
X100545671Y-97530970D01*
X100522572Y-97539235D01*
X100498773Y-97545196D01*
X100474505Y-97548796D01*
X100450001Y-97550000D01*
X99549999Y-97550000D01*
X99525495Y-97548796D01*
X99501227Y-97545196D01*
X99477428Y-97539235D01*
X99454329Y-97530970D01*
X99432150Y-97520480D01*
X99411107Y-97507868D01*
X99391401Y-97493253D01*
X99373223Y-97476777D01*
X99356747Y-97458599D01*
X99342132Y-97438893D01*
X99329520Y-97417850D01*
X99319030Y-97395671D01*
X99310765Y-97372572D01*
X99304804Y-97348773D01*
X99301204Y-97324505D01*
X99300000Y-97300001D01*
X99300000Y-96649999D01*
X99301204Y-96625495D01*
X99304804Y-96601227D01*
X99310765Y-96577428D01*
X99319030Y-96554329D01*
X99329520Y-96532150D01*
X99342132Y-96511107D01*
X99356747Y-96491401D01*
X99373223Y-96473223D01*
X99391401Y-96456747D01*
X99411107Y-96442132D01*
X99432150Y-96429520D01*
X99454329Y-96419030D01*
X99477428Y-96410765D01*
X99501227Y-96404804D01*
X99525495Y-96401204D01*
X99549999Y-96400000D01*
X100450001Y-96400000D01*
X100474505Y-96401204D01*
X100474505Y-96401204D01*
G37*
D11*
G04 #@! TD*
G04 #@! TO.P,C11,2*
G04 #@! TO.N,GND*
X100000000Y-96975000D03*
D10*
G04 #@! TO.N,GND*
G04 #@! TO.C,C12*
G36*
X102474505Y-96401204D02*
X102498773Y-96404804D01*
X102522572Y-96410765D01*
X102545671Y-96419030D01*
X102567850Y-96429520D01*
X102588893Y-96442132D01*
X102608599Y-96456747D01*
X102626777Y-96473223D01*
X102643253Y-96491401D01*
X102657868Y-96511107D01*
X102670480Y-96532150D01*
X102680970Y-96554329D01*
X102689235Y-96577428D01*
X102695196Y-96601227D01*
X102698796Y-96625495D01*
X102700000Y-96649999D01*
X102700000Y-97300001D01*
X102698796Y-97324505D01*
X102695196Y-97348773D01*
X102689235Y-97372572D01*
X102680970Y-97395671D01*
X102670480Y-97417850D01*
X102657868Y-97438893D01*
X102643253Y-97458599D01*
X102626777Y-97476777D01*
X102608599Y-97493253D01*
X102588893Y-97507868D01*
X102567850Y-97520480D01*
X102545671Y-97530970D01*
X102522572Y-97539235D01*
X102498773Y-97545196D01*
X102474505Y-97548796D01*
X102450001Y-97550000D01*
X101549999Y-97550000D01*
X101525495Y-97548796D01*
X101501227Y-97545196D01*
X101477428Y-97539235D01*
X101454329Y-97530970D01*
X101432150Y-97520480D01*
X101411107Y-97507868D01*
X101391401Y-97493253D01*
X101373223Y-97476777D01*
X101356747Y-97458599D01*
X101342132Y-97438893D01*
X101329520Y-97417850D01*
X101319030Y-97395671D01*
X101310765Y-97372572D01*
X101304804Y-97348773D01*
X101301204Y-97324505D01*
X101300000Y-97300001D01*
X101300000Y-96649999D01*
X101301204Y-96625495D01*
X101304804Y-96601227D01*
X101310765Y-96577428D01*
X101319030Y-96554329D01*
X101329520Y-96532150D01*
X101342132Y-96511107D01*
X101356747Y-96491401D01*
X101373223Y-96473223D01*
X101391401Y-96456747D01*
X101411107Y-96442132D01*
X101432150Y-96429520D01*
X101454329Y-96419030D01*
X101477428Y-96410765D01*
X101501227Y-96404804D01*
X101525495Y-96401204D01*
X101549999Y-96400000D01*
X102450001Y-96400000D01*
X102474505Y-96401204D01*
X102474505Y-96401204D01*
G37*
D11*
G04 #@! TD*
G04 #@! TO.P,C12,2*
G04 #@! TO.N,GND*
X102000000Y-96975000D03*
D10*
G04 #@! TO.N,+3V3*
G04 #@! TO.C,C12*
G36*
X102474505Y-98451204D02*
X102498773Y-98454804D01*
X102522572Y-98460765D01*
X102545671Y-98469030D01*
X102567850Y-98479520D01*
X102588893Y-98492132D01*
X102608599Y-98506747D01*
X102626777Y-98523223D01*
X102643253Y-98541401D01*
X102657868Y-98561107D01*
X102670480Y-98582150D01*
X102680970Y-98604329D01*
X102689235Y-98627428D01*
X102695196Y-98651227D01*
X102698796Y-98675495D01*
X102700000Y-98699999D01*
X102700000Y-99350001D01*
X102698796Y-99374505D01*
X102695196Y-99398773D01*
X102689235Y-99422572D01*
X102680970Y-99445671D01*
X102670480Y-99467850D01*
X102657868Y-99488893D01*
X102643253Y-99508599D01*
X102626777Y-99526777D01*
X102608599Y-99543253D01*
X102588893Y-99557868D01*
X102567850Y-99570480D01*
X102545671Y-99580970D01*
X102522572Y-99589235D01*
X102498773Y-99595196D01*
X102474505Y-99598796D01*
X102450001Y-99600000D01*
X101549999Y-99600000D01*
X101525495Y-99598796D01*
X101501227Y-99595196D01*
X101477428Y-99589235D01*
X101454329Y-99580970D01*
X101432150Y-99570480D01*
X101411107Y-99557868D01*
X101391401Y-99543253D01*
X101373223Y-99526777D01*
X101356747Y-99508599D01*
X101342132Y-99488893D01*
X101329520Y-99467850D01*
X101319030Y-99445671D01*
X101310765Y-99422572D01*
X101304804Y-99398773D01*
X101301204Y-99374505D01*
X101300000Y-99350001D01*
X101300000Y-98699999D01*
X101301204Y-98675495D01*
X101304804Y-98651227D01*
X101310765Y-98627428D01*
X101319030Y-98604329D01*
X101329520Y-98582150D01*
X101342132Y-98561107D01*
X101356747Y-98541401D01*
X101373223Y-98523223D01*
X101391401Y-98506747D01*
X101411107Y-98492132D01*
X101432150Y-98479520D01*
X101454329Y-98469030D01*
X101477428Y-98460765D01*
X101501227Y-98454804D01*
X101525495Y-98451204D01*
X101549999Y-98450000D01*
X102450001Y-98450000D01*
X102474505Y-98451204D01*
X102474505Y-98451204D01*
G37*
D11*
G04 #@! TD*
G04 #@! TO.P,C12,1*
G04 #@! TO.N,+3V3*
X102000000Y-99025000D03*
D13*
G04 #@! TO.P,J1,1*
G04 #@! TO.N,+5V*
X114975000Y-113950000D03*
G04 #@! TO.P,J1,2*
G04 #@! TO.N,Net-(J1-Pad2)*
X115625000Y-113950000D03*
G04 #@! TO.P,J1,3*
G04 #@! TO.N,Net-(J1-Pad3)*
X116275000Y-113950000D03*
G04 #@! TO.P,J1,4*
G04 #@! TO.N,Net-(J1-Pad4)*
X116925000Y-113950000D03*
G04 #@! TO.P,J1,5*
G04 #@! TO.N,GND*
X117575000Y-113950000D03*
D14*
G04 #@! TO.P,J1,6*
X112550000Y-114000000D03*
X120000000Y-114000000D03*
D15*
X112400000Y-117800000D03*
X120150000Y-117800000D03*
G04 #@! TD*
D16*
G04 #@! TO.P,J2,5*
G04 #@! TO.N,/NRST*
X118160000Y-86000000D03*
G04 #@! TO.P,J2,4*
G04 #@! TO.N,/SWDIO*
X115620000Y-86000000D03*
G04 #@! TO.P,J2,3*
G04 #@! TO.N,GND*
X113080000Y-86000000D03*
G04 #@! TO.P,J2,2*
G04 #@! TO.N,/SWCLK*
X110540000Y-86000000D03*
D17*
G04 #@! TO.P,J2,1*
G04 #@! TO.N,+3V3*
X108000000Y-86000000D03*
G04 #@! TD*
D10*
G04 #@! TO.N,Net-(R1-Pad2)*
G04 #@! TO.C,R1*
G36*
X120474505Y-110451204D02*
X120498773Y-110454804D01*
X120522572Y-110460765D01*
X120545671Y-110469030D01*
X120567850Y-110479520D01*
X120588893Y-110492132D01*
X120608599Y-110506747D01*
X120626777Y-110523223D01*
X120643253Y-110541401D01*
X120657868Y-110561107D01*
X120670480Y-110582150D01*
X120680970Y-110604329D01*
X120689235Y-110627428D01*
X120695196Y-110651227D01*
X120698796Y-110675495D01*
X120700000Y-110699999D01*
X120700000Y-111350001D01*
X120698796Y-111374505D01*
X120695196Y-111398773D01*
X120689235Y-111422572D01*
X120680970Y-111445671D01*
X120670480Y-111467850D01*
X120657868Y-111488893D01*
X120643253Y-111508599D01*
X120626777Y-111526777D01*
X120608599Y-111543253D01*
X120588893Y-111557868D01*
X120567850Y-111570480D01*
X120545671Y-111580970D01*
X120522572Y-111589235D01*
X120498773Y-111595196D01*
X120474505Y-111598796D01*
X120450001Y-111600000D01*
X119549999Y-111600000D01*
X119525495Y-111598796D01*
X119501227Y-111595196D01*
X119477428Y-111589235D01*
X119454329Y-111580970D01*
X119432150Y-111570480D01*
X119411107Y-111557868D01*
X119391401Y-111543253D01*
X119373223Y-111526777D01*
X119356747Y-111508599D01*
X119342132Y-111488893D01*
X119329520Y-111467850D01*
X119319030Y-111445671D01*
X119310765Y-111422572D01*
X119304804Y-111398773D01*
X119301204Y-111374505D01*
X119300000Y-111350001D01*
X119300000Y-110699999D01*
X119301204Y-110675495D01*
X119304804Y-110651227D01*
X119310765Y-110627428D01*
X119319030Y-110604329D01*
X119329520Y-110582150D01*
X119342132Y-110561107D01*
X119356747Y-110541401D01*
X119373223Y-110523223D01*
X119391401Y-110506747D01*
X119411107Y-110492132D01*
X119432150Y-110479520D01*
X119454329Y-110469030D01*
X119477428Y-110460765D01*
X119501227Y-110454804D01*
X119525495Y-110451204D01*
X119549999Y-110450000D01*
X120450001Y-110450000D01*
X120474505Y-110451204D01*
X120474505Y-110451204D01*
G37*
D11*
G04 #@! TD*
G04 #@! TO.P,R1,2*
G04 #@! TO.N,Net-(R1-Pad2)*
X120000000Y-111025000D03*
D10*
G04 #@! TO.N,+3V3*
G04 #@! TO.C,R1*
G36*
X120474505Y-108401204D02*
X120498773Y-108404804D01*
X120522572Y-108410765D01*
X120545671Y-108419030D01*
X120567850Y-108429520D01*
X120588893Y-108442132D01*
X120608599Y-108456747D01*
X120626777Y-108473223D01*
X120643253Y-108491401D01*
X120657868Y-108511107D01*
X120670480Y-108532150D01*
X120680970Y-108554329D01*
X120689235Y-108577428D01*
X120695196Y-108601227D01*
X120698796Y-108625495D01*
X120700000Y-108649999D01*
X120700000Y-109300001D01*
X120698796Y-109324505D01*
X120695196Y-109348773D01*
X120689235Y-109372572D01*
X120680970Y-109395671D01*
X120670480Y-109417850D01*
X120657868Y-109438893D01*
X120643253Y-109458599D01*
X120626777Y-109476777D01*
X120608599Y-109493253D01*
X120588893Y-109507868D01*
X120567850Y-109520480D01*
X120545671Y-109530970D01*
X120522572Y-109539235D01*
X120498773Y-109545196D01*
X120474505Y-109548796D01*
X120450001Y-109550000D01*
X119549999Y-109550000D01*
X119525495Y-109548796D01*
X119501227Y-109545196D01*
X119477428Y-109539235D01*
X119454329Y-109530970D01*
X119432150Y-109520480D01*
X119411107Y-109507868D01*
X119391401Y-109493253D01*
X119373223Y-109476777D01*
X119356747Y-109458599D01*
X119342132Y-109438893D01*
X119329520Y-109417850D01*
X119319030Y-109395671D01*
X119310765Y-109372572D01*
X119304804Y-109348773D01*
X119301204Y-109324505D01*
X119300000Y-109300001D01*
X119300000Y-108649999D01*
X119301204Y-108625495D01*
X119304804Y-108601227D01*
X119310765Y-108577428D01*
X119319030Y-108554329D01*
X119329520Y-108532150D01*
X119342132Y-108511107D01*
X119356747Y-108491401D01*
X119373223Y-108473223D01*
X119391401Y-108456747D01*
X119411107Y-108442132D01*
X119432150Y-108429520D01*
X119454329Y-108419030D01*
X119477428Y-108410765D01*
X119501227Y-108404804D01*
X119525495Y-108401204D01*
X119549999Y-108400000D01*
X120450001Y-108400000D01*
X120474505Y-108401204D01*
X120474505Y-108401204D01*
G37*
D11*
G04 #@! TD*
G04 #@! TO.P,R1,1*
G04 #@! TO.N,+3V3*
X120000000Y-108975000D03*
D10*
G04 #@! TO.N,Net-(R1-Pad2)*
G04 #@! TO.C,R2*
G36*
X118474505Y-108401204D02*
X118498773Y-108404804D01*
X118522572Y-108410765D01*
X118545671Y-108419030D01*
X118567850Y-108429520D01*
X118588893Y-108442132D01*
X118608599Y-108456747D01*
X118626777Y-108473223D01*
X118643253Y-108491401D01*
X118657868Y-108511107D01*
X118670480Y-108532150D01*
X118680970Y-108554329D01*
X118689235Y-108577428D01*
X118695196Y-108601227D01*
X118698796Y-108625495D01*
X118700000Y-108649999D01*
X118700000Y-109300001D01*
X118698796Y-109324505D01*
X118695196Y-109348773D01*
X118689235Y-109372572D01*
X118680970Y-109395671D01*
X118670480Y-109417850D01*
X118657868Y-109438893D01*
X118643253Y-109458599D01*
X118626777Y-109476777D01*
X118608599Y-109493253D01*
X118588893Y-109507868D01*
X118567850Y-109520480D01*
X118545671Y-109530970D01*
X118522572Y-109539235D01*
X118498773Y-109545196D01*
X118474505Y-109548796D01*
X118450001Y-109550000D01*
X117549999Y-109550000D01*
X117525495Y-109548796D01*
X117501227Y-109545196D01*
X117477428Y-109539235D01*
X117454329Y-109530970D01*
X117432150Y-109520480D01*
X117411107Y-109507868D01*
X117391401Y-109493253D01*
X117373223Y-109476777D01*
X117356747Y-109458599D01*
X117342132Y-109438893D01*
X117329520Y-109417850D01*
X117319030Y-109395671D01*
X117310765Y-109372572D01*
X117304804Y-109348773D01*
X117301204Y-109324505D01*
X117300000Y-109300001D01*
X117300000Y-108649999D01*
X117301204Y-108625495D01*
X117304804Y-108601227D01*
X117310765Y-108577428D01*
X117319030Y-108554329D01*
X117329520Y-108532150D01*
X117342132Y-108511107D01*
X117356747Y-108491401D01*
X117373223Y-108473223D01*
X117391401Y-108456747D01*
X117411107Y-108442132D01*
X117432150Y-108429520D01*
X117454329Y-108419030D01*
X117477428Y-108410765D01*
X117501227Y-108404804D01*
X117525495Y-108401204D01*
X117549999Y-108400000D01*
X118450001Y-108400000D01*
X118474505Y-108401204D01*
X118474505Y-108401204D01*
G37*
D11*
G04 #@! TD*
G04 #@! TO.P,R2,1*
G04 #@! TO.N,Net-(R1-Pad2)*
X118000000Y-108975000D03*
D10*
G04 #@! TO.N,Net-(R2-Pad2)*
G04 #@! TO.C,R2*
G36*
X118474505Y-110451204D02*
X118498773Y-110454804D01*
X118522572Y-110460765D01*
X118545671Y-110469030D01*
X118567850Y-110479520D01*
X118588893Y-110492132D01*
X118608599Y-110506747D01*
X118626777Y-110523223D01*
X118643253Y-110541401D01*
X118657868Y-110561107D01*
X118670480Y-110582150D01*
X118680970Y-110604329D01*
X118689235Y-110627428D01*
X118695196Y-110651227D01*
X118698796Y-110675495D01*
X118700000Y-110699999D01*
X118700000Y-111350001D01*
X118698796Y-111374505D01*
X118695196Y-111398773D01*
X118689235Y-111422572D01*
X118680970Y-111445671D01*
X118670480Y-111467850D01*
X118657868Y-111488893D01*
X118643253Y-111508599D01*
X118626777Y-111526777D01*
X118608599Y-111543253D01*
X118588893Y-111557868D01*
X118567850Y-111570480D01*
X118545671Y-111580970D01*
X118522572Y-111589235D01*
X118498773Y-111595196D01*
X118474505Y-111598796D01*
X118450001Y-111600000D01*
X117549999Y-111600000D01*
X117525495Y-111598796D01*
X117501227Y-111595196D01*
X117477428Y-111589235D01*
X117454329Y-111580970D01*
X117432150Y-111570480D01*
X117411107Y-111557868D01*
X117391401Y-111543253D01*
X117373223Y-111526777D01*
X117356747Y-111508599D01*
X117342132Y-111488893D01*
X117329520Y-111467850D01*
X117319030Y-111445671D01*
X117310765Y-111422572D01*
X117304804Y-111398773D01*
X117301204Y-111374505D01*
X117300000Y-111350001D01*
X117300000Y-110699999D01*
X117301204Y-110675495D01*
X117304804Y-110651227D01*
X117310765Y-110627428D01*
X117319030Y-110604329D01*
X117329520Y-110582150D01*
X117342132Y-110561107D01*
X117356747Y-110541401D01*
X117373223Y-110523223D01*
X117391401Y-110506747D01*
X117411107Y-110492132D01*
X117432150Y-110479520D01*
X117454329Y-110469030D01*
X117477428Y-110460765D01*
X117501227Y-110454804D01*
X117525495Y-110451204D01*
X117549999Y-110450000D01*
X118450001Y-110450000D01*
X118474505Y-110451204D01*
X118474505Y-110451204D01*
G37*
D11*
G04 #@! TD*
G04 #@! TO.P,R2,2*
G04 #@! TO.N,Net-(R2-Pad2)*
X118000000Y-111025000D03*
D10*
G04 #@! TO.N,GND*
G04 #@! TO.C,R3*
G36*
X116474505Y-108401204D02*
X116498773Y-108404804D01*
X116522572Y-108410765D01*
X116545671Y-108419030D01*
X116567850Y-108429520D01*
X116588893Y-108442132D01*
X116608599Y-108456747D01*
X116626777Y-108473223D01*
X116643253Y-108491401D01*
X116657868Y-108511107D01*
X116670480Y-108532150D01*
X116680970Y-108554329D01*
X116689235Y-108577428D01*
X116695196Y-108601227D01*
X116698796Y-108625495D01*
X116700000Y-108649999D01*
X116700000Y-109300001D01*
X116698796Y-109324505D01*
X116695196Y-109348773D01*
X116689235Y-109372572D01*
X116680970Y-109395671D01*
X116670480Y-109417850D01*
X116657868Y-109438893D01*
X116643253Y-109458599D01*
X116626777Y-109476777D01*
X116608599Y-109493253D01*
X116588893Y-109507868D01*
X116567850Y-109520480D01*
X116545671Y-109530970D01*
X116522572Y-109539235D01*
X116498773Y-109545196D01*
X116474505Y-109548796D01*
X116450001Y-109550000D01*
X115549999Y-109550000D01*
X115525495Y-109548796D01*
X115501227Y-109545196D01*
X115477428Y-109539235D01*
X115454329Y-109530970D01*
X115432150Y-109520480D01*
X115411107Y-109507868D01*
X115391401Y-109493253D01*
X115373223Y-109476777D01*
X115356747Y-109458599D01*
X115342132Y-109438893D01*
X115329520Y-109417850D01*
X115319030Y-109395671D01*
X115310765Y-109372572D01*
X115304804Y-109348773D01*
X115301204Y-109324505D01*
X115300000Y-109300001D01*
X115300000Y-108649999D01*
X115301204Y-108625495D01*
X115304804Y-108601227D01*
X115310765Y-108577428D01*
X115319030Y-108554329D01*
X115329520Y-108532150D01*
X115342132Y-108511107D01*
X115356747Y-108491401D01*
X115373223Y-108473223D01*
X115391401Y-108456747D01*
X115411107Y-108442132D01*
X115432150Y-108429520D01*
X115454329Y-108419030D01*
X115477428Y-108410765D01*
X115501227Y-108404804D01*
X115525495Y-108401204D01*
X115549999Y-108400000D01*
X116450001Y-108400000D01*
X116474505Y-108401204D01*
X116474505Y-108401204D01*
G37*
D11*
G04 #@! TD*
G04 #@! TO.P,R3,2*
G04 #@! TO.N,GND*
X116000000Y-108975000D03*
D10*
G04 #@! TO.N,Net-(R2-Pad2)*
G04 #@! TO.C,R3*
G36*
X116474505Y-110451204D02*
X116498773Y-110454804D01*
X116522572Y-110460765D01*
X116545671Y-110469030D01*
X116567850Y-110479520D01*
X116588893Y-110492132D01*
X116608599Y-110506747D01*
X116626777Y-110523223D01*
X116643253Y-110541401D01*
X116657868Y-110561107D01*
X116670480Y-110582150D01*
X116680970Y-110604329D01*
X116689235Y-110627428D01*
X116695196Y-110651227D01*
X116698796Y-110675495D01*
X116700000Y-110699999D01*
X116700000Y-111350001D01*
X116698796Y-111374505D01*
X116695196Y-111398773D01*
X116689235Y-111422572D01*
X116680970Y-111445671D01*
X116670480Y-111467850D01*
X116657868Y-111488893D01*
X116643253Y-111508599D01*
X116626777Y-111526777D01*
X116608599Y-111543253D01*
X116588893Y-111557868D01*
X116567850Y-111570480D01*
X116545671Y-111580970D01*
X116522572Y-111589235D01*
X116498773Y-111595196D01*
X116474505Y-111598796D01*
X116450001Y-111600000D01*
X115549999Y-111600000D01*
X115525495Y-111598796D01*
X115501227Y-111595196D01*
X115477428Y-111589235D01*
X115454329Y-111580970D01*
X115432150Y-111570480D01*
X115411107Y-111557868D01*
X115391401Y-111543253D01*
X115373223Y-111526777D01*
X115356747Y-111508599D01*
X115342132Y-111488893D01*
X115329520Y-111467850D01*
X115319030Y-111445671D01*
X115310765Y-111422572D01*
X115304804Y-111398773D01*
X115301204Y-111374505D01*
X115300000Y-111350001D01*
X115300000Y-110699999D01*
X115301204Y-110675495D01*
X115304804Y-110651227D01*
X115310765Y-110627428D01*
X115319030Y-110604329D01*
X115329520Y-110582150D01*
X115342132Y-110561107D01*
X115356747Y-110541401D01*
X115373223Y-110523223D01*
X115391401Y-110506747D01*
X115411107Y-110492132D01*
X115432150Y-110479520D01*
X115454329Y-110469030D01*
X115477428Y-110460765D01*
X115501227Y-110454804D01*
X115525495Y-110451204D01*
X115549999Y-110450000D01*
X116450001Y-110450000D01*
X116474505Y-110451204D01*
X116474505Y-110451204D01*
G37*
D11*
G04 #@! TD*
G04 #@! TO.P,R3,1*
G04 #@! TO.N,Net-(R2-Pad2)*
X116000000Y-111025000D03*
D10*
G04 #@! TO.N,/NRST*
G04 #@! TO.C,R4*
G36*
X126474505Y-99426204D02*
X126498773Y-99429804D01*
X126522572Y-99435765D01*
X126545671Y-99444030D01*
X126567850Y-99454520D01*
X126588893Y-99467132D01*
X126608599Y-99481747D01*
X126626777Y-99498223D01*
X126643253Y-99516401D01*
X126657868Y-99536107D01*
X126670480Y-99557150D01*
X126680970Y-99579329D01*
X126689235Y-99602428D01*
X126695196Y-99626227D01*
X126698796Y-99650495D01*
X126700000Y-99674999D01*
X126700000Y-100325001D01*
X126698796Y-100349505D01*
X126695196Y-100373773D01*
X126689235Y-100397572D01*
X126680970Y-100420671D01*
X126670480Y-100442850D01*
X126657868Y-100463893D01*
X126643253Y-100483599D01*
X126626777Y-100501777D01*
X126608599Y-100518253D01*
X126588893Y-100532868D01*
X126567850Y-100545480D01*
X126545671Y-100555970D01*
X126522572Y-100564235D01*
X126498773Y-100570196D01*
X126474505Y-100573796D01*
X126450001Y-100575000D01*
X125549999Y-100575000D01*
X125525495Y-100573796D01*
X125501227Y-100570196D01*
X125477428Y-100564235D01*
X125454329Y-100555970D01*
X125432150Y-100545480D01*
X125411107Y-100532868D01*
X125391401Y-100518253D01*
X125373223Y-100501777D01*
X125356747Y-100483599D01*
X125342132Y-100463893D01*
X125329520Y-100442850D01*
X125319030Y-100420671D01*
X125310765Y-100397572D01*
X125304804Y-100373773D01*
X125301204Y-100349505D01*
X125300000Y-100325001D01*
X125300000Y-99674999D01*
X125301204Y-99650495D01*
X125304804Y-99626227D01*
X125310765Y-99602428D01*
X125319030Y-99579329D01*
X125329520Y-99557150D01*
X125342132Y-99536107D01*
X125356747Y-99516401D01*
X125373223Y-99498223D01*
X125391401Y-99481747D01*
X125411107Y-99467132D01*
X125432150Y-99454520D01*
X125454329Y-99444030D01*
X125477428Y-99435765D01*
X125501227Y-99429804D01*
X125525495Y-99426204D01*
X125549999Y-99425000D01*
X126450001Y-99425000D01*
X126474505Y-99426204D01*
X126474505Y-99426204D01*
G37*
D11*
G04 #@! TD*
G04 #@! TO.P,R4,1*
G04 #@! TO.N,/NRST*
X126000000Y-100000000D03*
D10*
G04 #@! TO.N,GND*
G04 #@! TO.C,R4*
G36*
X126474505Y-101476204D02*
X126498773Y-101479804D01*
X126522572Y-101485765D01*
X126545671Y-101494030D01*
X126567850Y-101504520D01*
X126588893Y-101517132D01*
X126608599Y-101531747D01*
X126626777Y-101548223D01*
X126643253Y-101566401D01*
X126657868Y-101586107D01*
X126670480Y-101607150D01*
X126680970Y-101629329D01*
X126689235Y-101652428D01*
X126695196Y-101676227D01*
X126698796Y-101700495D01*
X126700000Y-101724999D01*
X126700000Y-102375001D01*
X126698796Y-102399505D01*
X126695196Y-102423773D01*
X126689235Y-102447572D01*
X126680970Y-102470671D01*
X126670480Y-102492850D01*
X126657868Y-102513893D01*
X126643253Y-102533599D01*
X126626777Y-102551777D01*
X126608599Y-102568253D01*
X126588893Y-102582868D01*
X126567850Y-102595480D01*
X126545671Y-102605970D01*
X126522572Y-102614235D01*
X126498773Y-102620196D01*
X126474505Y-102623796D01*
X126450001Y-102625000D01*
X125549999Y-102625000D01*
X125525495Y-102623796D01*
X125501227Y-102620196D01*
X125477428Y-102614235D01*
X125454329Y-102605970D01*
X125432150Y-102595480D01*
X125411107Y-102582868D01*
X125391401Y-102568253D01*
X125373223Y-102551777D01*
X125356747Y-102533599D01*
X125342132Y-102513893D01*
X125329520Y-102492850D01*
X125319030Y-102470671D01*
X125310765Y-102447572D01*
X125304804Y-102423773D01*
X125301204Y-102399505D01*
X125300000Y-102375001D01*
X125300000Y-101724999D01*
X125301204Y-101700495D01*
X125304804Y-101676227D01*
X125310765Y-101652428D01*
X125319030Y-101629329D01*
X125329520Y-101607150D01*
X125342132Y-101586107D01*
X125356747Y-101566401D01*
X125373223Y-101548223D01*
X125391401Y-101531747D01*
X125411107Y-101517132D01*
X125432150Y-101504520D01*
X125454329Y-101494030D01*
X125477428Y-101485765D01*
X125501227Y-101479804D01*
X125525495Y-101476204D01*
X125549999Y-101475000D01*
X126450001Y-101475000D01*
X126474505Y-101476204D01*
X126474505Y-101476204D01*
G37*
D11*
G04 #@! TD*
G04 #@! TO.P,R4,2*
G04 #@! TO.N,GND*
X126000000Y-102050000D03*
D10*
G04 #@! TO.N,Net-(R5-Pad1)*
G04 #@! TO.C,R5*
G36*
X113474505Y-90476204D02*
X113498773Y-90479804D01*
X113522572Y-90485765D01*
X113545671Y-90494030D01*
X113567850Y-90504520D01*
X113588893Y-90517132D01*
X113608599Y-90531747D01*
X113626777Y-90548223D01*
X113643253Y-90566401D01*
X113657868Y-90586107D01*
X113670480Y-90607150D01*
X113680970Y-90629329D01*
X113689235Y-90652428D01*
X113695196Y-90676227D01*
X113698796Y-90700495D01*
X113700000Y-90724999D01*
X113700000Y-91375001D01*
X113698796Y-91399505D01*
X113695196Y-91423773D01*
X113689235Y-91447572D01*
X113680970Y-91470671D01*
X113670480Y-91492850D01*
X113657868Y-91513893D01*
X113643253Y-91533599D01*
X113626777Y-91551777D01*
X113608599Y-91568253D01*
X113588893Y-91582868D01*
X113567850Y-91595480D01*
X113545671Y-91605970D01*
X113522572Y-91614235D01*
X113498773Y-91620196D01*
X113474505Y-91623796D01*
X113450001Y-91625000D01*
X112549999Y-91625000D01*
X112525495Y-91623796D01*
X112501227Y-91620196D01*
X112477428Y-91614235D01*
X112454329Y-91605970D01*
X112432150Y-91595480D01*
X112411107Y-91582868D01*
X112391401Y-91568253D01*
X112373223Y-91551777D01*
X112356747Y-91533599D01*
X112342132Y-91513893D01*
X112329520Y-91492850D01*
X112319030Y-91470671D01*
X112310765Y-91447572D01*
X112304804Y-91423773D01*
X112301204Y-91399505D01*
X112300000Y-91375001D01*
X112300000Y-90724999D01*
X112301204Y-90700495D01*
X112304804Y-90676227D01*
X112310765Y-90652428D01*
X112319030Y-90629329D01*
X112329520Y-90607150D01*
X112342132Y-90586107D01*
X112356747Y-90566401D01*
X112373223Y-90548223D01*
X112391401Y-90531747D01*
X112411107Y-90517132D01*
X112432150Y-90504520D01*
X112454329Y-90494030D01*
X112477428Y-90485765D01*
X112501227Y-90479804D01*
X112525495Y-90476204D01*
X112549999Y-90475000D01*
X113450001Y-90475000D01*
X113474505Y-90476204D01*
X113474505Y-90476204D01*
G37*
D11*
G04 #@! TD*
G04 #@! TO.P,R5,1*
G04 #@! TO.N,Net-(R5-Pad1)*
X113000000Y-91050000D03*
D10*
G04 #@! TO.N,GND*
G04 #@! TO.C,R5*
G36*
X113474505Y-88426204D02*
X113498773Y-88429804D01*
X113522572Y-88435765D01*
X113545671Y-88444030D01*
X113567850Y-88454520D01*
X113588893Y-88467132D01*
X113608599Y-88481747D01*
X113626777Y-88498223D01*
X113643253Y-88516401D01*
X113657868Y-88536107D01*
X113670480Y-88557150D01*
X113680970Y-88579329D01*
X113689235Y-88602428D01*
X113695196Y-88626227D01*
X113698796Y-88650495D01*
X113700000Y-88674999D01*
X113700000Y-89325001D01*
X113698796Y-89349505D01*
X113695196Y-89373773D01*
X113689235Y-89397572D01*
X113680970Y-89420671D01*
X113670480Y-89442850D01*
X113657868Y-89463893D01*
X113643253Y-89483599D01*
X113626777Y-89501777D01*
X113608599Y-89518253D01*
X113588893Y-89532868D01*
X113567850Y-89545480D01*
X113545671Y-89555970D01*
X113522572Y-89564235D01*
X113498773Y-89570196D01*
X113474505Y-89573796D01*
X113450001Y-89575000D01*
X112549999Y-89575000D01*
X112525495Y-89573796D01*
X112501227Y-89570196D01*
X112477428Y-89564235D01*
X112454329Y-89555970D01*
X112432150Y-89545480D01*
X112411107Y-89532868D01*
X112391401Y-89518253D01*
X112373223Y-89501777D01*
X112356747Y-89483599D01*
X112342132Y-89463893D01*
X112329520Y-89442850D01*
X112319030Y-89420671D01*
X112310765Y-89397572D01*
X112304804Y-89373773D01*
X112301204Y-89349505D01*
X112300000Y-89325001D01*
X112300000Y-88674999D01*
X112301204Y-88650495D01*
X112304804Y-88626227D01*
X112310765Y-88602428D01*
X112319030Y-88579329D01*
X112329520Y-88557150D01*
X112342132Y-88536107D01*
X112356747Y-88516401D01*
X112373223Y-88498223D01*
X112391401Y-88481747D01*
X112411107Y-88467132D01*
X112432150Y-88454520D01*
X112454329Y-88444030D01*
X112477428Y-88435765D01*
X112501227Y-88429804D01*
X112525495Y-88426204D01*
X112549999Y-88425000D01*
X113450001Y-88425000D01*
X113474505Y-88426204D01*
X113474505Y-88426204D01*
G37*
D11*
G04 #@! TD*
G04 #@! TO.P,R5,2*
G04 #@! TO.N,GND*
X113000000Y-89000000D03*
D18*
G04 #@! TO.P,U1,4*
G04 #@! TO.N,+3V3*
X125000000Y-105000000D03*
D19*
G04 #@! TO.P,U1,2*
X125000000Y-111300000D03*
G04 #@! TO.P,U1,3*
G04 #@! TO.N,+5V*
X127300000Y-111300000D03*
G04 #@! TO.P,U1,1*
G04 #@! TO.N,Net-(R1-Pad2)*
X122700000Y-111300000D03*
G04 #@! TD*
D20*
G04 #@! TO.P,U2,41*
G04 #@! TO.N,/SWDIO*
X113200000Y-92900000D03*
G04 #@! TO.P,U2,48*
G04 #@! TO.N,+3V3*
X107600000Y-92900000D03*
G04 #@! TO.P,U2,39*
G04 #@! TO.N,Net-(U2-Pad39)*
X114800000Y-92900000D03*
G04 #@! TO.P,U2,38*
G04 #@! TO.N,Net-(U2-Pad38)*
X115600000Y-92900000D03*
G04 #@! TO.P,U2,46*
G04 #@! TO.N,Net-(U2-Pad46)*
X109200000Y-92900000D03*
G04 #@! TO.P,U2,40*
G04 #@! TO.N,Net-(U2-Pad40)*
X114000000Y-92900000D03*
G04 #@! TO.P,U2,44*
G04 #@! TO.N,GND*
X110800000Y-92900000D03*
G04 #@! TO.P,U2,47*
G04 #@! TO.N,Net-(U2-Pad47)*
X108400000Y-92900000D03*
G04 #@! TO.P,U2,42*
G04 #@! TO.N,/SWCLK*
X112400000Y-92900000D03*
G04 #@! TO.P,U2,45*
G04 #@! TO.N,Net-(U2-Pad45)*
X110000000Y-92900000D03*
G04 #@! TO.P,U2,37*
G04 #@! TO.N,Net-(U2-Pad37)*
X116400000Y-92900000D03*
G04 #@! TO.P,U2,43*
G04 #@! TO.N,Net-(R5-Pad1)*
X111600000Y-92900000D03*
D21*
G04 #@! TO.P,U2,28*
G04 #@! TO.N,Net-(U2-Pad28)*
X119550000Y-102000000D03*
G04 #@! TO.P,U2,29*
G04 #@! TO.N,Net-(U2-Pad29)*
X119550000Y-101200000D03*
G04 #@! TO.P,U2,27*
G04 #@! TO.N,GND*
X119550000Y-102800000D03*
G04 #@! TO.P,U2,33*
G04 #@! TO.N,Net-(U2-Pad33)*
X119550000Y-98000000D03*
G04 #@! TO.P,U2,25*
G04 #@! TO.N,GND*
X119550000Y-104400000D03*
G04 #@! TO.P,U2,30*
G04 #@! TO.N,Net-(U2-Pad30)*
X119550000Y-100400000D03*
G04 #@! TO.P,U2,26*
G04 #@! TO.N,Net-(U2-Pad26)*
X119550000Y-103600000D03*
G04 #@! TO.P,U2,36*
G04 #@! TO.N,Net-(U2-Pad36)*
X119550000Y-95600000D03*
G04 #@! TO.P,U2,32*
G04 #@! TO.N,+3V3*
X119550000Y-98800000D03*
G04 #@! TO.P,U2,31*
G04 #@! TO.N,Net-(U2-Pad31)*
X119550000Y-99600000D03*
G04 #@! TO.P,U2,35*
G04 #@! TO.N,Net-(U2-Pad35)*
X119550000Y-96400000D03*
G04 #@! TO.P,U2,34*
G04 #@! TO.N,/NRST*
X119550000Y-97200000D03*
D20*
G04 #@! TO.P,U2,14*
G04 #@! TO.N,Net-(U2-Pad14)*
X108400000Y-107100000D03*
G04 #@! TO.P,U2,19*
G04 #@! TO.N,Net-(U2-Pad19)*
X112400000Y-107100000D03*
G04 #@! TO.P,U2,22*
G04 #@! TO.N,Net-(U2-Pad22)*
X114800000Y-107100000D03*
G04 #@! TO.P,U2,18*
G04 #@! TO.N,Net-(U2-Pad18)*
X111600000Y-107100000D03*
G04 #@! TO.P,U2,21*
G04 #@! TO.N,Net-(U2-Pad21)*
X114000000Y-107100000D03*
G04 #@! TO.P,U2,20*
G04 #@! TO.N,Net-(U2-Pad20)*
X113200000Y-107100000D03*
G04 #@! TO.P,U2,24*
G04 #@! TO.N,Net-(U2-Pad24)*
X116400000Y-107100000D03*
G04 #@! TO.P,U2,23*
G04 #@! TO.N,Net-(U2-Pad23)*
X115600000Y-107100000D03*
G04 #@! TO.P,U2,16*
G04 #@! TO.N,Net-(U2-Pad16)*
X110000000Y-107100000D03*
G04 #@! TO.P,U2,13*
G04 #@! TO.N,Net-(U2-Pad13)*
X107600000Y-107100000D03*
G04 #@! TO.P,U2,17*
G04 #@! TO.N,Net-(U2-Pad17)*
X110800000Y-107100000D03*
G04 #@! TO.P,U2,15*
G04 #@! TO.N,Net-(U2-Pad15)*
X109200000Y-107100000D03*
D21*
G04 #@! TO.P,U2,6*
G04 #@! TO.N,+3V3*
X104460000Y-99600000D03*
G04 #@! TO.P,U2,7*
G04 #@! TO.N,GND*
X104460000Y-100400000D03*
G04 #@! TO.P,U2,5*
G04 #@! TO.N,+3V3*
X104460000Y-98800000D03*
G04 #@! TO.P,U2,1*
G04 #@! TO.N,Net-(U2-Pad1)*
X104460000Y-95600000D03*
G04 #@! TO.P,U2,8*
G04 #@! TO.N,Net-(U2-Pad8)*
X104460000Y-101200000D03*
G04 #@! TO.P,U2,10*
G04 #@! TO.N,Net-(U2-Pad10)*
X104460000Y-102800000D03*
G04 #@! TO.P,U2,4*
G04 #@! TO.N,+3V3*
X104460000Y-98000000D03*
G04 #@! TO.P,U2,3*
G04 #@! TO.N,GND*
X104460000Y-97200000D03*
G04 #@! TO.P,U2,9*
G04 #@! TO.N,Net-(U2-Pad9)*
X104460000Y-102000000D03*
G04 #@! TO.P,U2,12*
G04 #@! TO.N,Net-(U2-Pad12)*
X104460000Y-104400000D03*
G04 #@! TO.P,U2,2*
G04 #@! TO.N,Net-(U2-Pad2)*
X104460000Y-96400000D03*
G04 #@! TO.P,U2,11*
G04 #@! TO.N,Net-(U2-Pad11)*
X104460000Y-103600000D03*
D22*
G04 #@! TD*
G04 #@! TO.N,Net-(U2-Pad29)*
G04 #@! TO.C,U2*
X118550000Y-101200000D03*
G04 #@! TO.N,Net-(U2-Pad28)*
G04 #@! TO.C,U2*
X118550000Y-102000000D03*
G04 #@! TO.N,Net-(U2-Pad31)*
X118550000Y-99600000D03*
G04 #@! TO.N,Net-(U2-Pad30)*
X118550000Y-100400000D03*
G04 #@! TO.N,Net-(U2-Pad35)*
X118550000Y-96400000D03*
G04 #@! TO.N,/NRST*
X118550000Y-97200000D03*
G04 #@! TO.N,Net-(U2-Pad33)*
X118550000Y-98000000D03*
G04 #@! TO.N,+3V3*
X118550000Y-98800000D03*
G04 #@! TO.N,Net-(U2-Pad36)*
X118550000Y-95600000D03*
G04 #@! TO.N,Net-(U2-Pad26)*
X118550000Y-103600000D03*
G04 #@! TO.N,GND*
X118550000Y-104400000D03*
X118550000Y-102800000D03*
D23*
G04 #@! TO.N,/SWDIO*
X113200000Y-93900000D03*
G04 #@! TO.N,Net-(U2-Pad40)*
X114000000Y-93900000D03*
G04 #@! TO.N,Net-(R5-Pad1)*
X111600000Y-93900000D03*
G04 #@! TO.N,/SWCLK*
X112400000Y-93900000D03*
G04 #@! TO.N,Net-(U2-Pad47)*
X108400000Y-93900000D03*
G04 #@! TO.N,Net-(U2-Pad46)*
X109200000Y-93900000D03*
G04 #@! TO.N,Net-(U2-Pad45)*
X110000000Y-93900000D03*
G04 #@! TO.N,GND*
X110800000Y-93900000D03*
G04 #@! TO.N,+3V3*
X107600000Y-93900000D03*
G04 #@! TO.N,Net-(U2-Pad38)*
X115600000Y-93900000D03*
G04 #@! TO.N,Net-(U2-Pad37)*
X116400000Y-93900000D03*
G04 #@! TO.N,Net-(U2-Pad39)*
X114800000Y-93900000D03*
G04 #@! TO.N,Net-(U2-Pad20)*
X113200000Y-106100000D03*
G04 #@! TO.N,Net-(U2-Pad21)*
X114000000Y-106100000D03*
G04 #@! TO.N,Net-(U2-Pad18)*
X111600000Y-106100000D03*
G04 #@! TO.N,Net-(U2-Pad19)*
X112400000Y-106100000D03*
G04 #@! TO.N,Net-(U2-Pad14)*
X108400000Y-106100000D03*
G04 #@! TO.N,Net-(U2-Pad15)*
X109200000Y-106100000D03*
G04 #@! TO.N,Net-(U2-Pad16)*
X110000000Y-106100000D03*
G04 #@! TO.N,Net-(U2-Pad17)*
X110800000Y-106100000D03*
G04 #@! TO.N,Net-(U2-Pad13)*
X107600000Y-106100000D03*
G04 #@! TO.N,Net-(U2-Pad23)*
X115600000Y-106100000D03*
G04 #@! TO.N,Net-(U2-Pad24)*
X116400000Y-106100000D03*
G04 #@! TO.N,Net-(U2-Pad22)*
X114800000Y-106100000D03*
D22*
G04 #@! TO.N,Net-(U2-Pad12)*
X105450000Y-104400000D03*
G04 #@! TO.N,Net-(U2-Pad11)*
X105450000Y-103600000D03*
G04 #@! TO.N,Net-(U2-Pad10)*
X105460000Y-102800000D03*
G04 #@! TO.N,Net-(U2-Pad9)*
X105460000Y-102000000D03*
G04 #@! TO.N,Net-(U2-Pad8)*
X105460000Y-101200000D03*
G04 #@! TO.N,GND*
X105450000Y-100400000D03*
G04 #@! TO.N,+3V3*
X105470000Y-99600000D03*
X105450000Y-98800000D03*
X105450000Y-98000000D03*
G04 #@! TO.N,GND*
X105470000Y-97200000D03*
G04 #@! TO.N,Net-(U2-Pad2)*
X105450000Y-96400000D03*
G04 #@! TO.N,Net-(U2-Pad1)*
X105450000Y-95600000D03*
D24*
G04 #@! TD*
G04 #@! TO.P,U2,38*
G04 #@! TO.N,Net-(U2-Pad38)*
X115600000Y-94800000D03*
D25*
G04 #@! TO.P,U2,26*
G04 #@! TO.N,Net-(U2-Pad26)*
X117650000Y-103600000D03*
G04 #@! TO.P,U2,25*
G04 #@! TO.N,GND*
X117650000Y-104400000D03*
D24*
G04 #@! TO.P,U2,24*
G04 #@! TO.N,Net-(U2-Pad24)*
X116400000Y-105200000D03*
G04 #@! TO.P,U2,23*
G04 #@! TO.N,Net-(U2-Pad23)*
X115600000Y-105200000D03*
G04 #@! TO.P,U2,22*
G04 #@! TO.N,Net-(U2-Pad22)*
X114800000Y-105200000D03*
G04 #@! TO.P,U2,21*
G04 #@! TO.N,Net-(U2-Pad21)*
X114000000Y-105200000D03*
G04 #@! TO.P,U2,20*
G04 #@! TO.N,Net-(U2-Pad20)*
X113200000Y-105200000D03*
G04 #@! TO.P,U2,19*
G04 #@! TO.N,Net-(U2-Pad19)*
X112400000Y-105200000D03*
G04 #@! TO.P,U2,18*
G04 #@! TO.N,Net-(U2-Pad18)*
X111600000Y-105200000D03*
G04 #@! TO.P,U2,17*
G04 #@! TO.N,Net-(U2-Pad17)*
X110800000Y-105200000D03*
G04 #@! TO.P,U2,16*
G04 #@! TO.N,Net-(U2-Pad16)*
X110000000Y-105200000D03*
G04 #@! TO.P,U2,15*
G04 #@! TO.N,Net-(U2-Pad15)*
X109200000Y-105200000D03*
G04 #@! TO.P,U2,14*
G04 #@! TO.N,Net-(U2-Pad14)*
X108400000Y-105200000D03*
G04 #@! TO.P,U2,13*
G04 #@! TO.N,Net-(U2-Pad13)*
X107600000Y-105200000D03*
D25*
G04 #@! TO.P,U2,12*
G04 #@! TO.N,Net-(U2-Pad12)*
X106350000Y-104400000D03*
D24*
G04 #@! TO.P,U2,41*
G04 #@! TO.N,/SWDIO*
X113200000Y-94800000D03*
G04 #@! TO.P,U2,40*
G04 #@! TO.N,Net-(U2-Pad40)*
X114000000Y-94800000D03*
G04 #@! TO.P,U2,39*
G04 #@! TO.N,Net-(U2-Pad39)*
X114800000Y-94800000D03*
G04 #@! TO.P,U2,37*
G04 #@! TO.N,Net-(U2-Pad37)*
X116400000Y-94800000D03*
D25*
G04 #@! TO.P,U2,36*
G04 #@! TO.N,Net-(U2-Pad36)*
X117650000Y-95600000D03*
G04 #@! TO.P,U2,35*
G04 #@! TO.N,Net-(U2-Pad35)*
X117650000Y-96400000D03*
G04 #@! TO.P,U2,34*
G04 #@! TO.N,/NRST*
X117650000Y-97200000D03*
G04 #@! TO.P,U2,33*
G04 #@! TO.N,Net-(U2-Pad33)*
X117650000Y-98000000D03*
G04 #@! TO.P,U2,32*
G04 #@! TO.N,+3V3*
X117650000Y-98800000D03*
G04 #@! TO.P,U2,31*
G04 #@! TO.N,Net-(U2-Pad31)*
X117650000Y-99600000D03*
G04 #@! TO.P,U2,30*
G04 #@! TO.N,Net-(U2-Pad30)*
X117650000Y-100400000D03*
G04 #@! TO.P,U2,29*
G04 #@! TO.N,Net-(U2-Pad29)*
X117650000Y-101200000D03*
G04 #@! TO.P,U2,28*
G04 #@! TO.N,Net-(U2-Pad28)*
X117650000Y-102000000D03*
G04 #@! TO.P,U2,27*
G04 #@! TO.N,GND*
X117650000Y-102800000D03*
G04 #@! TO.P,U2,11*
G04 #@! TO.N,Net-(U2-Pad11)*
X106350000Y-103600000D03*
G04 #@! TO.P,U2,10*
G04 #@! TO.N,Net-(U2-Pad10)*
X106350000Y-102800000D03*
G04 #@! TO.P,U2,9*
G04 #@! TO.N,Net-(U2-Pad9)*
X106350000Y-102000000D03*
G04 #@! TO.P,U2,8*
G04 #@! TO.N,Net-(U2-Pad8)*
X106350000Y-101200000D03*
G04 #@! TO.P,U2,7*
G04 #@! TO.N,GND*
X106350000Y-100400000D03*
G04 #@! TO.P,U2,6*
G04 #@! TO.N,+3V3*
X106350000Y-99600000D03*
G04 #@! TO.P,U2,5*
X106350000Y-98800000D03*
G04 #@! TO.P,U2,4*
X106350000Y-98000000D03*
G04 #@! TO.P,U2,3*
G04 #@! TO.N,GND*
X106350000Y-97200000D03*
G04 #@! TO.P,U2,2*
G04 #@! TO.N,Net-(U2-Pad2)*
X106350000Y-96400000D03*
G04 #@! TO.P,U2,1*
G04 #@! TO.N,Net-(U2-Pad1)*
X106350000Y-95600000D03*
D24*
G04 #@! TO.P,U2,42*
G04 #@! TO.N,/SWCLK*
X112400000Y-94800000D03*
G04 #@! TO.P,U2,43*
G04 #@! TO.N,Net-(R5-Pad1)*
X111600000Y-94800000D03*
G04 #@! TO.P,U2,44*
G04 #@! TO.N,GND*
X110800000Y-94800000D03*
G04 #@! TO.P,U2,45*
G04 #@! TO.N,Net-(U2-Pad45)*
X110000000Y-94800000D03*
G04 #@! TO.P,U2,46*
G04 #@! TO.N,Net-(U2-Pad46)*
X109200000Y-94800000D03*
G04 #@! TO.P,U2,47*
G04 #@! TO.N,Net-(U2-Pad47)*
X108400000Y-94800000D03*
G04 #@! TO.P,U2,48*
G04 #@! TO.N,+3V3*
X107600000Y-94800000D03*
D26*
G04 #@! TO.P,U2,49*
G04 #@! TO.N,GND*
X109500000Y-97500000D03*
G04 #@! TO.P,U2,50*
X112000000Y-97500000D03*
G04 #@! TO.P,U2,51*
X114500000Y-97500000D03*
G04 #@! TO.P,U2,52*
X109500000Y-100000000D03*
G04 #@! TO.P,U2,53*
X112000000Y-100000000D03*
G04 #@! TO.P,U2,54*
X114500000Y-100000000D03*
G04 #@! TO.P,U2,55*
X109500000Y-102500000D03*
G04 #@! TO.P,U2,56*
X112000000Y-102500000D03*
G04 #@! TO.P,U2,57*
X114500000Y-102500000D03*
G04 #@! TD*
D27*
G04 #@! TO.N,+5V*
X114100000Y-111900000D03*
X123000000Y-113600000D03*
G04 #@! TO.N,+3V3*
X124900000Y-113600000D03*
X120100000Y-107300000D03*
X122000000Y-98300000D03*
X107700000Y-98900000D03*
X106200000Y-91000000D03*
G04 #@! TO.N,Net-(R5-Pad1)*
X111300000Y-89800000D03*
X111343942Y-91756058D03*
G04 #@! TD*
D28*
G04 #@! TO.N,GND*
X106350000Y-100400000D02*
X104460000Y-100400000D01*
X110800000Y-92900000D02*
X110800000Y-94800000D01*
X102225000Y-97200000D02*
X102000000Y-96975000D01*
X114800000Y-102800000D02*
X114500000Y-102500000D01*
X107000000Y-100400000D02*
X106350000Y-100400000D01*
X124025000Y-102050000D02*
X124000000Y-102025000D01*
X120150000Y-117475000D02*
X120150000Y-117800000D01*
X120000000Y-117650000D02*
X120150000Y-117800000D01*
X112550000Y-117650000D02*
X112400000Y-117800000D01*
X117625000Y-114000000D02*
X117575000Y-113950000D01*
X125025000Y-117250000D02*
X125000000Y-117225000D01*
X120725000Y-117225000D02*
X120150000Y-117800000D01*
X117575000Y-113950000D02*
X117575000Y-113700000D01*
X115975000Y-109000000D02*
X116000000Y-108975000D01*
X126000000Y-102050000D02*
X126000000Y-102300000D01*
X113000000Y-86080000D02*
X113080000Y-86000000D01*
X109600000Y-90575000D02*
X110025000Y-91000000D01*
X129000000Y-99375000D02*
X129000000Y-100225000D01*
X126800000Y-102050000D02*
X126000000Y-102050000D01*
X126623372Y-101426628D02*
X127473372Y-101426628D01*
X126000000Y-102050000D02*
X126623372Y-101426628D01*
X119550000Y-104400000D02*
X117650000Y-104400000D01*
X119550000Y-102800000D02*
X117650000Y-102800000D01*
X117650000Y-102800000D02*
X116600000Y-102800000D01*
X117000000Y-102800000D02*
X117650000Y-102800000D01*
X116974999Y-102825001D02*
X117000000Y-102800000D01*
X116974999Y-104374999D02*
X116974999Y-102825001D01*
X117000000Y-104400000D02*
X116974999Y-104374999D01*
X117650000Y-104400000D02*
X117000000Y-104400000D01*
X110800000Y-94800000D02*
X110800000Y-95800000D01*
X110648372Y-91623372D02*
X110025000Y-91000000D01*
X110668941Y-91643941D02*
X110648372Y-91623372D01*
X110668941Y-92768941D02*
X110668941Y-91643941D01*
X110800000Y-92900000D02*
X110668941Y-92768941D01*
X104460000Y-97200000D02*
X103500000Y-97200000D01*
X106350000Y-97200000D02*
X104460000Y-97200000D01*
G04 #@! TO.N,+5V*
X114975000Y-113950000D02*
X114975000Y-112775000D01*
X114975000Y-112775000D02*
X114100000Y-111900000D01*
X123000000Y-113600000D02*
X123000000Y-115175000D01*
X123000000Y-115175000D02*
X125000000Y-115175000D01*
X126175000Y-114000000D02*
X125000000Y-115175000D01*
X128000000Y-114000000D02*
X126175000Y-114000000D01*
X127300000Y-113300000D02*
X128000000Y-114000000D01*
X127300000Y-111300000D02*
X127300000Y-113300000D01*
G04 #@! TO.N,+3V3*
X119550000Y-98800000D02*
X117650000Y-98800000D01*
X104460000Y-99600000D02*
X106350000Y-99600000D01*
X106350000Y-98800000D02*
X104460000Y-98800000D01*
X106350000Y-98000000D02*
X104460000Y-98000000D01*
X98000000Y-99025000D02*
X102000000Y-99025000D01*
X104235000Y-99025000D02*
X104460000Y-98800000D01*
X102000000Y-99025000D02*
X104235000Y-99025000D01*
X104460000Y-98800000D02*
X104460000Y-99600000D01*
X104460000Y-98000000D02*
X104460000Y-98800000D01*
X126625000Y-105000000D02*
X125000000Y-105000000D01*
X129000000Y-102625000D02*
X126625000Y-105000000D01*
X129375000Y-103000000D02*
X129000000Y-102625000D01*
X132000000Y-103000000D02*
X129375000Y-103000000D01*
X131000000Y-104000000D02*
X132000000Y-103000000D01*
X131000000Y-107975000D02*
X131000000Y-104000000D01*
X125000000Y-111300000D02*
X125000000Y-113500000D01*
X125000000Y-113500000D02*
X124900000Y-113600000D01*
X120100000Y-108875000D02*
X120000000Y-108975000D01*
X120100000Y-107300000D02*
X120100000Y-108875000D01*
X122850000Y-105000000D02*
X125000000Y-105000000D01*
X121834315Y-105000000D02*
X122850000Y-105000000D01*
X120100000Y-106734315D02*
X121834315Y-105000000D01*
X120100000Y-107300000D02*
X120100000Y-106734315D01*
X124000000Y-99975000D02*
X122000000Y-99975000D01*
X120825000Y-98800000D02*
X119550000Y-98800000D01*
X122000000Y-99975000D02*
X120825000Y-98800000D01*
X122000000Y-99975000D02*
X122000000Y-98300000D01*
X106450000Y-98900000D02*
X106350000Y-98800000D01*
X107700000Y-98900000D02*
X106450000Y-98900000D01*
X106350000Y-98000000D02*
X106350000Y-98800000D01*
X107975000Y-91000000D02*
X106200000Y-91000000D01*
X107600000Y-91375000D02*
X107975000Y-91000000D01*
X107600000Y-92900000D02*
X107600000Y-91375000D01*
X107600000Y-92900000D02*
X107600000Y-94800000D01*
X108000000Y-90975000D02*
X107975000Y-91000000D01*
X108000000Y-86000000D02*
X108000000Y-90975000D01*
D29*
G04 #@! TO.N,/SWCLK*
X112400000Y-92900000D02*
X112400000Y-94800000D01*
X110540000Y-87202081D02*
X110540000Y-86000000D01*
X110540000Y-90068232D02*
X110540000Y-87202081D01*
X112400000Y-91928232D02*
X110540000Y-90068232D01*
X112400000Y-92900000D02*
X112400000Y-91928232D01*
G04 #@! TO.N,/SWDIO*
X113200000Y-92900000D02*
X113200000Y-94800000D01*
X115620000Y-87202081D02*
X115620000Y-86000000D01*
X115620000Y-89876768D02*
X115620000Y-87202081D01*
X113200000Y-92296768D02*
X115620000Y-89876768D01*
X113200000Y-92900000D02*
X113200000Y-92296768D01*
G04 #@! TO.N,/NRST*
X119550000Y-97200000D02*
X117650000Y-97200000D01*
X118160000Y-86000000D02*
X118160000Y-92160000D01*
X118160000Y-92160000D02*
X125900000Y-99900000D01*
X123200000Y-97200000D02*
X126000000Y-100000000D01*
X119550000Y-97200000D02*
X123200000Y-97200000D01*
G04 #@! TO.N,Net-(R1-Pad2)*
X120275000Y-111300000D02*
X120000000Y-111025000D01*
X122700000Y-111300000D02*
X120275000Y-111300000D01*
X118000000Y-109025000D02*
X118000000Y-108975000D01*
X120000000Y-111025000D02*
X118000000Y-109025000D01*
G04 #@! TO.N,Net-(R2-Pad2)*
X118000000Y-111025000D02*
X116000000Y-111025000D01*
G04 #@! TO.N,Net-(R5-Pad1)*
X111600000Y-92900000D02*
X111600000Y-94800000D01*
X113000000Y-91050000D02*
X111750000Y-89800000D01*
X111750000Y-89800000D02*
X111300000Y-89800000D01*
X111343942Y-92643942D02*
X111600000Y-92900000D01*
X111343942Y-91756058D02*
X111343942Y-92643942D01*
G04 #@! TO.N,Net-(U2-Pad39)*
X114800000Y-92900000D02*
X114800000Y-94800000D01*
G04 #@! TO.N,Net-(U2-Pad38)*
X115600000Y-92900000D02*
X115600000Y-94800000D01*
G04 #@! TO.N,Net-(U2-Pad46)*
X109200000Y-92900000D02*
X109200000Y-94800000D01*
G04 #@! TO.N,Net-(U2-Pad40)*
X114000000Y-92900000D02*
X114000000Y-94800000D01*
G04 #@! TO.N,Net-(U2-Pad47)*
X108400000Y-92900000D02*
X108400000Y-94800000D01*
G04 #@! TO.N,Net-(U2-Pad45)*
X110000000Y-92900000D02*
X110000000Y-94800000D01*
G04 #@! TO.N,Net-(U2-Pad37)*
X116400000Y-92900000D02*
X116400000Y-94800000D01*
G04 #@! TO.N,Net-(U2-Pad28)*
X119550000Y-102000000D02*
X117650000Y-102000000D01*
G04 #@! TO.N,Net-(U2-Pad29)*
X119550000Y-101200000D02*
X117650000Y-101200000D01*
G04 #@! TO.N,Net-(U2-Pad33)*
X119550000Y-98000000D02*
X117650000Y-98000000D01*
G04 #@! TO.N,Net-(U2-Pad30)*
X119550000Y-100400000D02*
X117650000Y-100400000D01*
G04 #@! TO.N,Net-(U2-Pad26)*
X119550000Y-103600000D02*
X117650000Y-103600000D01*
G04 #@! TO.N,Net-(U2-Pad36)*
X118900000Y-95600000D02*
X117650000Y-95600000D01*
X119550000Y-95600000D02*
X118900000Y-95600000D01*
G04 #@! TO.N,Net-(U2-Pad31)*
X119550000Y-99600000D02*
X117650000Y-99600000D01*
G04 #@! TO.N,Net-(U2-Pad35)*
X119550000Y-96400000D02*
X117650000Y-96400000D01*
G04 #@! TO.N,Net-(U2-Pad14)*
X108400000Y-105200000D02*
X108400000Y-107100000D01*
G04 #@! TO.N,Net-(U2-Pad19)*
X112400000Y-105200000D02*
X112400000Y-107100000D01*
G04 #@! TO.N,Net-(U2-Pad22)*
X114800000Y-105200000D02*
X114800000Y-107100000D01*
G04 #@! TO.N,Net-(U2-Pad18)*
X111600000Y-105200000D02*
X111600000Y-107100000D01*
G04 #@! TO.N,Net-(U2-Pad21)*
X114000000Y-105200000D02*
X114000000Y-107100000D01*
G04 #@! TO.N,Net-(U2-Pad20)*
X113200000Y-105200000D02*
X113200000Y-107100000D01*
G04 #@! TO.N,Net-(U2-Pad24)*
X116400000Y-105200000D02*
X116400000Y-107100000D01*
G04 #@! TO.N,Net-(U2-Pad23)*
X115600000Y-105200000D02*
X115600000Y-107100000D01*
G04 #@! TO.N,Net-(U2-Pad16)*
X110000000Y-105200000D02*
X110000000Y-107100000D01*
G04 #@! TO.N,Net-(U2-Pad13)*
X107600000Y-105200000D02*
X107600000Y-107100000D01*
G04 #@! TO.N,Net-(U2-Pad17)*
X110800000Y-105200000D02*
X110800000Y-107100000D01*
G04 #@! TO.N,Net-(U2-Pad15)*
X109200000Y-105200000D02*
X109200000Y-107100000D01*
G04 #@! TO.N,Net-(U2-Pad1)*
X106350000Y-95600000D02*
X104460000Y-95600000D01*
G04 #@! TO.N,Net-(U2-Pad8)*
X106350000Y-101200000D02*
X104460000Y-101200000D01*
G04 #@! TO.N,Net-(U2-Pad10)*
X106350000Y-102800000D02*
X104460000Y-102800000D01*
G04 #@! TO.N,Net-(U2-Pad9)*
X106350000Y-102000000D02*
X104460000Y-102000000D01*
G04 #@! TO.N,Net-(U2-Pad12)*
X106350000Y-104400000D02*
X104460000Y-104400000D01*
G04 #@! TO.N,Net-(U2-Pad2)*
X106350000Y-96400000D02*
X104460000Y-96400000D01*
G04 #@! TO.N,Net-(U2-Pad11)*
X106350000Y-103600000D02*
X104460000Y-103600000D01*
G04 #@! TD*
D30*
G04 #@! TO.N,GND*
G36*
X132290001Y-83625088D02*
X132290001Y-99690000D01*
X132085750Y-99690000D01*
X131927000Y-99848750D01*
X131927000Y-100773000D01*
X131947000Y-100773000D01*
X131947000Y-101027000D01*
X131927000Y-101027000D01*
X131927000Y-101047000D01*
X131673000Y-101047000D01*
X131673000Y-101027000D01*
X130623750Y-101027000D01*
X130465000Y-101185750D01*
X130465000Y-101427214D01*
X130268435Y-101295874D01*
X129925000Y-101227560D01*
X128075000Y-101227560D01*
X127731565Y-101295874D01*
X127440414Y-101490414D01*
X127335000Y-101648178D01*
X127335000Y-101348691D01*
X127238327Y-101115302D01*
X127083403Y-100960377D01*
X127084586Y-100959586D01*
X127279127Y-100668436D01*
X127310863Y-100508888D01*
X127465301Y-100663327D01*
X127698690Y-100760000D01*
X128714250Y-100760000D01*
X128873000Y-100601250D01*
X128873000Y-99502000D01*
X129127000Y-99502000D01*
X129127000Y-100601250D01*
X129285750Y-100760000D01*
X130301310Y-100760000D01*
X130520117Y-100669367D01*
X130623750Y-100773000D01*
X131673000Y-100773000D01*
X131673000Y-99848750D01*
X131514250Y-99690000D01*
X130973690Y-99690000D01*
X130810000Y-99757803D01*
X130810000Y-99660750D01*
X130651250Y-99502000D01*
X129127000Y-99502000D01*
X128873000Y-99502000D01*
X128853000Y-99502000D01*
X128853000Y-99248000D01*
X128873000Y-99248000D01*
X128873000Y-98148750D01*
X129127000Y-98148750D01*
X129127000Y-99248000D01*
X130651250Y-99248000D01*
X130810000Y-99089250D01*
X130810000Y-98498691D01*
X130713327Y-98265302D01*
X130534699Y-98086673D01*
X130301310Y-97990000D01*
X129285750Y-97990000D01*
X129127000Y-98148750D01*
X128873000Y-98148750D01*
X128714250Y-97990000D01*
X127698690Y-97990000D01*
X127465301Y-98086673D01*
X127286673Y-98265302D01*
X127190000Y-98498691D01*
X127190000Y-99089250D01*
X127348748Y-99247998D01*
X127223290Y-99247998D01*
X127084586Y-99040414D01*
X126793436Y-98845873D01*
X126450001Y-98777560D01*
X125781651Y-98777560D01*
X123751493Y-96747402D01*
X123711881Y-96688119D01*
X123652598Y-96648507D01*
X118870000Y-91865910D01*
X118870000Y-87311587D01*
X119230625Y-87070625D01*
X119558839Y-86579418D01*
X119674092Y-86000000D01*
X119558839Y-85420582D01*
X119230625Y-84929375D01*
X118739418Y-84601161D01*
X118306256Y-84515000D01*
X118013744Y-84515000D01*
X117580582Y-84601161D01*
X117089375Y-84929375D01*
X116890000Y-85227761D01*
X116690625Y-84929375D01*
X116199418Y-84601161D01*
X115766256Y-84515000D01*
X115473744Y-84515000D01*
X115040582Y-84601161D01*
X114549375Y-84929375D01*
X114336157Y-85248478D01*
X114275183Y-85118642D01*
X113846924Y-84728355D01*
X113436890Y-84558524D01*
X113207000Y-84679845D01*
X113207000Y-85873000D01*
X113227000Y-85873000D01*
X113227000Y-86127000D01*
X113207000Y-86127000D01*
X113207000Y-87320155D01*
X113436890Y-87441476D01*
X113846924Y-87271645D01*
X114275183Y-86881358D01*
X114336157Y-86751522D01*
X114549375Y-87070625D01*
X114910001Y-87311588D01*
X114910000Y-89582676D01*
X114211830Y-90280847D01*
X114084586Y-90090414D01*
X114083403Y-90089623D01*
X114238327Y-89934698D01*
X114335000Y-89701309D01*
X114335000Y-89285750D01*
X114176250Y-89127000D01*
X113127000Y-89127000D01*
X113127000Y-89147000D01*
X112873000Y-89147000D01*
X112873000Y-89127000D01*
X112853000Y-89127000D01*
X112853000Y-88873000D01*
X112873000Y-88873000D01*
X112873000Y-87948750D01*
X113127000Y-87948750D01*
X113127000Y-88873000D01*
X114176250Y-88873000D01*
X114335000Y-88714250D01*
X114335000Y-88298691D01*
X114238327Y-88065302D01*
X114059699Y-87886673D01*
X113826310Y-87790000D01*
X113285750Y-87790000D01*
X113127000Y-87948750D01*
X112873000Y-87948750D01*
X112714250Y-87790000D01*
X112173690Y-87790000D01*
X111940301Y-87886673D01*
X111761673Y-88065302D01*
X111665000Y-88298691D01*
X111665000Y-88714250D01*
X111823748Y-88872998D01*
X111766605Y-88872998D01*
X111505874Y-88765000D01*
X111250000Y-88765000D01*
X111250000Y-87311587D01*
X111610625Y-87070625D01*
X111823843Y-86751522D01*
X111884817Y-86881358D01*
X112313076Y-87271645D01*
X112723110Y-87441476D01*
X112953000Y-87320155D01*
X112953000Y-86127000D01*
X112933000Y-86127000D01*
X112933000Y-85873000D01*
X112953000Y-85873000D01*
X112953000Y-84679845D01*
X112723110Y-84558524D01*
X112313076Y-84728355D01*
X111884817Y-85118642D01*
X111823843Y-85248478D01*
X111610625Y-84929375D01*
X111119418Y-84601161D01*
X110686256Y-84515000D01*
X110393744Y-84515000D01*
X109960582Y-84601161D01*
X109469375Y-84929375D01*
X109457184Y-84947619D01*
X109448157Y-84902235D01*
X109307809Y-84692191D01*
X109097765Y-84551843D01*
X108850000Y-84502560D01*
X107150000Y-84502560D01*
X106902235Y-84551843D01*
X106692191Y-84692191D01*
X106551843Y-84902235D01*
X106502560Y-85150000D01*
X106502560Y-86850000D01*
X106551843Y-87097765D01*
X106692191Y-87307809D01*
X106902235Y-87448157D01*
X107150000Y-87497440D01*
X107240000Y-87497440D01*
X107240001Y-89765349D01*
X107015414Y-89915414D01*
X106840661Y-90176950D01*
X106786280Y-90122569D01*
X106405874Y-89965000D01*
X105994126Y-89965000D01*
X105613720Y-90122569D01*
X105322569Y-90413720D01*
X105165000Y-90794126D01*
X105165000Y-91205874D01*
X105322569Y-91586280D01*
X105613720Y-91877431D01*
X105994126Y-92035000D01*
X106405874Y-92035000D01*
X106786280Y-91877431D01*
X106840001Y-91823710D01*
X106840001Y-92020299D01*
X106751843Y-92152235D01*
X106702560Y-92400000D01*
X106702560Y-94702560D01*
X103960000Y-94702560D01*
X103712235Y-94751843D01*
X103502191Y-94892191D01*
X103361843Y-95102235D01*
X103312560Y-95350000D01*
X103312560Y-95850000D01*
X103342397Y-96000000D01*
X103312560Y-96150000D01*
X103312560Y-96219516D01*
X103238327Y-96040302D01*
X103059699Y-95861673D01*
X102826310Y-95765000D01*
X102285750Y-95765000D01*
X102127000Y-95923750D01*
X102127000Y-96848000D01*
X103176250Y-96848000D01*
X103322795Y-96701455D01*
X103339936Y-96787631D01*
X103325000Y-96823690D01*
X103325000Y-96916250D01*
X103473258Y-97064508D01*
X103502191Y-97107809D01*
X103640164Y-97200000D01*
X103502191Y-97292191D01*
X103473258Y-97335492D01*
X103335000Y-97473750D01*
X103335000Y-97260750D01*
X103176250Y-97102000D01*
X102127000Y-97102000D01*
X102127000Y-97122000D01*
X101873000Y-97122000D01*
X101873000Y-97102000D01*
X100127000Y-97102000D01*
X100127000Y-97122000D01*
X99873000Y-97122000D01*
X99873000Y-97102000D01*
X98127000Y-97102000D01*
X98127000Y-97122000D01*
X97873000Y-97122000D01*
X97873000Y-97102000D01*
X96823750Y-97102000D01*
X96665000Y-97260750D01*
X96665000Y-97676309D01*
X96761673Y-97909698D01*
X96916597Y-98064623D01*
X96915414Y-98065414D01*
X96720873Y-98356564D01*
X96652560Y-98699999D01*
X96652560Y-99350001D01*
X96720873Y-99693436D01*
X96915414Y-99984586D01*
X97206564Y-100179127D01*
X97549999Y-100247440D01*
X98450001Y-100247440D01*
X98793436Y-100179127D01*
X99000000Y-100041105D01*
X99206564Y-100179127D01*
X99549999Y-100247440D01*
X100450001Y-100247440D01*
X100793436Y-100179127D01*
X101000000Y-100041105D01*
X101206564Y-100179127D01*
X101549999Y-100247440D01*
X102450001Y-100247440D01*
X102793436Y-100179127D01*
X103084586Y-99984586D01*
X103217946Y-99785000D01*
X103312560Y-99785000D01*
X103312560Y-99850000D01*
X103339936Y-99987631D01*
X103325000Y-100023690D01*
X103325000Y-100116250D01*
X103473258Y-100264508D01*
X103502191Y-100307809D01*
X103640164Y-100400000D01*
X103502191Y-100492191D01*
X103473258Y-100535492D01*
X103325000Y-100683750D01*
X103325000Y-100776310D01*
X103339936Y-100812369D01*
X103312560Y-100950000D01*
X103312560Y-101450000D01*
X103342397Y-101600000D01*
X103312560Y-101750000D01*
X103312560Y-102250000D01*
X103342397Y-102400000D01*
X103312560Y-102550000D01*
X103312560Y-103050000D01*
X103342397Y-103200000D01*
X103312560Y-103350000D01*
X103312560Y-103850000D01*
X103342397Y-104000000D01*
X103312560Y-104150000D01*
X103312560Y-104650000D01*
X103361843Y-104897765D01*
X103502191Y-105107809D01*
X103712235Y-105248157D01*
X103960000Y-105297440D01*
X106702560Y-105297440D01*
X106702560Y-107600000D01*
X106751843Y-107847765D01*
X106892191Y-108057809D01*
X107102235Y-108198157D01*
X107350000Y-108247440D01*
X107850000Y-108247440D01*
X108000000Y-108217603D01*
X108150000Y-108247440D01*
X108650000Y-108247440D01*
X108800000Y-108217603D01*
X108950000Y-108247440D01*
X109450000Y-108247440D01*
X109600000Y-108217603D01*
X109750000Y-108247440D01*
X110250000Y-108247440D01*
X110400000Y-108217603D01*
X110550000Y-108247440D01*
X111050000Y-108247440D01*
X111200000Y-108217603D01*
X111350000Y-108247440D01*
X111850000Y-108247440D01*
X112000000Y-108217603D01*
X112150000Y-108247440D01*
X112650000Y-108247440D01*
X112800000Y-108217603D01*
X112950000Y-108247440D01*
X113450000Y-108247440D01*
X113600000Y-108217603D01*
X113750000Y-108247440D01*
X114250000Y-108247440D01*
X114400000Y-108217603D01*
X114550000Y-108247440D01*
X114675874Y-108247440D01*
X114665000Y-108273691D01*
X114665000Y-108689250D01*
X114823750Y-108848000D01*
X115873000Y-108848000D01*
X115873000Y-108828000D01*
X116127000Y-108828000D01*
X116127000Y-108848000D01*
X116147000Y-108848000D01*
X116147000Y-109102000D01*
X116127000Y-109102000D01*
X116127000Y-109122000D01*
X115873000Y-109122000D01*
X115873000Y-109102000D01*
X114823750Y-109102000D01*
X114665000Y-109260750D01*
X114665000Y-109676309D01*
X114761673Y-109909698D01*
X114916597Y-110064623D01*
X114915414Y-110065414D01*
X114720873Y-110356564D01*
X114652560Y-110699999D01*
X114652560Y-111008602D01*
X114305874Y-110865000D01*
X113894126Y-110865000D01*
X113513720Y-111022569D01*
X113222569Y-111313720D01*
X113065000Y-111694126D01*
X113065000Y-112105874D01*
X113222569Y-112486280D01*
X113395629Y-112659340D01*
X112953116Y-112419924D01*
X112887258Y-112407481D01*
X112677000Y-112530482D01*
X112677000Y-113873000D01*
X113910000Y-113873000D01*
X113910000Y-113598000D01*
X113757875Y-113087218D01*
X113473948Y-112737659D01*
X113513720Y-112777431D01*
X113894126Y-112935000D01*
X114060198Y-112935000D01*
X114162093Y-113036895D01*
X114151843Y-113052235D01*
X114102560Y-113300000D01*
X114102560Y-114059880D01*
X113876935Y-114015000D01*
X113673065Y-114015000D01*
X113371163Y-114075052D01*
X113293417Y-114127000D01*
X112677000Y-114127000D01*
X112677000Y-115469518D01*
X112887258Y-115592519D01*
X112892105Y-115591603D01*
X113028807Y-115796193D01*
X113371163Y-116024948D01*
X113673065Y-116085000D01*
X113876935Y-116085000D01*
X114178837Y-116024948D01*
X114521193Y-115796193D01*
X114749948Y-115453837D01*
X114791003Y-115247440D01*
X115200000Y-115247440D01*
X115300000Y-115227549D01*
X115400000Y-115247440D01*
X115850000Y-115247440D01*
X115950000Y-115227549D01*
X116050000Y-115247440D01*
X116500000Y-115247440D01*
X116600000Y-115227549D01*
X116700000Y-115247440D01*
X117150000Y-115247440D01*
X117220074Y-115233502D01*
X117223691Y-115235000D01*
X117303750Y-115235000D01*
X117326397Y-115212353D01*
X117397765Y-115198157D01*
X117607809Y-115057809D01*
X117687500Y-114938544D01*
X117687500Y-115076250D01*
X117734243Y-115122993D01*
X117800052Y-115453837D01*
X118028807Y-115796193D01*
X118371163Y-116024948D01*
X118673065Y-116085000D01*
X118876935Y-116085000D01*
X119178837Y-116024948D01*
X119521193Y-115796193D01*
X119657895Y-115591603D01*
X119662742Y-115592519D01*
X119873000Y-115469518D01*
X119873000Y-114127000D01*
X120127000Y-114127000D01*
X120127000Y-115469518D01*
X120337258Y-115592519D01*
X120403116Y-115580076D01*
X120871862Y-115326467D01*
X121207875Y-114912782D01*
X121360000Y-114402000D01*
X121360000Y-114127000D01*
X120127000Y-114127000D01*
X119873000Y-114127000D01*
X119256583Y-114127000D01*
X119178837Y-114075052D01*
X118876935Y-114015000D01*
X118673065Y-114015000D01*
X118371163Y-114075052D01*
X118313099Y-114113849D01*
X118276250Y-114077000D01*
X117797440Y-114077000D01*
X117797440Y-113823000D01*
X118276250Y-113823000D01*
X118435000Y-113664250D01*
X118435000Y-113598000D01*
X118640000Y-113598000D01*
X118640000Y-113873000D01*
X119873000Y-113873000D01*
X119873000Y-112530482D01*
X120127000Y-112530482D01*
X120127000Y-113873000D01*
X121360000Y-113873000D01*
X121360000Y-113598000D01*
X121207875Y-113087218D01*
X120871862Y-112673533D01*
X120403116Y-112419924D01*
X120337258Y-112407481D01*
X120127000Y-112530482D01*
X119873000Y-112530482D01*
X119662742Y-112407481D01*
X119596884Y-112419924D01*
X119128138Y-112673533D01*
X118792125Y-113087218D01*
X118640000Y-113598000D01*
X118435000Y-113598000D01*
X118435000Y-113173690D01*
X118338327Y-112940301D01*
X118159698Y-112761673D01*
X117926309Y-112665000D01*
X117846250Y-112665000D01*
X117687500Y-112823750D01*
X117687500Y-112961456D01*
X117607809Y-112842191D01*
X117397765Y-112701843D01*
X117326397Y-112687647D01*
X117303750Y-112665000D01*
X117223691Y-112665000D01*
X117220074Y-112666498D01*
X117150000Y-112652560D01*
X116700000Y-112652560D01*
X116600000Y-112672451D01*
X116500000Y-112652560D01*
X116050000Y-112652560D01*
X115950000Y-112672451D01*
X115850000Y-112652560D01*
X115725534Y-112652560D01*
X115690904Y-112478463D01*
X115534476Y-112244352D01*
X115549999Y-112247440D01*
X116450001Y-112247440D01*
X116793436Y-112179127D01*
X117000000Y-112041105D01*
X117206564Y-112179127D01*
X117549999Y-112247440D01*
X118450001Y-112247440D01*
X118793436Y-112179127D01*
X119000000Y-112041105D01*
X119206564Y-112179127D01*
X119549999Y-112247440D01*
X120450001Y-112247440D01*
X120793436Y-112179127D01*
X121046551Y-112010000D01*
X121302560Y-112010000D01*
X121302560Y-112300000D01*
X121351843Y-112547765D01*
X121492191Y-112757809D01*
X121702235Y-112898157D01*
X121950000Y-112947440D01*
X122188849Y-112947440D01*
X122122569Y-113013720D01*
X121965000Y-113394126D01*
X121965000Y-113805874D01*
X122087115Y-114100687D01*
X121915414Y-114215414D01*
X121720873Y-114506564D01*
X121652560Y-114849999D01*
X121652560Y-115500001D01*
X121720873Y-115843436D01*
X121915414Y-116134586D01*
X121916597Y-116135377D01*
X121761673Y-116290302D01*
X121665000Y-116523691D01*
X121665000Y-116939250D01*
X121823750Y-117098000D01*
X122873000Y-117098000D01*
X122873000Y-117078000D01*
X123127000Y-117078000D01*
X123127000Y-117098000D01*
X124873000Y-117098000D01*
X124873000Y-117078000D01*
X125127000Y-117078000D01*
X125127000Y-117098000D01*
X126176250Y-117098000D01*
X126250000Y-117024250D01*
X126348750Y-117123000D01*
X127873000Y-117123000D01*
X127873000Y-116023750D01*
X128127000Y-116023750D01*
X128127000Y-117123000D01*
X129651250Y-117123000D01*
X129810000Y-116964250D01*
X129810000Y-116373691D01*
X129713327Y-116140302D01*
X129534699Y-115961673D01*
X129301310Y-115865000D01*
X128285750Y-115865000D01*
X128127000Y-116023750D01*
X127873000Y-116023750D01*
X127714250Y-115865000D01*
X126698690Y-115865000D01*
X126465301Y-115961673D01*
X126286673Y-116140302D01*
X126228579Y-116280554D01*
X126083403Y-116135377D01*
X126084586Y-116134586D01*
X126279127Y-115843436D01*
X126347440Y-115500001D01*
X126347440Y-114995440D01*
X126440414Y-115134586D01*
X126731565Y-115329126D01*
X127075000Y-115397440D01*
X128925000Y-115397440D01*
X129268435Y-115329126D01*
X129559586Y-115134586D01*
X129754126Y-114843435D01*
X129822440Y-114500000D01*
X129822440Y-113500000D01*
X129754126Y-113156565D01*
X129559586Y-112865414D01*
X129268435Y-112670874D01*
X128925000Y-112602560D01*
X128611544Y-112602560D01*
X128648157Y-112547765D01*
X128697440Y-112300000D01*
X128697440Y-110310750D01*
X129665000Y-110310750D01*
X129665000Y-110726309D01*
X129761673Y-110959698D01*
X129940301Y-111138327D01*
X130173690Y-111235000D01*
X130714250Y-111235000D01*
X130873000Y-111076250D01*
X130873000Y-110152000D01*
X129823750Y-110152000D01*
X129665000Y-110310750D01*
X128697440Y-110310750D01*
X128697440Y-110300000D01*
X128648157Y-110052235D01*
X128507809Y-109842191D01*
X128297765Y-109701843D01*
X128050000Y-109652560D01*
X126550000Y-109652560D01*
X126302235Y-109701843D01*
X126150000Y-109803564D01*
X125997765Y-109701843D01*
X125750000Y-109652560D01*
X124250000Y-109652560D01*
X124002235Y-109701843D01*
X123850000Y-109803564D01*
X123697765Y-109701843D01*
X123450000Y-109652560D01*
X121950000Y-109652560D01*
X121702235Y-109701843D01*
X121492191Y-109842191D01*
X121351843Y-110052235D01*
X121302560Y-110300000D01*
X121302560Y-110474370D01*
X121279127Y-110356564D01*
X121084586Y-110065414D01*
X120986687Y-110000000D01*
X121084586Y-109934586D01*
X121279127Y-109643436D01*
X121347440Y-109300001D01*
X121347440Y-108649999D01*
X121279127Y-108306564D01*
X121084586Y-108015414D01*
X120942941Y-107920770D01*
X120977431Y-107886280D01*
X121135000Y-107505874D01*
X121135000Y-107094126D01*
X121041271Y-106867845D01*
X122149117Y-105760000D01*
X122452560Y-105760000D01*
X122452560Y-106000000D01*
X122501843Y-106247765D01*
X122642191Y-106457809D01*
X122852235Y-106598157D01*
X123100000Y-106647440D01*
X126900000Y-106647440D01*
X127147765Y-106598157D01*
X127357809Y-106457809D01*
X127498157Y-106247765D01*
X127547440Y-106000000D01*
X127547440Y-105152361D01*
X128677362Y-104022440D01*
X129925000Y-104022440D01*
X130232828Y-103961209D01*
X130225112Y-104000000D01*
X130240001Y-104074852D01*
X130240000Y-106814222D01*
X130206564Y-106820873D01*
X129915414Y-107015414D01*
X129720873Y-107306564D01*
X129652560Y-107649999D01*
X129652560Y-108300001D01*
X129720873Y-108643436D01*
X129915414Y-108934586D01*
X129916597Y-108935377D01*
X129761673Y-109090302D01*
X129665000Y-109323691D01*
X129665000Y-109739250D01*
X129823750Y-109898000D01*
X130873000Y-109898000D01*
X130873000Y-109878000D01*
X131127000Y-109878000D01*
X131127000Y-109898000D01*
X131147000Y-109898000D01*
X131147000Y-110152000D01*
X131127000Y-110152000D01*
X131127000Y-111076250D01*
X131285750Y-111235000D01*
X131826310Y-111235000D01*
X132059699Y-111138327D01*
X132238327Y-110959698D01*
X132290000Y-110834948D01*
X132290000Y-119290000D01*
X120498555Y-119290000D01*
X120915796Y-119070402D01*
X121219293Y-118705380D01*
X121360000Y-118252000D01*
X121360000Y-117927000D01*
X120277000Y-117927000D01*
X120277000Y-117947000D01*
X120023000Y-117947000D01*
X120023000Y-117927000D01*
X118940000Y-117927000D01*
X118940000Y-118252000D01*
X119080707Y-118705380D01*
X119384204Y-119070402D01*
X119801445Y-119290000D01*
X112748555Y-119290000D01*
X113165796Y-119070402D01*
X113469293Y-118705380D01*
X113610000Y-118252000D01*
X113610000Y-117927000D01*
X112527000Y-117927000D01*
X112527000Y-117947000D01*
X112273000Y-117947000D01*
X112273000Y-117927000D01*
X111190000Y-117927000D01*
X111190000Y-118252000D01*
X111330707Y-118705380D01*
X111634204Y-119070402D01*
X112051445Y-119290000D01*
X109841804Y-119290000D01*
X108432903Y-117348000D01*
X111190000Y-117348000D01*
X111190000Y-117673000D01*
X112273000Y-117673000D01*
X112273000Y-116431450D01*
X112527000Y-116431450D01*
X112527000Y-117673000D01*
X113610000Y-117673000D01*
X113610000Y-117348000D01*
X118940000Y-117348000D01*
X118940000Y-117673000D01*
X120023000Y-117673000D01*
X120023000Y-116431450D01*
X120277000Y-116431450D01*
X120277000Y-117673000D01*
X121360000Y-117673000D01*
X121360000Y-117510750D01*
X121665000Y-117510750D01*
X121665000Y-117926309D01*
X121761673Y-118159698D01*
X121940301Y-118338327D01*
X122173690Y-118435000D01*
X122714250Y-118435000D01*
X122873000Y-118276250D01*
X122873000Y-117352000D01*
X123127000Y-117352000D01*
X123127000Y-118276250D01*
X123285750Y-118435000D01*
X123826310Y-118435000D01*
X124000000Y-118363055D01*
X124173690Y-118435000D01*
X124714250Y-118435000D01*
X124873000Y-118276250D01*
X124873000Y-117352000D01*
X125127000Y-117352000D01*
X125127000Y-118276250D01*
X125285750Y-118435000D01*
X125826310Y-118435000D01*
X126059699Y-118338327D01*
X126213934Y-118184091D01*
X126286673Y-118359698D01*
X126465301Y-118538327D01*
X126698690Y-118635000D01*
X127714250Y-118635000D01*
X127873000Y-118476250D01*
X127873000Y-117377000D01*
X128127000Y-117377000D01*
X128127000Y-118476250D01*
X128285750Y-118635000D01*
X129301310Y-118635000D01*
X129534699Y-118538327D01*
X129713327Y-118359698D01*
X129810000Y-118126309D01*
X129810000Y-117535750D01*
X129651250Y-117377000D01*
X128127000Y-117377000D01*
X127873000Y-117377000D01*
X126348750Y-117377000D01*
X126275000Y-117450750D01*
X126176250Y-117352000D01*
X125127000Y-117352000D01*
X124873000Y-117352000D01*
X123127000Y-117352000D01*
X122873000Y-117352000D01*
X121823750Y-117352000D01*
X121665000Y-117510750D01*
X121360000Y-117510750D01*
X121360000Y-117348000D01*
X121219293Y-116894620D01*
X120915796Y-116529598D01*
X120495714Y-116308505D01*
X120463677Y-116306365D01*
X120277000Y-116431450D01*
X120023000Y-116431450D01*
X119836323Y-116306365D01*
X119804286Y-116308505D01*
X119384204Y-116529598D01*
X119080707Y-116894620D01*
X118940000Y-117348000D01*
X113610000Y-117348000D01*
X113469293Y-116894620D01*
X113165796Y-116529598D01*
X112745714Y-116308505D01*
X112713677Y-116306365D01*
X112527000Y-116431450D01*
X112273000Y-116431450D01*
X112086323Y-116306365D01*
X112054286Y-116308505D01*
X111634204Y-116529598D01*
X111330707Y-116894620D01*
X111190000Y-117348000D01*
X108432903Y-117348000D01*
X106096100Y-114127000D01*
X111190000Y-114127000D01*
X111190000Y-114402000D01*
X111342125Y-114912782D01*
X111678138Y-115326467D01*
X112146884Y-115580076D01*
X112212742Y-115592519D01*
X112423000Y-115469518D01*
X112423000Y-114127000D01*
X111190000Y-114127000D01*
X106096100Y-114127000D01*
X105712316Y-113598000D01*
X111190000Y-113598000D01*
X111190000Y-113873000D01*
X112423000Y-113873000D01*
X112423000Y-112530482D01*
X112212742Y-112407481D01*
X112146884Y-112419924D01*
X111678138Y-112673533D01*
X111342125Y-113087218D01*
X111190000Y-113598000D01*
X105712316Y-113598000D01*
X95528279Y-99560545D01*
X95629725Y-96273691D01*
X96665000Y-96273691D01*
X96665000Y-96689250D01*
X96823750Y-96848000D01*
X97873000Y-96848000D01*
X97873000Y-95923750D01*
X98127000Y-95923750D01*
X98127000Y-96848000D01*
X99873000Y-96848000D01*
X99873000Y-95923750D01*
X100127000Y-95923750D01*
X100127000Y-96848000D01*
X101873000Y-96848000D01*
X101873000Y-95923750D01*
X101714250Y-95765000D01*
X101173690Y-95765000D01*
X101000000Y-95836945D01*
X100826310Y-95765000D01*
X100285750Y-95765000D01*
X100127000Y-95923750D01*
X99873000Y-95923750D01*
X99714250Y-95765000D01*
X99173690Y-95765000D01*
X99000000Y-95836945D01*
X98826310Y-95765000D01*
X98285750Y-95765000D01*
X98127000Y-95923750D01*
X97873000Y-95923750D01*
X97714250Y-95765000D01*
X97173690Y-95765000D01*
X96940301Y-95861673D01*
X96761673Y-96040302D01*
X96665000Y-96273691D01*
X95629725Y-96273691D01*
X96023131Y-83527333D01*
X132290001Y-83625088D01*
X132290001Y-83625088D01*
G37*
X132290001Y-83625088D02*
X132290001Y-99690000D01*
X132085750Y-99690000D01*
X131927000Y-99848750D01*
X131927000Y-100773000D01*
X131947000Y-100773000D01*
X131947000Y-101027000D01*
X131927000Y-101027000D01*
X131927000Y-101047000D01*
X131673000Y-101047000D01*
X131673000Y-101027000D01*
X130623750Y-101027000D01*
X130465000Y-101185750D01*
X130465000Y-101427214D01*
X130268435Y-101295874D01*
X129925000Y-101227560D01*
X128075000Y-101227560D01*
X127731565Y-101295874D01*
X127440414Y-101490414D01*
X127335000Y-101648178D01*
X127335000Y-101348691D01*
X127238327Y-101115302D01*
X127083403Y-100960377D01*
X127084586Y-100959586D01*
X127279127Y-100668436D01*
X127310863Y-100508888D01*
X127465301Y-100663327D01*
X127698690Y-100760000D01*
X128714250Y-100760000D01*
X128873000Y-100601250D01*
X128873000Y-99502000D01*
X129127000Y-99502000D01*
X129127000Y-100601250D01*
X129285750Y-100760000D01*
X130301310Y-100760000D01*
X130520117Y-100669367D01*
X130623750Y-100773000D01*
X131673000Y-100773000D01*
X131673000Y-99848750D01*
X131514250Y-99690000D01*
X130973690Y-99690000D01*
X130810000Y-99757803D01*
X130810000Y-99660750D01*
X130651250Y-99502000D01*
X129127000Y-99502000D01*
X128873000Y-99502000D01*
X128853000Y-99502000D01*
X128853000Y-99248000D01*
X128873000Y-99248000D01*
X128873000Y-98148750D01*
X129127000Y-98148750D01*
X129127000Y-99248000D01*
X130651250Y-99248000D01*
X130810000Y-99089250D01*
X130810000Y-98498691D01*
X130713327Y-98265302D01*
X130534699Y-98086673D01*
X130301310Y-97990000D01*
X129285750Y-97990000D01*
X129127000Y-98148750D01*
X128873000Y-98148750D01*
X128714250Y-97990000D01*
X127698690Y-97990000D01*
X127465301Y-98086673D01*
X127286673Y-98265302D01*
X127190000Y-98498691D01*
X127190000Y-99089250D01*
X127348748Y-99247998D01*
X127223290Y-99247998D01*
X127084586Y-99040414D01*
X126793436Y-98845873D01*
X126450001Y-98777560D01*
X125781651Y-98777560D01*
X123751493Y-96747402D01*
X123711881Y-96688119D01*
X123652598Y-96648507D01*
X118870000Y-91865910D01*
X118870000Y-87311587D01*
X119230625Y-87070625D01*
X119558839Y-86579418D01*
X119674092Y-86000000D01*
X119558839Y-85420582D01*
X119230625Y-84929375D01*
X118739418Y-84601161D01*
X118306256Y-84515000D01*
X118013744Y-84515000D01*
X117580582Y-84601161D01*
X117089375Y-84929375D01*
X116890000Y-85227761D01*
X116690625Y-84929375D01*
X116199418Y-84601161D01*
X115766256Y-84515000D01*
X115473744Y-84515000D01*
X115040582Y-84601161D01*
X114549375Y-84929375D01*
X114336157Y-85248478D01*
X114275183Y-85118642D01*
X113846924Y-84728355D01*
X113436890Y-84558524D01*
X113207000Y-84679845D01*
X113207000Y-85873000D01*
X113227000Y-85873000D01*
X113227000Y-86127000D01*
X113207000Y-86127000D01*
X113207000Y-87320155D01*
X113436890Y-87441476D01*
X113846924Y-87271645D01*
X114275183Y-86881358D01*
X114336157Y-86751522D01*
X114549375Y-87070625D01*
X114910001Y-87311588D01*
X114910000Y-89582676D01*
X114211830Y-90280847D01*
X114084586Y-90090414D01*
X114083403Y-90089623D01*
X114238327Y-89934698D01*
X114335000Y-89701309D01*
X114335000Y-89285750D01*
X114176250Y-89127000D01*
X113127000Y-89127000D01*
X113127000Y-89147000D01*
X112873000Y-89147000D01*
X112873000Y-89127000D01*
X112853000Y-89127000D01*
X112853000Y-88873000D01*
X112873000Y-88873000D01*
X112873000Y-87948750D01*
X113127000Y-87948750D01*
X113127000Y-88873000D01*
X114176250Y-88873000D01*
X114335000Y-88714250D01*
X114335000Y-88298691D01*
X114238327Y-88065302D01*
X114059699Y-87886673D01*
X113826310Y-87790000D01*
X113285750Y-87790000D01*
X113127000Y-87948750D01*
X112873000Y-87948750D01*
X112714250Y-87790000D01*
X112173690Y-87790000D01*
X111940301Y-87886673D01*
X111761673Y-88065302D01*
X111665000Y-88298691D01*
X111665000Y-88714250D01*
X111823748Y-88872998D01*
X111766605Y-88872998D01*
X111505874Y-88765000D01*
X111250000Y-88765000D01*
X111250000Y-87311587D01*
X111610625Y-87070625D01*
X111823843Y-86751522D01*
X111884817Y-86881358D01*
X112313076Y-87271645D01*
X112723110Y-87441476D01*
X112953000Y-87320155D01*
X112953000Y-86127000D01*
X112933000Y-86127000D01*
X112933000Y-85873000D01*
X112953000Y-85873000D01*
X112953000Y-84679845D01*
X112723110Y-84558524D01*
X112313076Y-84728355D01*
X111884817Y-85118642D01*
X111823843Y-85248478D01*
X111610625Y-84929375D01*
X111119418Y-84601161D01*
X110686256Y-84515000D01*
X110393744Y-84515000D01*
X109960582Y-84601161D01*
X109469375Y-84929375D01*
X109457184Y-84947619D01*
X109448157Y-84902235D01*
X109307809Y-84692191D01*
X109097765Y-84551843D01*
X108850000Y-84502560D01*
X107150000Y-84502560D01*
X106902235Y-84551843D01*
X106692191Y-84692191D01*
X106551843Y-84902235D01*
X106502560Y-85150000D01*
X106502560Y-86850000D01*
X106551843Y-87097765D01*
X106692191Y-87307809D01*
X106902235Y-87448157D01*
X107150000Y-87497440D01*
X107240000Y-87497440D01*
X107240001Y-89765349D01*
X107015414Y-89915414D01*
X106840661Y-90176950D01*
X106786280Y-90122569D01*
X106405874Y-89965000D01*
X105994126Y-89965000D01*
X105613720Y-90122569D01*
X105322569Y-90413720D01*
X105165000Y-90794126D01*
X105165000Y-91205874D01*
X105322569Y-91586280D01*
X105613720Y-91877431D01*
X105994126Y-92035000D01*
X106405874Y-92035000D01*
X106786280Y-91877431D01*
X106840001Y-91823710D01*
X106840001Y-92020299D01*
X106751843Y-92152235D01*
X106702560Y-92400000D01*
X106702560Y-94702560D01*
X103960000Y-94702560D01*
X103712235Y-94751843D01*
X103502191Y-94892191D01*
X103361843Y-95102235D01*
X103312560Y-95350000D01*
X103312560Y-95850000D01*
X103342397Y-96000000D01*
X103312560Y-96150000D01*
X103312560Y-96219516D01*
X103238327Y-96040302D01*
X103059699Y-95861673D01*
X102826310Y-95765000D01*
X102285750Y-95765000D01*
X102127000Y-95923750D01*
X102127000Y-96848000D01*
X103176250Y-96848000D01*
X103322795Y-96701455D01*
X103339936Y-96787631D01*
X103325000Y-96823690D01*
X103325000Y-96916250D01*
X103473258Y-97064508D01*
X103502191Y-97107809D01*
X103640164Y-97200000D01*
X103502191Y-97292191D01*
X103473258Y-97335492D01*
X103335000Y-97473750D01*
X103335000Y-97260750D01*
X103176250Y-97102000D01*
X102127000Y-97102000D01*
X102127000Y-97122000D01*
X101873000Y-97122000D01*
X101873000Y-97102000D01*
X100127000Y-97102000D01*
X100127000Y-97122000D01*
X99873000Y-97122000D01*
X99873000Y-97102000D01*
X98127000Y-97102000D01*
X98127000Y-97122000D01*
X97873000Y-97122000D01*
X97873000Y-97102000D01*
X96823750Y-97102000D01*
X96665000Y-97260750D01*
X96665000Y-97676309D01*
X96761673Y-97909698D01*
X96916597Y-98064623D01*
X96915414Y-98065414D01*
X96720873Y-98356564D01*
X96652560Y-98699999D01*
X96652560Y-99350001D01*
X96720873Y-99693436D01*
X96915414Y-99984586D01*
X97206564Y-100179127D01*
X97549999Y-100247440D01*
X98450001Y-100247440D01*
X98793436Y-100179127D01*
X99000000Y-100041105D01*
X99206564Y-100179127D01*
X99549999Y-100247440D01*
X100450001Y-100247440D01*
X100793436Y-100179127D01*
X101000000Y-100041105D01*
X101206564Y-100179127D01*
X101549999Y-100247440D01*
X102450001Y-100247440D01*
X102793436Y-100179127D01*
X103084586Y-99984586D01*
X103217946Y-99785000D01*
X103312560Y-99785000D01*
X103312560Y-99850000D01*
X103339936Y-99987631D01*
X103325000Y-100023690D01*
X103325000Y-100116250D01*
X103473258Y-100264508D01*
X103502191Y-100307809D01*
X103640164Y-100400000D01*
X103502191Y-100492191D01*
X103473258Y-100535492D01*
X103325000Y-100683750D01*
X103325000Y-100776310D01*
X103339936Y-100812369D01*
X103312560Y-100950000D01*
X103312560Y-101450000D01*
X103342397Y-101600000D01*
X103312560Y-101750000D01*
X103312560Y-102250000D01*
X103342397Y-102400000D01*
X103312560Y-102550000D01*
X103312560Y-103050000D01*
X103342397Y-103200000D01*
X103312560Y-103350000D01*
X103312560Y-103850000D01*
X103342397Y-104000000D01*
X103312560Y-104150000D01*
X103312560Y-104650000D01*
X103361843Y-104897765D01*
X103502191Y-105107809D01*
X103712235Y-105248157D01*
X103960000Y-105297440D01*
X106702560Y-105297440D01*
X106702560Y-107600000D01*
X106751843Y-107847765D01*
X106892191Y-108057809D01*
X107102235Y-108198157D01*
X107350000Y-108247440D01*
X107850000Y-108247440D01*
X108000000Y-108217603D01*
X108150000Y-108247440D01*
X108650000Y-108247440D01*
X108800000Y-108217603D01*
X108950000Y-108247440D01*
X109450000Y-108247440D01*
X109600000Y-108217603D01*
X109750000Y-108247440D01*
X110250000Y-108247440D01*
X110400000Y-108217603D01*
X110550000Y-108247440D01*
X111050000Y-108247440D01*
X111200000Y-108217603D01*
X111350000Y-108247440D01*
X111850000Y-108247440D01*
X112000000Y-108217603D01*
X112150000Y-108247440D01*
X112650000Y-108247440D01*
X112800000Y-108217603D01*
X112950000Y-108247440D01*
X113450000Y-108247440D01*
X113600000Y-108217603D01*
X113750000Y-108247440D01*
X114250000Y-108247440D01*
X114400000Y-108217603D01*
X114550000Y-108247440D01*
X114675874Y-108247440D01*
X114665000Y-108273691D01*
X114665000Y-108689250D01*
X114823750Y-108848000D01*
X115873000Y-108848000D01*
X115873000Y-108828000D01*
X116127000Y-108828000D01*
X116127000Y-108848000D01*
X116147000Y-108848000D01*
X116147000Y-109102000D01*
X116127000Y-109102000D01*
X116127000Y-109122000D01*
X115873000Y-109122000D01*
X115873000Y-109102000D01*
X114823750Y-109102000D01*
X114665000Y-109260750D01*
X114665000Y-109676309D01*
X114761673Y-109909698D01*
X114916597Y-110064623D01*
X114915414Y-110065414D01*
X114720873Y-110356564D01*
X114652560Y-110699999D01*
X114652560Y-111008602D01*
X114305874Y-110865000D01*
X113894126Y-110865000D01*
X113513720Y-111022569D01*
X113222569Y-111313720D01*
X113065000Y-111694126D01*
X113065000Y-112105874D01*
X113222569Y-112486280D01*
X113395629Y-112659340D01*
X112953116Y-112419924D01*
X112887258Y-112407481D01*
X112677000Y-112530482D01*
X112677000Y-113873000D01*
X113910000Y-113873000D01*
X113910000Y-113598000D01*
X113757875Y-113087218D01*
X113473948Y-112737659D01*
X113513720Y-112777431D01*
X113894126Y-112935000D01*
X114060198Y-112935000D01*
X114162093Y-113036895D01*
X114151843Y-113052235D01*
X114102560Y-113300000D01*
X114102560Y-114059880D01*
X113876935Y-114015000D01*
X113673065Y-114015000D01*
X113371163Y-114075052D01*
X113293417Y-114127000D01*
X112677000Y-114127000D01*
X112677000Y-115469518D01*
X112887258Y-115592519D01*
X112892105Y-115591603D01*
X113028807Y-115796193D01*
X113371163Y-116024948D01*
X113673065Y-116085000D01*
X113876935Y-116085000D01*
X114178837Y-116024948D01*
X114521193Y-115796193D01*
X114749948Y-115453837D01*
X114791003Y-115247440D01*
X115200000Y-115247440D01*
X115300000Y-115227549D01*
X115400000Y-115247440D01*
X115850000Y-115247440D01*
X115950000Y-115227549D01*
X116050000Y-115247440D01*
X116500000Y-115247440D01*
X116600000Y-115227549D01*
X116700000Y-115247440D01*
X117150000Y-115247440D01*
X117220074Y-115233502D01*
X117223691Y-115235000D01*
X117303750Y-115235000D01*
X117326397Y-115212353D01*
X117397765Y-115198157D01*
X117607809Y-115057809D01*
X117687500Y-114938544D01*
X117687500Y-115076250D01*
X117734243Y-115122993D01*
X117800052Y-115453837D01*
X118028807Y-115796193D01*
X118371163Y-116024948D01*
X118673065Y-116085000D01*
X118876935Y-116085000D01*
X119178837Y-116024948D01*
X119521193Y-115796193D01*
X119657895Y-115591603D01*
X119662742Y-115592519D01*
X119873000Y-115469518D01*
X119873000Y-114127000D01*
X120127000Y-114127000D01*
X120127000Y-115469518D01*
X120337258Y-115592519D01*
X120403116Y-115580076D01*
X120871862Y-115326467D01*
X121207875Y-114912782D01*
X121360000Y-114402000D01*
X121360000Y-114127000D01*
X120127000Y-114127000D01*
X119873000Y-114127000D01*
X119256583Y-114127000D01*
X119178837Y-114075052D01*
X118876935Y-114015000D01*
X118673065Y-114015000D01*
X118371163Y-114075052D01*
X118313099Y-114113849D01*
X118276250Y-114077000D01*
X117797440Y-114077000D01*
X117797440Y-113823000D01*
X118276250Y-113823000D01*
X118435000Y-113664250D01*
X118435000Y-113598000D01*
X118640000Y-113598000D01*
X118640000Y-113873000D01*
X119873000Y-113873000D01*
X119873000Y-112530482D01*
X120127000Y-112530482D01*
X120127000Y-113873000D01*
X121360000Y-113873000D01*
X121360000Y-113598000D01*
X121207875Y-113087218D01*
X120871862Y-112673533D01*
X120403116Y-112419924D01*
X120337258Y-112407481D01*
X120127000Y-112530482D01*
X119873000Y-112530482D01*
X119662742Y-112407481D01*
X119596884Y-112419924D01*
X119128138Y-112673533D01*
X118792125Y-113087218D01*
X118640000Y-113598000D01*
X118435000Y-113598000D01*
X118435000Y-113173690D01*
X118338327Y-112940301D01*
X118159698Y-112761673D01*
X117926309Y-112665000D01*
X117846250Y-112665000D01*
X117687500Y-112823750D01*
X117687500Y-112961456D01*
X117607809Y-112842191D01*
X117397765Y-112701843D01*
X117326397Y-112687647D01*
X117303750Y-112665000D01*
X117223691Y-112665000D01*
X117220074Y-112666498D01*
X117150000Y-112652560D01*
X116700000Y-112652560D01*
X116600000Y-112672451D01*
X116500000Y-112652560D01*
X116050000Y-112652560D01*
X115950000Y-112672451D01*
X115850000Y-112652560D01*
X115725534Y-112652560D01*
X115690904Y-112478463D01*
X115534476Y-112244352D01*
X115549999Y-112247440D01*
X116450001Y-112247440D01*
X116793436Y-112179127D01*
X117000000Y-112041105D01*
X117206564Y-112179127D01*
X117549999Y-112247440D01*
X118450001Y-112247440D01*
X118793436Y-112179127D01*
X119000000Y-112041105D01*
X119206564Y-112179127D01*
X119549999Y-112247440D01*
X120450001Y-112247440D01*
X120793436Y-112179127D01*
X121046551Y-112010000D01*
X121302560Y-112010000D01*
X121302560Y-112300000D01*
X121351843Y-112547765D01*
X121492191Y-112757809D01*
X121702235Y-112898157D01*
X121950000Y-112947440D01*
X122188849Y-112947440D01*
X122122569Y-113013720D01*
X121965000Y-113394126D01*
X121965000Y-113805874D01*
X122087115Y-114100687D01*
X121915414Y-114215414D01*
X121720873Y-114506564D01*
X121652560Y-114849999D01*
X121652560Y-115500001D01*
X121720873Y-115843436D01*
X121915414Y-116134586D01*
X121916597Y-116135377D01*
X121761673Y-116290302D01*
X121665000Y-116523691D01*
X121665000Y-116939250D01*
X121823750Y-117098000D01*
X122873000Y-117098000D01*
X122873000Y-117078000D01*
X123127000Y-117078000D01*
X123127000Y-117098000D01*
X124873000Y-117098000D01*
X124873000Y-117078000D01*
X125127000Y-117078000D01*
X125127000Y-117098000D01*
X126176250Y-117098000D01*
X126250000Y-117024250D01*
X126348750Y-117123000D01*
X127873000Y-117123000D01*
X127873000Y-116023750D01*
X128127000Y-116023750D01*
X128127000Y-117123000D01*
X129651250Y-117123000D01*
X129810000Y-116964250D01*
X129810000Y-116373691D01*
X129713327Y-116140302D01*
X129534699Y-115961673D01*
X129301310Y-115865000D01*
X128285750Y-115865000D01*
X128127000Y-116023750D01*
X127873000Y-116023750D01*
X127714250Y-115865000D01*
X126698690Y-115865000D01*
X126465301Y-115961673D01*
X126286673Y-116140302D01*
X126228579Y-116280554D01*
X126083403Y-116135377D01*
X126084586Y-116134586D01*
X126279127Y-115843436D01*
X126347440Y-115500001D01*
X126347440Y-114995440D01*
X126440414Y-115134586D01*
X126731565Y-115329126D01*
X127075000Y-115397440D01*
X128925000Y-115397440D01*
X129268435Y-115329126D01*
X129559586Y-115134586D01*
X129754126Y-114843435D01*
X129822440Y-114500000D01*
X129822440Y-113500000D01*
X129754126Y-113156565D01*
X129559586Y-112865414D01*
X129268435Y-112670874D01*
X128925000Y-112602560D01*
X128611544Y-112602560D01*
X128648157Y-112547765D01*
X128697440Y-112300000D01*
X128697440Y-110310750D01*
X129665000Y-110310750D01*
X129665000Y-110726309D01*
X129761673Y-110959698D01*
X129940301Y-111138327D01*
X130173690Y-111235000D01*
X130714250Y-111235000D01*
X130873000Y-111076250D01*
X130873000Y-110152000D01*
X129823750Y-110152000D01*
X129665000Y-110310750D01*
X128697440Y-110310750D01*
X128697440Y-110300000D01*
X128648157Y-110052235D01*
X128507809Y-109842191D01*
X128297765Y-109701843D01*
X128050000Y-109652560D01*
X126550000Y-109652560D01*
X126302235Y-109701843D01*
X126150000Y-109803564D01*
X125997765Y-109701843D01*
X125750000Y-109652560D01*
X124250000Y-109652560D01*
X124002235Y-109701843D01*
X123850000Y-109803564D01*
X123697765Y-109701843D01*
X123450000Y-109652560D01*
X121950000Y-109652560D01*
X121702235Y-109701843D01*
X121492191Y-109842191D01*
X121351843Y-110052235D01*
X121302560Y-110300000D01*
X121302560Y-110474370D01*
X121279127Y-110356564D01*
X121084586Y-110065414D01*
X120986687Y-110000000D01*
X121084586Y-109934586D01*
X121279127Y-109643436D01*
X121347440Y-109300001D01*
X121347440Y-108649999D01*
X121279127Y-108306564D01*
X121084586Y-108015414D01*
X120942941Y-107920770D01*
X120977431Y-107886280D01*
X121135000Y-107505874D01*
X121135000Y-107094126D01*
X121041271Y-106867845D01*
X122149117Y-105760000D01*
X122452560Y-105760000D01*
X122452560Y-106000000D01*
X122501843Y-106247765D01*
X122642191Y-106457809D01*
X122852235Y-106598157D01*
X123100000Y-106647440D01*
X126900000Y-106647440D01*
X127147765Y-106598157D01*
X127357809Y-106457809D01*
X127498157Y-106247765D01*
X127547440Y-106000000D01*
X127547440Y-105152361D01*
X128677362Y-104022440D01*
X129925000Y-104022440D01*
X130232828Y-103961209D01*
X130225112Y-104000000D01*
X130240001Y-104074852D01*
X130240000Y-106814222D01*
X130206564Y-106820873D01*
X129915414Y-107015414D01*
X129720873Y-107306564D01*
X129652560Y-107649999D01*
X129652560Y-108300001D01*
X129720873Y-108643436D01*
X129915414Y-108934586D01*
X129916597Y-108935377D01*
X129761673Y-109090302D01*
X129665000Y-109323691D01*
X129665000Y-109739250D01*
X129823750Y-109898000D01*
X130873000Y-109898000D01*
X130873000Y-109878000D01*
X131127000Y-109878000D01*
X131127000Y-109898000D01*
X131147000Y-109898000D01*
X131147000Y-110152000D01*
X131127000Y-110152000D01*
X131127000Y-111076250D01*
X131285750Y-111235000D01*
X131826310Y-111235000D01*
X132059699Y-111138327D01*
X132238327Y-110959698D01*
X132290000Y-110834948D01*
X132290000Y-119290000D01*
X120498555Y-119290000D01*
X120915796Y-119070402D01*
X121219293Y-118705380D01*
X121360000Y-118252000D01*
X121360000Y-117927000D01*
X120277000Y-117927000D01*
X120277000Y-117947000D01*
X120023000Y-117947000D01*
X120023000Y-117927000D01*
X118940000Y-117927000D01*
X118940000Y-118252000D01*
X119080707Y-118705380D01*
X119384204Y-119070402D01*
X119801445Y-119290000D01*
X112748555Y-119290000D01*
X113165796Y-119070402D01*
X113469293Y-118705380D01*
X113610000Y-118252000D01*
X113610000Y-117927000D01*
X112527000Y-117927000D01*
X112527000Y-117947000D01*
X112273000Y-117947000D01*
X112273000Y-117927000D01*
X111190000Y-117927000D01*
X111190000Y-118252000D01*
X111330707Y-118705380D01*
X111634204Y-119070402D01*
X112051445Y-119290000D01*
X109841804Y-119290000D01*
X108432903Y-117348000D01*
X111190000Y-117348000D01*
X111190000Y-117673000D01*
X112273000Y-117673000D01*
X112273000Y-116431450D01*
X112527000Y-116431450D01*
X112527000Y-117673000D01*
X113610000Y-117673000D01*
X113610000Y-117348000D01*
X118940000Y-117348000D01*
X118940000Y-117673000D01*
X120023000Y-117673000D01*
X120023000Y-116431450D01*
X120277000Y-116431450D01*
X120277000Y-117673000D01*
X121360000Y-117673000D01*
X121360000Y-117510750D01*
X121665000Y-117510750D01*
X121665000Y-117926309D01*
X121761673Y-118159698D01*
X121940301Y-118338327D01*
X122173690Y-118435000D01*
X122714250Y-118435000D01*
X122873000Y-118276250D01*
X122873000Y-117352000D01*
X123127000Y-117352000D01*
X123127000Y-118276250D01*
X123285750Y-118435000D01*
X123826310Y-118435000D01*
X124000000Y-118363055D01*
X124173690Y-118435000D01*
X124714250Y-118435000D01*
X124873000Y-118276250D01*
X124873000Y-117352000D01*
X125127000Y-117352000D01*
X125127000Y-118276250D01*
X125285750Y-118435000D01*
X125826310Y-118435000D01*
X126059699Y-118338327D01*
X126213934Y-118184091D01*
X126286673Y-118359698D01*
X126465301Y-118538327D01*
X126698690Y-118635000D01*
X127714250Y-118635000D01*
X127873000Y-118476250D01*
X127873000Y-117377000D01*
X128127000Y-117377000D01*
X128127000Y-118476250D01*
X128285750Y-118635000D01*
X129301310Y-118635000D01*
X129534699Y-118538327D01*
X129713327Y-118359698D01*
X129810000Y-118126309D01*
X129810000Y-117535750D01*
X129651250Y-117377000D01*
X128127000Y-117377000D01*
X127873000Y-117377000D01*
X126348750Y-117377000D01*
X126275000Y-117450750D01*
X126176250Y-117352000D01*
X125127000Y-117352000D01*
X124873000Y-117352000D01*
X123127000Y-117352000D01*
X122873000Y-117352000D01*
X121823750Y-117352000D01*
X121665000Y-117510750D01*
X121360000Y-117510750D01*
X121360000Y-117348000D01*
X121219293Y-116894620D01*
X120915796Y-116529598D01*
X120495714Y-116308505D01*
X120463677Y-116306365D01*
X120277000Y-116431450D01*
X120023000Y-116431450D01*
X119836323Y-116306365D01*
X119804286Y-116308505D01*
X119384204Y-116529598D01*
X119080707Y-116894620D01*
X118940000Y-117348000D01*
X113610000Y-117348000D01*
X113469293Y-116894620D01*
X113165796Y-116529598D01*
X112745714Y-116308505D01*
X112713677Y-116306365D01*
X112527000Y-116431450D01*
X112273000Y-116431450D01*
X112086323Y-116306365D01*
X112054286Y-116308505D01*
X111634204Y-116529598D01*
X111330707Y-116894620D01*
X111190000Y-117348000D01*
X108432903Y-117348000D01*
X106096100Y-114127000D01*
X111190000Y-114127000D01*
X111190000Y-114402000D01*
X111342125Y-114912782D01*
X111678138Y-115326467D01*
X112146884Y-115580076D01*
X112212742Y-115592519D01*
X112423000Y-115469518D01*
X112423000Y-114127000D01*
X111190000Y-114127000D01*
X106096100Y-114127000D01*
X105712316Y-113598000D01*
X111190000Y-113598000D01*
X111190000Y-113873000D01*
X112423000Y-113873000D01*
X112423000Y-112530482D01*
X112212742Y-112407481D01*
X112146884Y-112419924D01*
X111678138Y-112673533D01*
X111342125Y-113087218D01*
X111190000Y-113598000D01*
X105712316Y-113598000D01*
X95528279Y-99560545D01*
X95629725Y-96273691D01*
X96665000Y-96273691D01*
X96665000Y-96689250D01*
X96823750Y-96848000D01*
X97873000Y-96848000D01*
X97873000Y-95923750D01*
X98127000Y-95923750D01*
X98127000Y-96848000D01*
X99873000Y-96848000D01*
X99873000Y-95923750D01*
X100127000Y-95923750D01*
X100127000Y-96848000D01*
X101873000Y-96848000D01*
X101873000Y-95923750D01*
X101714250Y-95765000D01*
X101173690Y-95765000D01*
X101000000Y-95836945D01*
X100826310Y-95765000D01*
X100285750Y-95765000D01*
X100127000Y-95923750D01*
X99873000Y-95923750D01*
X99714250Y-95765000D01*
X99173690Y-95765000D01*
X99000000Y-95836945D01*
X98826310Y-95765000D01*
X98285750Y-95765000D01*
X98127000Y-95923750D01*
X97873000Y-95923750D01*
X97714250Y-95765000D01*
X97173690Y-95765000D01*
X96940301Y-95861673D01*
X96761673Y-96040302D01*
X96665000Y-96273691D01*
X95629725Y-96273691D01*
X96023131Y-83527333D01*
X132290001Y-83625088D01*
G36*
X122127000Y-101898000D02*
X123873000Y-101898000D01*
X123873000Y-101878000D01*
X124127000Y-101878000D01*
X124127000Y-101898000D01*
X124798750Y-101898000D01*
X124823750Y-101923000D01*
X125873000Y-101923000D01*
X125873000Y-101903000D01*
X126127000Y-101903000D01*
X126127000Y-101923000D01*
X126147000Y-101923000D01*
X126147000Y-102177000D01*
X126127000Y-102177000D01*
X126127000Y-103101250D01*
X126285750Y-103260000D01*
X126826310Y-103260000D01*
X127059699Y-103163327D01*
X127177560Y-103045465D01*
X127177560Y-103125000D01*
X127218646Y-103331552D01*
X127148119Y-103402080D01*
X127147765Y-103401843D01*
X126900000Y-103352560D01*
X123100000Y-103352560D01*
X122852235Y-103401843D01*
X122642191Y-103542191D01*
X122501843Y-103752235D01*
X122452560Y-104000000D01*
X122452560Y-104240000D01*
X121909163Y-104240000D01*
X121834315Y-104225112D01*
X121759467Y-104240000D01*
X121759463Y-104240000D01*
X121614651Y-104268805D01*
X121537777Y-104284096D01*
X121364316Y-104400000D01*
X121286386Y-104452071D01*
X121243986Y-104515527D01*
X119615528Y-106143986D01*
X119552072Y-106186386D01*
X119384096Y-106437778D01*
X119355686Y-106580603D01*
X119222569Y-106713720D01*
X119065000Y-107094126D01*
X119065000Y-107505874D01*
X119197880Y-107826675D01*
X119000000Y-107958895D01*
X118793436Y-107820873D01*
X118450001Y-107752560D01*
X117549999Y-107752560D01*
X117255440Y-107811151D01*
X117297440Y-107600000D01*
X117297440Y-105285000D01*
X117364250Y-105285000D01*
X117523000Y-105126250D01*
X117523000Y-105021026D01*
X117690302Y-105188327D01*
X117923691Y-105285000D01*
X118264250Y-105285000D01*
X118326434Y-105222816D01*
X118409698Y-105188327D01*
X118550000Y-105048026D01*
X118690302Y-105188327D01*
X118773566Y-105222816D01*
X118835750Y-105285000D01*
X119264250Y-105285000D01*
X119326434Y-105222816D01*
X119409698Y-105188327D01*
X119588327Y-105009699D01*
X119677000Y-104795624D01*
X119677000Y-105126250D01*
X119835750Y-105285000D01*
X120176309Y-105285000D01*
X120409698Y-105188327D01*
X120588327Y-105009699D01*
X120685000Y-104776310D01*
X120685000Y-104683750D01*
X120526250Y-104525000D01*
X119685000Y-104525000D01*
X119685000Y-104497440D01*
X120050000Y-104497440D01*
X120297765Y-104448157D01*
X120507809Y-104307809D01*
X120536742Y-104264508D01*
X120685000Y-104116250D01*
X120685000Y-104023690D01*
X120670064Y-103987631D01*
X120697440Y-103850000D01*
X120697440Y-103350000D01*
X120670064Y-103212369D01*
X120685000Y-103176310D01*
X120685000Y-103083750D01*
X120536742Y-102935492D01*
X120507809Y-102892191D01*
X120369836Y-102800000D01*
X120507809Y-102707809D01*
X120536742Y-102664508D01*
X120665000Y-102536250D01*
X120665000Y-102726309D01*
X120761673Y-102959698D01*
X120940301Y-103138327D01*
X121173690Y-103235000D01*
X121714250Y-103235000D01*
X121873000Y-103076250D01*
X121873000Y-102152000D01*
X122127000Y-102152000D01*
X122127000Y-103076250D01*
X122285750Y-103235000D01*
X122826310Y-103235000D01*
X123000000Y-103163055D01*
X123173690Y-103235000D01*
X123714250Y-103235000D01*
X123873000Y-103076250D01*
X123873000Y-102152000D01*
X124127000Y-102152000D01*
X124127000Y-103076250D01*
X124285750Y-103235000D01*
X124826310Y-103235000D01*
X124969822Y-103175555D01*
X125173690Y-103260000D01*
X125714250Y-103260000D01*
X125873000Y-103101250D01*
X125873000Y-102177000D01*
X125201250Y-102177000D01*
X125176250Y-102152000D01*
X124127000Y-102152000D01*
X123873000Y-102152000D01*
X122127000Y-102152000D01*
X121873000Y-102152000D01*
X121853000Y-102152000D01*
X121853000Y-101898000D01*
X121873000Y-101898000D01*
X121873000Y-101878000D01*
X122127000Y-101878000D01*
X122127000Y-101898000D01*
X122127000Y-101898000D01*
G37*
X122127000Y-101898000D02*
X123873000Y-101898000D01*
X123873000Y-101878000D01*
X124127000Y-101878000D01*
X124127000Y-101898000D01*
X124798750Y-101898000D01*
X124823750Y-101923000D01*
X125873000Y-101923000D01*
X125873000Y-101903000D01*
X126127000Y-101903000D01*
X126127000Y-101923000D01*
X126147000Y-101923000D01*
X126147000Y-102177000D01*
X126127000Y-102177000D01*
X126127000Y-103101250D01*
X126285750Y-103260000D01*
X126826310Y-103260000D01*
X127059699Y-103163327D01*
X127177560Y-103045465D01*
X127177560Y-103125000D01*
X127218646Y-103331552D01*
X127148119Y-103402080D01*
X127147765Y-103401843D01*
X126900000Y-103352560D01*
X123100000Y-103352560D01*
X122852235Y-103401843D01*
X122642191Y-103542191D01*
X122501843Y-103752235D01*
X122452560Y-104000000D01*
X122452560Y-104240000D01*
X121909163Y-104240000D01*
X121834315Y-104225112D01*
X121759467Y-104240000D01*
X121759463Y-104240000D01*
X121614651Y-104268805D01*
X121537777Y-104284096D01*
X121364316Y-104400000D01*
X121286386Y-104452071D01*
X121243986Y-104515527D01*
X119615528Y-106143986D01*
X119552072Y-106186386D01*
X119384096Y-106437778D01*
X119355686Y-106580603D01*
X119222569Y-106713720D01*
X119065000Y-107094126D01*
X119065000Y-107505874D01*
X119197880Y-107826675D01*
X119000000Y-107958895D01*
X118793436Y-107820873D01*
X118450001Y-107752560D01*
X117549999Y-107752560D01*
X117255440Y-107811151D01*
X117297440Y-107600000D01*
X117297440Y-105285000D01*
X117364250Y-105285000D01*
X117523000Y-105126250D01*
X117523000Y-105021026D01*
X117690302Y-105188327D01*
X117923691Y-105285000D01*
X118264250Y-105285000D01*
X118326434Y-105222816D01*
X118409698Y-105188327D01*
X118550000Y-105048026D01*
X118690302Y-105188327D01*
X118773566Y-105222816D01*
X118835750Y-105285000D01*
X119264250Y-105285000D01*
X119326434Y-105222816D01*
X119409698Y-105188327D01*
X119588327Y-105009699D01*
X119677000Y-104795624D01*
X119677000Y-105126250D01*
X119835750Y-105285000D01*
X120176309Y-105285000D01*
X120409698Y-105188327D01*
X120588327Y-105009699D01*
X120685000Y-104776310D01*
X120685000Y-104683750D01*
X120526250Y-104525000D01*
X119685000Y-104525000D01*
X119685000Y-104497440D01*
X120050000Y-104497440D01*
X120297765Y-104448157D01*
X120507809Y-104307809D01*
X120536742Y-104264508D01*
X120685000Y-104116250D01*
X120685000Y-104023690D01*
X120670064Y-103987631D01*
X120697440Y-103850000D01*
X120697440Y-103350000D01*
X120670064Y-103212369D01*
X120685000Y-103176310D01*
X120685000Y-103083750D01*
X120536742Y-102935492D01*
X120507809Y-102892191D01*
X120369836Y-102800000D01*
X120507809Y-102707809D01*
X120536742Y-102664508D01*
X120665000Y-102536250D01*
X120665000Y-102726309D01*
X120761673Y-102959698D01*
X120940301Y-103138327D01*
X121173690Y-103235000D01*
X121714250Y-103235000D01*
X121873000Y-103076250D01*
X121873000Y-102152000D01*
X122127000Y-102152000D01*
X122127000Y-103076250D01*
X122285750Y-103235000D01*
X122826310Y-103235000D01*
X123000000Y-103163055D01*
X123173690Y-103235000D01*
X123714250Y-103235000D01*
X123873000Y-103076250D01*
X123873000Y-102152000D01*
X124127000Y-102152000D01*
X124127000Y-103076250D01*
X124285750Y-103235000D01*
X124826310Y-103235000D01*
X124969822Y-103175555D01*
X125173690Y-103260000D01*
X125714250Y-103260000D01*
X125873000Y-103101250D01*
X125873000Y-102177000D01*
X125201250Y-102177000D01*
X125176250Y-102152000D01*
X124127000Y-102152000D01*
X123873000Y-102152000D01*
X122127000Y-102152000D01*
X121873000Y-102152000D01*
X121853000Y-102152000D01*
X121853000Y-101898000D01*
X121873000Y-101898000D01*
X121873000Y-101878000D01*
X122127000Y-101878000D01*
X122127000Y-101898000D01*
G36*
X119677000Y-104675750D02*
X119528252Y-104527002D01*
X119677000Y-104527002D01*
X119677000Y-104675750D01*
X119677000Y-104675750D01*
G37*
X119677000Y-104675750D02*
X119528252Y-104527002D01*
X119677000Y-104527002D01*
X119677000Y-104675750D01*
G36*
X117523000Y-104575750D02*
X117523000Y-104527002D01*
X117571748Y-104527002D01*
X117523000Y-104575750D01*
X117523000Y-104575750D01*
G37*
X117523000Y-104575750D02*
X117523000Y-104527002D01*
X117571748Y-104527002D01*
X117523000Y-104575750D01*
G36*
X118550000Y-104548750D02*
X118528252Y-104527002D01*
X118571748Y-104527002D01*
X118550000Y-104548750D01*
X118550000Y-104548750D01*
G37*
X118550000Y-104548750D02*
X118528252Y-104527002D01*
X118571748Y-104527002D01*
X118550000Y-104548750D01*
G36*
X110892191Y-95657809D02*
X110935492Y-95686742D01*
X111083750Y-95835000D01*
X111176310Y-95835000D01*
X111212369Y-95820064D01*
X111350000Y-95847440D01*
X111850000Y-95847440D01*
X112000000Y-95817603D01*
X112150000Y-95847440D01*
X112650000Y-95847440D01*
X112800000Y-95817603D01*
X112950000Y-95847440D01*
X113450000Y-95847440D01*
X113600000Y-95817603D01*
X113750000Y-95847440D01*
X114250000Y-95847440D01*
X114400000Y-95817603D01*
X114550000Y-95847440D01*
X115050000Y-95847440D01*
X115200000Y-95817603D01*
X115350000Y-95847440D01*
X115850000Y-95847440D01*
X116000000Y-95817603D01*
X116150000Y-95847440D01*
X116602560Y-95847440D01*
X116602560Y-95850000D01*
X116632397Y-96000000D01*
X116602560Y-96150000D01*
X116602560Y-96650000D01*
X116632397Y-96800000D01*
X116602560Y-96950000D01*
X116602560Y-97450000D01*
X116632397Y-97600000D01*
X116602560Y-97750000D01*
X116602560Y-98250000D01*
X116632397Y-98400000D01*
X116602560Y-98550000D01*
X116602560Y-99050000D01*
X116632397Y-99200000D01*
X116602560Y-99350000D01*
X116602560Y-99850000D01*
X116632397Y-100000000D01*
X116602560Y-100150000D01*
X116602560Y-100650000D01*
X116632397Y-100800000D01*
X116602560Y-100950000D01*
X116602560Y-101450000D01*
X116632397Y-101600000D01*
X116602560Y-101750000D01*
X116602560Y-102250000D01*
X116629936Y-102387631D01*
X116615000Y-102423690D01*
X116615000Y-102516250D01*
X116763258Y-102664508D01*
X116792191Y-102707809D01*
X116930164Y-102800000D01*
X116792191Y-102892191D01*
X116763258Y-102935492D01*
X116615000Y-103083750D01*
X116615000Y-103176310D01*
X116629936Y-103212369D01*
X116602560Y-103350000D01*
X116602560Y-103850000D01*
X116629936Y-103987631D01*
X116615000Y-104023690D01*
X116615000Y-104116250D01*
X116651635Y-104152885D01*
X116650000Y-104152560D01*
X116150000Y-104152560D01*
X116000000Y-104182397D01*
X115850000Y-104152560D01*
X115350000Y-104152560D01*
X115200000Y-104182397D01*
X115050000Y-104152560D01*
X114550000Y-104152560D01*
X114400000Y-104182397D01*
X114250000Y-104152560D01*
X113750000Y-104152560D01*
X113600000Y-104182397D01*
X113450000Y-104152560D01*
X112950000Y-104152560D01*
X112800000Y-104182397D01*
X112650000Y-104152560D01*
X112150000Y-104152560D01*
X112000000Y-104182397D01*
X111850000Y-104152560D01*
X111350000Y-104152560D01*
X111200000Y-104182397D01*
X111050000Y-104152560D01*
X110550000Y-104152560D01*
X110400000Y-104182397D01*
X110250000Y-104152560D01*
X109750000Y-104152560D01*
X109600000Y-104182397D01*
X109450000Y-104152560D01*
X108950000Y-104152560D01*
X108800000Y-104182397D01*
X108650000Y-104152560D01*
X108150000Y-104152560D01*
X108000000Y-104182397D01*
X107850000Y-104152560D01*
X107397440Y-104152560D01*
X107397440Y-104150000D01*
X107367603Y-104000000D01*
X107397440Y-103850000D01*
X107397440Y-103350000D01*
X107367603Y-103200000D01*
X107397440Y-103050000D01*
X107397440Y-102785750D01*
X108065000Y-102785750D01*
X108065000Y-103426309D01*
X108161673Y-103659698D01*
X108340301Y-103838327D01*
X108573690Y-103935000D01*
X109214250Y-103935000D01*
X109373000Y-103776250D01*
X109373000Y-102627000D01*
X109627000Y-102627000D01*
X109627000Y-103776250D01*
X109785750Y-103935000D01*
X110426310Y-103935000D01*
X110659699Y-103838327D01*
X110750000Y-103748025D01*
X110840301Y-103838327D01*
X111073690Y-103935000D01*
X111714250Y-103935000D01*
X111873000Y-103776250D01*
X111873000Y-102627000D01*
X112127000Y-102627000D01*
X112127000Y-103776250D01*
X112285750Y-103935000D01*
X112926310Y-103935000D01*
X113159699Y-103838327D01*
X113250000Y-103748025D01*
X113340301Y-103838327D01*
X113573690Y-103935000D01*
X114214250Y-103935000D01*
X114373000Y-103776250D01*
X114373000Y-102627000D01*
X114627000Y-102627000D01*
X114627000Y-103776250D01*
X114785750Y-103935000D01*
X115426310Y-103935000D01*
X115659699Y-103838327D01*
X115838327Y-103659698D01*
X115935000Y-103426309D01*
X115935000Y-102785750D01*
X115776250Y-102627000D01*
X114627000Y-102627000D01*
X114373000Y-102627000D01*
X112127000Y-102627000D01*
X111873000Y-102627000D01*
X109627000Y-102627000D01*
X109373000Y-102627000D01*
X108223750Y-102627000D01*
X108065000Y-102785750D01*
X107397440Y-102785750D01*
X107397440Y-102550000D01*
X107367603Y-102400000D01*
X107397440Y-102250000D01*
X107397440Y-101750000D01*
X107367603Y-101600000D01*
X107397440Y-101450000D01*
X107397440Y-100950000D01*
X107370064Y-100812369D01*
X107385000Y-100776310D01*
X107385000Y-100683750D01*
X107236742Y-100535492D01*
X107207809Y-100492191D01*
X107069836Y-100400000D01*
X107207809Y-100307809D01*
X107222548Y-100285750D01*
X108065000Y-100285750D01*
X108065000Y-100926309D01*
X108161673Y-101159698D01*
X108251974Y-101250000D01*
X108161673Y-101340302D01*
X108065000Y-101573691D01*
X108065000Y-102214250D01*
X108223750Y-102373000D01*
X109373000Y-102373000D01*
X109373000Y-100127000D01*
X109627000Y-100127000D01*
X109627000Y-102373000D01*
X111873000Y-102373000D01*
X111873000Y-100127000D01*
X112127000Y-100127000D01*
X112127000Y-102373000D01*
X114373000Y-102373000D01*
X114373000Y-100127000D01*
X114627000Y-100127000D01*
X114627000Y-102373000D01*
X115776250Y-102373000D01*
X115935000Y-102214250D01*
X115935000Y-101573691D01*
X115838327Y-101340302D01*
X115748026Y-101250000D01*
X115838327Y-101159698D01*
X115935000Y-100926309D01*
X115935000Y-100285750D01*
X115776250Y-100127000D01*
X114627000Y-100127000D01*
X114373000Y-100127000D01*
X112127000Y-100127000D01*
X111873000Y-100127000D01*
X109627000Y-100127000D01*
X109373000Y-100127000D01*
X108223750Y-100127000D01*
X108065000Y-100285750D01*
X107222548Y-100285750D01*
X107236742Y-100264508D01*
X107385000Y-100116250D01*
X107385000Y-100023690D01*
X107370064Y-99987631D01*
X107389179Y-99891530D01*
X107494126Y-99935000D01*
X107905874Y-99935000D01*
X108174487Y-99823737D01*
X108223750Y-99873000D01*
X109373000Y-99873000D01*
X109373000Y-97627000D01*
X109627000Y-97627000D01*
X109627000Y-99873000D01*
X111873000Y-99873000D01*
X111873000Y-97627000D01*
X112127000Y-97627000D01*
X112127000Y-99873000D01*
X114373000Y-99873000D01*
X114373000Y-97627000D01*
X114627000Y-97627000D01*
X114627000Y-99873000D01*
X115776250Y-99873000D01*
X115935000Y-99714250D01*
X115935000Y-99073691D01*
X115838327Y-98840302D01*
X115748026Y-98750000D01*
X115838327Y-98659698D01*
X115935000Y-98426309D01*
X115935000Y-97785750D01*
X115776250Y-97627000D01*
X114627000Y-97627000D01*
X114373000Y-97627000D01*
X112127000Y-97627000D01*
X111873000Y-97627000D01*
X109627000Y-97627000D01*
X109373000Y-97627000D01*
X108223750Y-97627000D01*
X108065000Y-97785750D01*
X108065000Y-97930912D01*
X107905874Y-97865000D01*
X107494126Y-97865000D01*
X107397440Y-97905049D01*
X107397440Y-97750000D01*
X107370064Y-97612369D01*
X107385000Y-97576310D01*
X107385000Y-97483750D01*
X107236742Y-97335492D01*
X107207809Y-97292191D01*
X107069836Y-97200000D01*
X107207809Y-97107809D01*
X107236742Y-97064508D01*
X107385000Y-96916250D01*
X107385000Y-96823690D01*
X107370064Y-96787631D01*
X107397440Y-96650000D01*
X107397440Y-96573691D01*
X108065000Y-96573691D01*
X108065000Y-97214250D01*
X108223750Y-97373000D01*
X109373000Y-97373000D01*
X109373000Y-96223750D01*
X109627000Y-96223750D01*
X109627000Y-97373000D01*
X111873000Y-97373000D01*
X111873000Y-96223750D01*
X112127000Y-96223750D01*
X112127000Y-97373000D01*
X114373000Y-97373000D01*
X114373000Y-96223750D01*
X114627000Y-96223750D01*
X114627000Y-97373000D01*
X115776250Y-97373000D01*
X115935000Y-97214250D01*
X115935000Y-96573691D01*
X115838327Y-96340302D01*
X115659699Y-96161673D01*
X115426310Y-96065000D01*
X114785750Y-96065000D01*
X114627000Y-96223750D01*
X114373000Y-96223750D01*
X114214250Y-96065000D01*
X113573690Y-96065000D01*
X113340301Y-96161673D01*
X113250000Y-96251975D01*
X113159699Y-96161673D01*
X112926310Y-96065000D01*
X112285750Y-96065000D01*
X112127000Y-96223750D01*
X111873000Y-96223750D01*
X111714250Y-96065000D01*
X111073690Y-96065000D01*
X110840301Y-96161673D01*
X110750000Y-96251975D01*
X110659699Y-96161673D01*
X110426310Y-96065000D01*
X109785750Y-96065000D01*
X109627000Y-96223750D01*
X109373000Y-96223750D01*
X109214250Y-96065000D01*
X108573690Y-96065000D01*
X108340301Y-96161673D01*
X108161673Y-96340302D01*
X108065000Y-96573691D01*
X107397440Y-96573691D01*
X107397440Y-96150000D01*
X107367603Y-96000000D01*
X107397440Y-95850000D01*
X107397440Y-95847440D01*
X107850000Y-95847440D01*
X108000000Y-95817603D01*
X108150000Y-95847440D01*
X108650000Y-95847440D01*
X108800000Y-95817603D01*
X108950000Y-95847440D01*
X109450000Y-95847440D01*
X109600000Y-95817603D01*
X109750000Y-95847440D01*
X110250000Y-95847440D01*
X110387631Y-95820064D01*
X110423690Y-95835000D01*
X110516250Y-95835000D01*
X110664508Y-95686742D01*
X110707809Y-95657809D01*
X110800000Y-95519836D01*
X110892191Y-95657809D01*
X110892191Y-95657809D01*
G37*
X110892191Y-95657809D02*
X110935492Y-95686742D01*
X111083750Y-95835000D01*
X111176310Y-95835000D01*
X111212369Y-95820064D01*
X111350000Y-95847440D01*
X111850000Y-95847440D01*
X112000000Y-95817603D01*
X112150000Y-95847440D01*
X112650000Y-95847440D01*
X112800000Y-95817603D01*
X112950000Y-95847440D01*
X113450000Y-95847440D01*
X113600000Y-95817603D01*
X113750000Y-95847440D01*
X114250000Y-95847440D01*
X114400000Y-95817603D01*
X114550000Y-95847440D01*
X115050000Y-95847440D01*
X115200000Y-95817603D01*
X115350000Y-95847440D01*
X115850000Y-95847440D01*
X116000000Y-95817603D01*
X116150000Y-95847440D01*
X116602560Y-95847440D01*
X116602560Y-95850000D01*
X116632397Y-96000000D01*
X116602560Y-96150000D01*
X116602560Y-96650000D01*
X116632397Y-96800000D01*
X116602560Y-96950000D01*
X116602560Y-97450000D01*
X116632397Y-97600000D01*
X116602560Y-97750000D01*
X116602560Y-98250000D01*
X116632397Y-98400000D01*
X116602560Y-98550000D01*
X116602560Y-99050000D01*
X116632397Y-99200000D01*
X116602560Y-99350000D01*
X116602560Y-99850000D01*
X116632397Y-100000000D01*
X116602560Y-100150000D01*
X116602560Y-100650000D01*
X116632397Y-100800000D01*
X116602560Y-100950000D01*
X116602560Y-101450000D01*
X116632397Y-101600000D01*
X116602560Y-101750000D01*
X116602560Y-102250000D01*
X116629936Y-102387631D01*
X116615000Y-102423690D01*
X116615000Y-102516250D01*
X116763258Y-102664508D01*
X116792191Y-102707809D01*
X116930164Y-102800000D01*
X116792191Y-102892191D01*
X116763258Y-102935492D01*
X116615000Y-103083750D01*
X116615000Y-103176310D01*
X116629936Y-103212369D01*
X116602560Y-103350000D01*
X116602560Y-103850000D01*
X116629936Y-103987631D01*
X116615000Y-104023690D01*
X116615000Y-104116250D01*
X116651635Y-104152885D01*
X116650000Y-104152560D01*
X116150000Y-104152560D01*
X116000000Y-104182397D01*
X115850000Y-104152560D01*
X115350000Y-104152560D01*
X115200000Y-104182397D01*
X115050000Y-104152560D01*
X114550000Y-104152560D01*
X114400000Y-104182397D01*
X114250000Y-104152560D01*
X113750000Y-104152560D01*
X113600000Y-104182397D01*
X113450000Y-104152560D01*
X112950000Y-104152560D01*
X112800000Y-104182397D01*
X112650000Y-104152560D01*
X112150000Y-104152560D01*
X112000000Y-104182397D01*
X111850000Y-104152560D01*
X111350000Y-104152560D01*
X111200000Y-104182397D01*
X111050000Y-104152560D01*
X110550000Y-104152560D01*
X110400000Y-104182397D01*
X110250000Y-104152560D01*
X109750000Y-104152560D01*
X109600000Y-104182397D01*
X109450000Y-104152560D01*
X108950000Y-104152560D01*
X108800000Y-104182397D01*
X108650000Y-104152560D01*
X108150000Y-104152560D01*
X108000000Y-104182397D01*
X107850000Y-104152560D01*
X107397440Y-104152560D01*
X107397440Y-104150000D01*
X107367603Y-104000000D01*
X107397440Y-103850000D01*
X107397440Y-103350000D01*
X107367603Y-103200000D01*
X107397440Y-103050000D01*
X107397440Y-102785750D01*
X108065000Y-102785750D01*
X108065000Y-103426309D01*
X108161673Y-103659698D01*
X108340301Y-103838327D01*
X108573690Y-103935000D01*
X109214250Y-103935000D01*
X109373000Y-103776250D01*
X109373000Y-102627000D01*
X109627000Y-102627000D01*
X109627000Y-103776250D01*
X109785750Y-103935000D01*
X110426310Y-103935000D01*
X110659699Y-103838327D01*
X110750000Y-103748025D01*
X110840301Y-103838327D01*
X111073690Y-103935000D01*
X111714250Y-103935000D01*
X111873000Y-103776250D01*
X111873000Y-102627000D01*
X112127000Y-102627000D01*
X112127000Y-103776250D01*
X112285750Y-103935000D01*
X112926310Y-103935000D01*
X113159699Y-103838327D01*
X113250000Y-103748025D01*
X113340301Y-103838327D01*
X113573690Y-103935000D01*
X114214250Y-103935000D01*
X114373000Y-103776250D01*
X114373000Y-102627000D01*
X114627000Y-102627000D01*
X114627000Y-103776250D01*
X114785750Y-103935000D01*
X115426310Y-103935000D01*
X115659699Y-103838327D01*
X115838327Y-103659698D01*
X115935000Y-103426309D01*
X115935000Y-102785750D01*
X115776250Y-102627000D01*
X114627000Y-102627000D01*
X114373000Y-102627000D01*
X112127000Y-102627000D01*
X111873000Y-102627000D01*
X109627000Y-102627000D01*
X109373000Y-102627000D01*
X108223750Y-102627000D01*
X108065000Y-102785750D01*
X107397440Y-102785750D01*
X107397440Y-102550000D01*
X107367603Y-102400000D01*
X107397440Y-102250000D01*
X107397440Y-101750000D01*
X107367603Y-101600000D01*
X107397440Y-101450000D01*
X107397440Y-100950000D01*
X107370064Y-100812369D01*
X107385000Y-100776310D01*
X107385000Y-100683750D01*
X107236742Y-100535492D01*
X107207809Y-100492191D01*
X107069836Y-100400000D01*
X107207809Y-100307809D01*
X107222548Y-100285750D01*
X108065000Y-100285750D01*
X108065000Y-100926309D01*
X108161673Y-101159698D01*
X108251974Y-101250000D01*
X108161673Y-101340302D01*
X108065000Y-101573691D01*
X108065000Y-102214250D01*
X108223750Y-102373000D01*
X109373000Y-102373000D01*
X109373000Y-100127000D01*
X109627000Y-100127000D01*
X109627000Y-102373000D01*
X111873000Y-102373000D01*
X111873000Y-100127000D01*
X112127000Y-100127000D01*
X112127000Y-102373000D01*
X114373000Y-102373000D01*
X114373000Y-100127000D01*
X114627000Y-100127000D01*
X114627000Y-102373000D01*
X115776250Y-102373000D01*
X115935000Y-102214250D01*
X115935000Y-101573691D01*
X115838327Y-101340302D01*
X115748026Y-101250000D01*
X115838327Y-101159698D01*
X115935000Y-100926309D01*
X115935000Y-100285750D01*
X115776250Y-100127000D01*
X114627000Y-100127000D01*
X114373000Y-100127000D01*
X112127000Y-100127000D01*
X111873000Y-100127000D01*
X109627000Y-100127000D01*
X109373000Y-100127000D01*
X108223750Y-100127000D01*
X108065000Y-100285750D01*
X107222548Y-100285750D01*
X107236742Y-100264508D01*
X107385000Y-100116250D01*
X107385000Y-100023690D01*
X107370064Y-99987631D01*
X107389179Y-99891530D01*
X107494126Y-99935000D01*
X107905874Y-99935000D01*
X108174487Y-99823737D01*
X108223750Y-99873000D01*
X109373000Y-99873000D01*
X109373000Y-97627000D01*
X109627000Y-97627000D01*
X109627000Y-99873000D01*
X111873000Y-99873000D01*
X111873000Y-97627000D01*
X112127000Y-97627000D01*
X112127000Y-99873000D01*
X114373000Y-99873000D01*
X114373000Y-97627000D01*
X114627000Y-97627000D01*
X114627000Y-99873000D01*
X115776250Y-99873000D01*
X115935000Y-99714250D01*
X115935000Y-99073691D01*
X115838327Y-98840302D01*
X115748026Y-98750000D01*
X115838327Y-98659698D01*
X115935000Y-98426309D01*
X115935000Y-97785750D01*
X115776250Y-97627000D01*
X114627000Y-97627000D01*
X114373000Y-97627000D01*
X112127000Y-97627000D01*
X111873000Y-97627000D01*
X109627000Y-97627000D01*
X109373000Y-97627000D01*
X108223750Y-97627000D01*
X108065000Y-97785750D01*
X108065000Y-97930912D01*
X107905874Y-97865000D01*
X107494126Y-97865000D01*
X107397440Y-97905049D01*
X107397440Y-97750000D01*
X107370064Y-97612369D01*
X107385000Y-97576310D01*
X107385000Y-97483750D01*
X107236742Y-97335492D01*
X107207809Y-97292191D01*
X107069836Y-97200000D01*
X107207809Y-97107809D01*
X107236742Y-97064508D01*
X107385000Y-96916250D01*
X107385000Y-96823690D01*
X107370064Y-96787631D01*
X107397440Y-96650000D01*
X107397440Y-96573691D01*
X108065000Y-96573691D01*
X108065000Y-97214250D01*
X108223750Y-97373000D01*
X109373000Y-97373000D01*
X109373000Y-96223750D01*
X109627000Y-96223750D01*
X109627000Y-97373000D01*
X111873000Y-97373000D01*
X111873000Y-96223750D01*
X112127000Y-96223750D01*
X112127000Y-97373000D01*
X114373000Y-97373000D01*
X114373000Y-96223750D01*
X114627000Y-96223750D01*
X114627000Y-97373000D01*
X115776250Y-97373000D01*
X115935000Y-97214250D01*
X115935000Y-96573691D01*
X115838327Y-96340302D01*
X115659699Y-96161673D01*
X115426310Y-96065000D01*
X114785750Y-96065000D01*
X114627000Y-96223750D01*
X114373000Y-96223750D01*
X114214250Y-96065000D01*
X113573690Y-96065000D01*
X113340301Y-96161673D01*
X113250000Y-96251975D01*
X113159699Y-96161673D01*
X112926310Y-96065000D01*
X112285750Y-96065000D01*
X112127000Y-96223750D01*
X111873000Y-96223750D01*
X111714250Y-96065000D01*
X111073690Y-96065000D01*
X110840301Y-96161673D01*
X110750000Y-96251975D01*
X110659699Y-96161673D01*
X110426310Y-96065000D01*
X109785750Y-96065000D01*
X109627000Y-96223750D01*
X109373000Y-96223750D01*
X109214250Y-96065000D01*
X108573690Y-96065000D01*
X108340301Y-96161673D01*
X108161673Y-96340302D01*
X108065000Y-96573691D01*
X107397440Y-96573691D01*
X107397440Y-96150000D01*
X107367603Y-96000000D01*
X107397440Y-95850000D01*
X107397440Y-95847440D01*
X107850000Y-95847440D01*
X108000000Y-95817603D01*
X108150000Y-95847440D01*
X108650000Y-95847440D01*
X108800000Y-95817603D01*
X108950000Y-95847440D01*
X109450000Y-95847440D01*
X109600000Y-95817603D01*
X109750000Y-95847440D01*
X110250000Y-95847440D01*
X110387631Y-95820064D01*
X110423690Y-95835000D01*
X110516250Y-95835000D01*
X110664508Y-95686742D01*
X110707809Y-95657809D01*
X110800000Y-95519836D01*
X110892191Y-95657809D01*
G36*
X110152000Y-90873000D02*
X110172000Y-90873000D01*
X110172000Y-91127000D01*
X110152000Y-91127000D01*
X110152000Y-91147000D01*
X109898000Y-91147000D01*
X109898000Y-91127000D01*
X109878000Y-91127000D01*
X109878000Y-90873000D01*
X109898000Y-90873000D01*
X109898000Y-90853000D01*
X110152000Y-90853000D01*
X110152000Y-90873000D01*
X110152000Y-90873000D01*
G37*
X110152000Y-90873000D02*
X110172000Y-90873000D01*
X110172000Y-91127000D01*
X110152000Y-91127000D01*
X110152000Y-91147000D01*
X109898000Y-91147000D01*
X109898000Y-91127000D01*
X109878000Y-91127000D01*
X109878000Y-90873000D01*
X109898000Y-90873000D01*
X109898000Y-90853000D01*
X110152000Y-90853000D01*
X110152000Y-90873000D01*
G04 #@! TD*
M02*
